<?xml version="1.0" encoding="UTF-8" standalone="no"?>
<!DOCTYPE svg PUBLIC "-//W3C//DTD SVG 1.1//EN"
 "http://www.w3.org/Graphics/SVG/1.1/DTD/svg11.dtd">
<!-- Generated by graphviz version 2.43.0 (0)
 -->
<!-- Title: G Pages: 1 -->
<svg width="296pt" height="233pt"
 viewBox="0.00 0.00 296.00 232.79" xmlns="http://www.w3.org/2000/svg" xmlns:xlink="http://www.w3.org/1999/xlink">
<g id="graph0" class="graph" transform="scale(1 1) rotate(0) translate(4 228.79)">
<title>G</title>
<polygon fill="white" stroke="transparent" points="-4,4 -4,-228.79 292,-228.79 292,4 -4,4"/>
<g id="clust1" class="cluster">
<title>cluster_0</title>
<path fill="none" stroke="red" d="M115,-162.61C115,-162.61 255,-162.61 255,-162.61 261,-162.61 267,-168.61 267,-174.61 267,-174.61 267,-204.79 267,-204.79 267,-210.79 261,-216.79 255,-216.79 255,-216.79 115,-216.79 115,-216.79 109,-216.79 103,-210.79 103,-204.79 103,-204.79 103,-174.61 103,-174.61 103,-168.61 109,-162.61 115,-162.61"/>
</g>
<g id="clust2" class="cluster">
<title>cluster_1</title>
<path fill="none" stroke="purple" d="M20,-86.01C20,-86.01 108,-86.01 108,-86.01 114,-86.01 120,-92.01 120,-98.01 120,-98.01 120,-129.61 120,-129.61 120,-135.61 114,-141.61 108,-141.61 108,-141.61 20,-141.61 20,-141.61 14,-141.61 8,-135.61 8,-129.61 8,-129.61 8,-98.01 8,-98.01 8,-92.01 14,-86.01 20,-86.01"/>
</g>
<g id="clust4" class="cluster">
<title>cluster_2</title>
<path fill="none" stroke="transparent" d="M140,-8C140,-8 268,-8 268,-8 274,-8 280,-14 280,-20 280,-20 280,-128.2 280,-128.2 280,-134.2 274,-140.2 268,-140.2 268,-140.2 140,-140.2 140,-140.2 134,-140.2 128,-134.2 128,-128.2 128,-128.2 128,-20 128,-20 128,-14 134,-8 140,-8"/>
</g>
<!-- A -->
<g id="node1" class="node">
<title>A</title>
<ellipse fill="none" stroke="black" cx="129" cy="-189.7" rx="18.27" ry="18.27"/>
<text text-anchor="middle" x="129" y="-186" font-family="Times,serif" font-size="14.00">A</text>
</g>
<!-- D -->
<g id="node4" class="node">
<title>D</title>
<ellipse fill="none" stroke="black" cx="92" cy="-113.81" rx="19.6" ry="19.6"/>
<text text-anchor="middle" x="92" y="-110.11" font-family="Times,serif" font-size="14.00">D</text>
</g>
<!-- A&#45;&gt;D -->
<g id="edge4" class="edge">
<title>A&#45;&gt;D</title>
<path fill="none" stroke="black" d="M121.15,-173.03C116.46,-163.66 110.38,-151.52 104.99,-140.75"/>
<polygon fill="black" stroke="black" points="108.09,-139.12 100.48,-131.75 101.83,-142.25 108.09,-139.12"/>
</g>
<!-- F -->
<g id="node6" class="node">
<title>F</title>
<ellipse fill="none" stroke="blue" cx="156" cy="-113.81" rx="18.27" ry="18.27"/>
<text text-anchor="middle" x="156" y="-110.11" font-family="Times,serif" font-size="14.00" fill="blue">F</text>
</g>
<!-- A&#45;&gt;F -->
<g id="edge5" class="edge">
<title>A&#45;&gt;F</title>
<path fill="none" stroke="black" d="M134.99,-172.3C138.36,-163.09 142.64,-151.37 146.46,-140.93"/>
<polygon fill="black" stroke="black" points="149.79,-142.01 149.93,-131.42 143.21,-139.61 149.79,-142.01"/>
</g>
<!-- B -->
<g id="node2" class="node">
<title>B</title>
<ellipse fill="none" stroke="black" cx="184" cy="-189.7" rx="19.18" ry="19.18"/>
<text text-anchor="middle" x="184" y="-186" font-family="Times,serif" font-size="14.00">B</text>
</g>
<!-- E -->
<g id="node5" class="node">
<title>E</title>
<ellipse fill="none" stroke="black" cx="35" cy="-113.81" rx="19.18" ry="19.18"/>
<text text-anchor="middle" x="35" y="-110.11" font-family="Times,serif" font-size="14.00">E</text>
</g>
<!-- B&#45;&gt;E -->
<g id="edge6" class="edge">
<title>B&#45;&gt;E</title>
<path fill="none" stroke="black" d="M171.75,-174.63C167.21,-170.19 161.76,-165.65 156,-162.61 118.53,-142.81 100.33,-161.66 63,-141.61 60.04,-140.02 57.16,-138.03 54.45,-135.85"/>
<polygon fill="black" stroke="black" points="56.67,-133.13 46.92,-128.99 51.96,-138.31 56.67,-133.13"/>
</g>
<!-- G -->
<g id="node7" class="node">
<title>G</title>
<ellipse fill="none" stroke="blue" cx="156" cy="-36.51" rx="19.6" ry="19.6"/>
<text text-anchor="middle" x="156" y="-32.81" font-family="Times,serif" font-size="14.00" fill="blue">G</text>
</g>
<!-- B&#45;&gt;G -->
<g id="edge7" class="edge">
<title>B&#45;&gt;G</title>
<path fill="none" stroke="black" d="M186.48,-170.53C188.72,-149.72 190.62,-114.79 183,-86.01 180.81,-77.76 176.91,-69.41 172.73,-62.02"/>
<polygon fill="black" stroke="black" points="175.59,-59.98 167.41,-53.25 169.61,-63.61 175.59,-59.98"/>
</g>
<!-- C -->
<g id="node3" class="node">
<title>C</title>
<ellipse fill="none" stroke="black" cx="240" cy="-189.7" rx="19.18" ry="19.18"/>
<text text-anchor="middle" x="240" y="-186" font-family="Times,serif" font-size="14.00">C</text>
</g>
<!-- C&#45;&gt;E -->
<g id="edge8" class="edge">
<title>C&#45;&gt;E</title>
<path fill="none" stroke="black" d="M228.16,-174.63C223.58,-170.08 218,-165.47 212,-162.61 181.82,-148.21 93.08,-156.21 63,-141.61 59.97,-140.14 57.06,-138.22 54.33,-136.09"/>
<polygon fill="black" stroke="black" points="56.54,-133.37 46.78,-129.26 51.85,-138.56 56.54,-133.37"/>
</g>
<!-- C&#45;&gt;G -->
<g id="edge9" class="edge">
<title>C&#45;&gt;G</title>
<path fill="none" stroke="black" d="M235.5,-170.94C228.99,-147.48 215.32,-105.57 194,-75.01 189.55,-68.64 183.94,-62.41 178.4,-56.93"/>
<polygon fill="black" stroke="black" points="180.69,-54.27 171.02,-49.95 175.89,-59.36 180.69,-54.27"/>
</g>
<!-- H -->
<g id="node8" class="node">
<title>H</title>
<ellipse fill="none" stroke="blue" cx="251" cy="-36.51" rx="20.51" ry="20.51"/>
<text text-anchor="middle" x="251" y="-32.81" font-family="Times,serif" font-size="14.00" fill="blue">H</text>
</g>
<!-- C&#45;&gt;H -->
<g id="edge10" class="edge">
<title>C&#45;&gt;H</title>
<path fill="none" stroke="black" d="M247.88,-172.19C250.36,-166.17 252.76,-159.22 254,-152.61 259.39,-123.81 257.62,-90.26 255.13,-66.84"/>
<polygon fill="black" stroke="black" points="258.6,-66.37 253.96,-56.85 251.65,-67.19 258.6,-66.37"/>
</g>
<!-- F&#45;&gt;H -->
<g id="edge1" class="edge">
<title>F&#45;&gt;H</title>
<path fill="none" stroke="blue" d="M170.02,-101.7C185.01,-89.82 209.06,-70.75 227.06,-56.49"/>
<polygon fill="blue" stroke="blue" points="229.68,-58.87 235.34,-49.92 225.33,-53.39 229.68,-58.87"/>
</g>
<!-- G&#45;&gt;F -->
<g id="edge3" class="edge">
<title>G&#45;&gt;F</title>
<path fill="none" stroke="blue" d="M156,-56.46C156,-65.13 156,-75.58 156,-85.12"/>
<polygon fill="blue" stroke="blue" points="152.5,-85.35 156,-95.35 159.5,-85.35 152.5,-85.35"/>
</g>
<!-- H&#45;&gt;G -->
<g id="edge2" class="edge">
<title>H&#45;&gt;G</title>
<path fill="none" stroke="blue" d="M230.23,-36.51C217.42,-36.51 200.78,-36.51 186.5,-36.51"/>
<polygon fill="blue" stroke="blue" points="186.15,-33.01 176.15,-36.51 186.15,-40.01 186.15,-33.01"/>
<text text-anchor="middle" x="203.15" y="-43.31" font-family="Times,serif" font-size="14.00"> &#160;&#160;&#160;&#160;&#160;&#160;&#160;</text>
</g>
</g>
</svg>
