<?xml version="1.0" encoding="UTF-8" standalone="no"?>
<!DOCTYPE svg PUBLIC "-//W3C//DTD SVG 1.1//EN"
 "http://www.w3.org/Graphics/SVG/1.1/DTD/svg11.dtd">
<!-- Generated by graphviz version 2.43.0 (0)
 -->
<!-- Title: G Pages: 1 -->
<svg width="347pt" height="311pt"
 viewBox="0.00 0.00 346.83 311.33" xmlns="http://www.w3.org/2000/svg" xmlns:xlink="http://www.w3.org/1999/xlink">
<g id="graph0" class="graph" transform="scale(1 1) rotate(0) translate(4 307.33)">
<title>G</title>
<polygon fill="white" stroke="transparent" points="-4,4 -4,-307.33 342.83,-307.33 342.83,4 -4,4"/>
<!-- A -->
<g id="node1" class="node">
<title>A</title>
<ellipse fill="none" stroke="#999999" cx="136.45" cy="-284.95" rx="18.27" ry="18.27"/>
<text text-anchor="middle" x="136.45" y="-281.25" font-family="Times,serif" font-size="14.00" fill="#999999">A</text>
</g>
<!-- B -->
<g id="node2" class="node">
<title>B</title>
<ellipse fill="none" stroke="#999999" cx="136.45" cy="-190.67" rx="19.18" ry="19.18"/>
<text text-anchor="middle" x="136.45" y="-186.97" font-family="Times,serif" font-size="14.00" fill="#999999">B</text>
</g>
<!-- A&#45;&gt;B -->
<g id="edge1" class="edge">
<title>A&#45;&gt;B</title>
<path fill="none" stroke="#999999" d="M136.45,-266.16C136.45,-253.18 136.45,-235.31 136.45,-220.33"/>
<polygon fill="#999999" stroke="#999999" points="139.95,-220.04 136.45,-210.04 132.95,-220.04 139.95,-220.04"/>
</g>
<!-- D -->
<g id="node5" class="node">
<title>D</title>
<ellipse fill="none" stroke="black" cx="224.45" cy="-190.67" rx="19.6" ry="19.6"/>
<text text-anchor="middle" x="224.45" y="-186.97" font-family="Times,serif" font-size="14.00">D</text>
</g>
<!-- A&#45;&gt;D -->
<g id="edge4" class="edge">
<title>A&#45;&gt;D</title>
<path fill="none" stroke="black" d="M148.68,-271.12C162.94,-256.17 186.71,-231.25 203.83,-213.3"/>
<polygon fill="black" stroke="black" points="206.8,-215.25 211.17,-205.6 201.73,-210.42 206.8,-215.25"/>
</g>
<!-- F -->
<g id="node7" class="node">
<title>F</title>
<ellipse fill="none" stroke="black" cx="308.45" cy="-94.98" rx="18.27" ry="18.27"/>
<text text-anchor="middle" x="308.45" y="-91.28" font-family="Times,serif" font-size="14.00">F</text>
</g>
<!-- A&#45;&gt;F -->
<g id="edge6" class="edge">
<title>A&#45;&gt;F</title>
<path fill="none" stroke="black" d="M154.31,-280.01C179.57,-273.58 225.73,-258.54 253.45,-229.56 268.61,-213.71 288.73,-157.17 299.95,-122.93"/>
<polygon fill="black" stroke="black" points="303.39,-123.68 303.13,-113.09 296.73,-121.53 303.39,-123.68"/>
</g>
<!-- C -->
<g id="node3" class="node">
<title>C</title>
<ellipse fill="none" stroke="#999999" cx="136.45" cy="-94.98" rx="19.18" ry="19.18"/>
<text text-anchor="middle" x="136.45" y="-91.28" font-family="Times,serif" font-size="14.00" fill="#999999">C</text>
</g>
<!-- B&#45;&gt;C -->
<g id="edge2" class="edge">
<title>B&#45;&gt;C</title>
<path fill="none" stroke="#999999" d="M136.45,-171.16C136.45,-157.86 136.45,-139.67 136.45,-124.52"/>
<polygon fill="#999999" stroke="#999999" points="139.95,-124.14 136.45,-114.14 132.95,-124.14 139.95,-124.14"/>
</g>
<!-- B&#45;&gt;D -->
<!-- G -->
<g id="node6" class="node">
<title>G</title>
<ellipse fill="none" stroke="black" cx="224.45" cy="-94.98" rx="19.6" ry="19.6"/>
<text text-anchor="middle" x="224.45" y="-91.28" font-family="Times,serif" font-size="14.00">G</text>
</g>
<!-- B&#45;&gt;G -->
<g id="edge7" class="edge">
<title>B&#45;&gt;G</title>
<path fill="none" stroke="black" d="M149.06,-176.25C163.4,-160.98 187.03,-135.82 204.01,-117.74"/>
<polygon fill="black" stroke="black" points="206.99,-119.68 211.29,-109.99 201.89,-114.89 206.99,-119.68"/>
</g>
<!-- E -->
<g id="node4" class="node">
<title>E</title>
<ellipse fill="none" stroke="#999999" cx="136.45" cy="-19.09" rx="19.18" ry="19.18"/>
<text text-anchor="middle" x="136.45" y="-15.39" font-family="Times,serif" font-size="14.00" fill="#999999">E</text>
</g>
<!-- C&#45;&gt;E -->
<g id="edge3" class="edge">
<title>C&#45;&gt;E</title>
<path fill="none" stroke="#999999" d="M136.45,-75.72C136.45,-67.55 136.45,-57.72 136.45,-48.62"/>
<polygon fill="#999999" stroke="#999999" points="139.95,-48.4 136.45,-38.4 132.95,-48.4 139.95,-48.4"/>
</g>
<!-- C&#45;&gt;G -->
<g id="edge9" class="edge">
<title>C&#45;&gt;G</title>
<path fill="none" stroke="black" d="M155.54,-94.98C166.84,-94.98 181.4,-94.98 194.22,-94.98"/>
<polygon fill="black" stroke="black" points="194.47,-98.48 204.47,-94.98 194.47,-91.48 194.47,-98.48"/>
<text text-anchor="middle" x="180.09" y="-101.78" font-family="Times,serif" font-size="14.00"> &#160;&#160;&#160;&#160;&#160;&#160;</text>
</g>
<!-- E&#45;&gt;A -->
<g id="edge12" class="edge">
<title>E&#45;&gt;A</title>
<path fill="none" stroke="red" d="M121.17,-30.75C78.44,-61.91 -36.09,-155.27 12.45,-229.56 33.52,-261.81 78.43,-275.06 108.02,-280.42"/>
<polygon fill="red" stroke="red" points="107.72,-283.92 118.15,-282.06 108.84,-277.01 107.72,-283.92"/>
</g>
<!-- D&#45;&gt;G -->
<g id="edge11" class="edge">
<title>D&#45;&gt;G</title>
<path fill="none" stroke="black" d="M224.45,-170.71C224.45,-157.63 224.45,-139.99 224.45,-125.14"/>
<polygon fill="black" stroke="black" points="227.95,-124.91 224.45,-114.91 220.95,-124.91 227.95,-124.91"/>
</g>
<!-- D&#45;&gt;F -->
<g id="edge5" class="edge">
<title>D&#45;&gt;F</title>
<path fill="none" stroke="black" d="M234.07,-173.07C241.35,-161.21 252.02,-145.21 263.45,-132.78 270.02,-125.62 278.02,-118.64 285.44,-112.72"/>
<polygon fill="black" stroke="black" points="287.98,-115.18 293.76,-106.3 283.71,-109.64 287.98,-115.18"/>
</g>
<!-- F&#45;&gt;G -->
<g id="edge10" class="edge">
<title>F&#45;&gt;G</title>
<path fill="none" stroke="black" d="M289.83,-94.98C279.51,-94.98 266.41,-94.98 254.66,-94.98"/>
<polygon fill="black" stroke="black" points="254.35,-91.48 244.35,-94.98 254.35,-98.48 254.35,-91.48"/>
<text text-anchor="middle" x="267.16" y="-101.78" font-family="Times,serif" font-size="14.00"> &#160;&#160;&#160;&#160;&#160;</text>
</g>
<!-- X -->
<!-- Y -->
<!-- X&#45;&gt;Y -->
<!-- Y&#45;&gt;F -->
<!-- TTTT -->
<!-- TTTT&#45;&gt;C -->
</g>
</svg>
