<?xml version="1.0" encoding="UTF-8" standalone="no"?>
<!DOCTYPE svg PUBLIC "-//W3C//DTD SVG 1.1//EN"
 "http://www.w3.org/Graphics/SVG/1.1/DTD/svg11.dtd">
<!-- Generated by graphviz version 2.43.0 (0)
 -->
<!-- Title: G Pages: 1 -->
<svg width="358pt" height="550pt"
 viewBox="0.00 0.00 358.23 550.33" xmlns="http://www.w3.org/2000/svg" xmlns:xlink="http://www.w3.org/1999/xlink">
<g id="graph0" class="graph" transform="scale(1 1) rotate(0) translate(4 546.33)">
<title>G</title>
<polygon fill="white" stroke="transparent" points="-4,4 -4,-546.33 354.23,-546.33 354.23,4 -4,4"/>
<!-- A -->
<g id="node1" class="node">
<title>A</title>
<ellipse fill="none" stroke="black" cx="175.11" cy="-442.17" rx="31.23" ry="31.23"/>
<text text-anchor="middle" x="175.11" y="-438.47" font-family="Times,serif" font-size="14.00">000</text>
</g>
<!-- C -->
<g id="node3" class="node">
<title>C</title>
<ellipse fill="none" stroke="black" cx="319.11" cy="-388.17" rx="31.23" ry="31.23"/>
<text text-anchor="middle" x="319.11" y="-384.47" font-family="Times,serif" font-size="14.00">001</text>
</g>
<!-- A&#45;&gt;C -->
<g id="edge1" class="edge">
<title>A&#45;&gt;C</title>
<path fill="none" stroke="black" d="M204.25,-431.24C226.07,-423.06 256.13,-411.78 280.03,-402.82"/>
<polygon fill="black" stroke="black" points="281.39,-406.05 289.52,-399.26 278.93,-399.5 281.39,-406.05"/>
<text text-anchor="middle" x="237.14" y="-420.83" font-family="Times,serif" font-size="14.00">1</text>
</g>
<!-- B -->
<g id="node2" class="node">
<title>B</title>
<ellipse fill="none" stroke="black" cx="175.11" cy="-334.17" rx="31.23" ry="31.23"/>
<text text-anchor="middle" x="175.11" y="-330.47" font-family="Times,serif" font-size="14.00">010</text>
</g>
<!-- F -->
<g id="node6" class="node">
<title>F</title>
<ellipse fill="none" stroke="black" cx="31.11" cy="-388.17" rx="31.23" ry="31.23"/>
<text text-anchor="middle" x="31.11" y="-384.47" font-family="Times,serif" font-size="14.00">100</text>
</g>
<!-- B&#45;&gt;F -->
<g id="edge17" class="edge">
<title>B&#45;&gt;F</title>
<path fill="none" stroke="black" d="M145.97,-345.09C124.16,-353.27 94.09,-364.55 70.19,-373.51"/>
<polygon fill="black" stroke="black" points="68.84,-370.28 60.7,-377.07 71.3,-376.83 68.84,-370.28"/>
<text text-anchor="middle" x="103.08" y="-363.1" font-family="Times,serif" font-size="14.00">0</text>
</g>
<!-- G -->
<g id="node7" class="node">
<title>G</title>
<ellipse fill="none" stroke="black" cx="175.11" cy="-208.17" rx="31.23" ry="31.23"/>
<text text-anchor="middle" x="175.11" y="-204.47" font-family="Times,serif" font-size="14.00">101</text>
</g>
<!-- B&#45;&gt;G -->
<g id="edge7" class="edge">
<title>B&#45;&gt;G</title>
<path fill="none" stroke="black" d="M200.03,-315.3C210.36,-294.43 211.63,-260.55 203.83,-236.49"/>
<polygon fill="black" stroke="black" points="207.06,-235.14 200.09,-227.16 200.56,-237.74 207.06,-235.14"/>
<text text-anchor="middle" x="196.93" y="-279.69" font-family="Times,serif" font-size="14.00">1</text>
</g>
<!-- C&#45;&gt;B -->
<g id="edge16" class="edge">
<title>C&#45;&gt;B</title>
<path fill="none" stroke="black" d="M289.97,-377.24C268.16,-369.06 238.09,-357.78 214.19,-348.82"/>
<polygon fill="black" stroke="black" points="215.3,-345.5 204.7,-345.26 212.84,-352.05 215.3,-345.5"/>
<text text-anchor="middle" x="247.08" y="-366.83" font-family="Times,serif" font-size="14.00">0</text>
</g>
<!-- D -->
<g id="node4" class="node">
<title>D</title>
<ellipse fill="none" stroke="black" cx="319.11" cy="-154.17" rx="31.23" ry="31.23"/>
<text text-anchor="middle" x="319.11" y="-150.47" font-family="Times,serif" font-size="14.00">011</text>
</g>
<!-- C&#45;&gt;D -->
<g id="edge2" class="edge">
<title>C&#45;&gt;D</title>
<path fill="none" stroke="black" d="M319.11,-356.61C319.11,-315.06 319.11,-241.9 319.11,-195.84"/>
<polygon fill="black" stroke="black" points="322.61,-195.6 319.11,-185.6 315.61,-195.6 322.61,-195.6"/>
<text text-anchor="middle" x="314.11" y="-280.02" font-family="Times,serif" font-size="14.00">1</text>
</g>
<!-- E -->
<g id="node5" class="node">
<title>E</title>
<ellipse fill="none" stroke="black" cx="31.11" cy="-154.17" rx="31.23" ry="31.23"/>
<text text-anchor="middle" x="31.11" y="-150.47" font-family="Times,serif" font-size="14.00">110</text>
</g>
<!-- D&#45;&gt;E -->
<g id="edge18" class="edge">
<title>D&#45;&gt;E</title>
<path fill="none" stroke="black" d="M287.74,-154.17C235.59,-154.17 131.03,-154.17 72.76,-154.17"/>
<polygon fill="black" stroke="black" points="72.44,-150.67 62.44,-154.17 72.44,-157.67 72.44,-150.67"/>
<text text-anchor="middle" x="175.25" y="-157.97" font-family="Times,serif" font-size="14.00">0</text>
</g>
<!-- H -->
<g id="node8" class="node">
<title>H</title>
<ellipse fill="none" stroke="black" cx="175.11" cy="-100.17" rx="31.23" ry="31.23"/>
<text text-anchor="middle" x="175.11" y="-96.47" font-family="Times,serif" font-size="14.00">111</text>
</g>
<!-- D&#45;&gt;H -->
<g id="edge3" class="edge">
<title>D&#45;&gt;H</title>
<path fill="none" stroke="black" d="M289.97,-143.24C268.16,-135.06 238.09,-123.78 214.19,-114.82"/>
<polygon fill="black" stroke="black" points="215.3,-111.5 204.7,-111.26 212.84,-118.05 215.3,-111.5"/>
<text text-anchor="middle" x="247.08" y="-132.83" font-family="Times,serif" font-size="14.00">1</text>
</g>
<!-- E&#45;&gt;F -->
<g id="edge14" class="edge">
<title>E&#45;&gt;F</title>
<path fill="none" stroke="black" d="M31.11,-185.72C31.11,-227.27 31.11,-300.43 31.11,-346.49"/>
<polygon fill="black" stroke="black" points="27.61,-346.73 31.11,-356.73 34.61,-346.73 27.61,-346.73"/>
<text text-anchor="middle" x="26.11" y="-269.91" font-family="Times,serif" font-size="14.00">0</text>
</g>
<!-- E&#45;&gt;G -->
<g id="edge4" class="edge">
<title>E&#45;&gt;G</title>
<path fill="none" stroke="black" d="M60.25,-165.09C82.07,-173.27 112.13,-184.55 136.03,-193.51"/>
<polygon fill="black" stroke="black" points="134.93,-196.83 145.52,-197.07 137.39,-190.28 134.93,-196.83"/>
<text text-anchor="middle" x="93.14" y="-183.1" font-family="Times,serif" font-size="14.00">1</text>
</g>
<!-- F&#45;&gt;A -->
<g id="edge15" class="edge">
<title>F&#45;&gt;A</title>
<path fill="none" stroke="black" d="M60.25,-399.09C82.07,-407.27 112.13,-418.55 136.03,-427.51"/>
<polygon fill="black" stroke="black" points="134.93,-430.83 145.52,-431.07 137.39,-424.28 134.93,-430.83"/>
<text text-anchor="middle" x="93.14" y="-417.1" font-family="Times,serif" font-size="14.00">0</text>
</g>
<!-- F&#45;&gt;C -->
<g id="edge6" class="edge">
<title>F&#45;&gt;C</title>
<path fill="none" stroke="black" d="M62.48,-388.17C114.64,-388.17 219.19,-388.17 277.46,-388.17"/>
<polygon fill="black" stroke="black" points="277.78,-391.67 287.78,-388.17 277.78,-384.67 277.78,-391.67"/>
<text text-anchor="middle" x="164.97" y="-391.97" font-family="Times,serif" font-size="14.00">1</text>
</g>
<!-- G&#45;&gt;B -->
<g id="edge8" class="edge">
<title>G&#45;&gt;B</title>
<path fill="none" stroke="black" d="M150.2,-227.03C139.86,-247.91 138.59,-281.78 146.4,-305.84"/>
<polygon fill="black" stroke="black" points="143.17,-307.19 150.14,-315.17 149.66,-304.59 143.17,-307.19"/>
<text text-anchor="middle" x="143.3" y="-270.24" font-family="Times,serif" font-size="14.00">0</text>
</g>
<!-- G&#45;&gt;B -->
<!-- G&#45;&gt;B -->
<!-- G&#45;&gt;B -->
<!-- G&#45;&gt;B -->
<!-- G&#45;&gt;D -->
<g id="edge5" class="edge">
<title>G&#45;&gt;D</title>
<path fill="none" stroke="black" d="M204.25,-197.24C226.07,-189.06 256.13,-177.78 280.03,-168.82"/>
<polygon fill="black" stroke="black" points="281.39,-172.05 289.52,-165.26 278.93,-165.5 281.39,-172.05"/>
<text text-anchor="middle" x="237.14" y="-186.83" font-family="Times,serif" font-size="14.00">1</text>
</g>
<!-- H&#45;&gt;E -->
<g id="edge13" class="edge">
<title>H&#45;&gt;E</title>
<path fill="none" stroke="black" d="M145.97,-111.09C124.16,-119.27 94.09,-130.55 70.19,-139.51"/>
<polygon fill="black" stroke="black" points="68.84,-136.28 60.7,-143.07 71.3,-142.83 68.84,-136.28"/>
<text text-anchor="middle" x="103.08" y="-129.1" font-family="Times,serif" font-size="14.00">0</text>
</g>
<!-- X -->
<!-- Y -->
<!-- X&#45;&gt;Y -->
<g id="edge19" class="edge">
<title>X&#45;&gt;Y</title>
<path fill="none" stroke="black" d="M157.27,-458.35C159.66,-538.84 187.85,-542.33 192.47,-468.82"/>
<polygon fill="black" stroke="black" points="195.99,-468.6 192.95,-458.45 188.99,-468.28 195.99,-468.6"/>
</g>
<!-- X&#45;&gt;Y -->
<!-- X&#45;&gt;Y -->
<!-- X&#45;&gt;Y -->
<!-- X&#45;&gt;Y -->
<!-- X&#45;&gt;Y -->
<!-- X&#45;&gt;Y -->
<!-- X&#45;&gt;Y -->
<!-- X&#45;&gt;Y -->
<!-- X&#45;&gt;Y -->
<!-- X&#45;&gt;Y -->
<!-- X&#45;&gt;Y -->
<!-- Z -->
<!-- W -->
<!-- W&#45;&gt;Z -->
<g id="edge31" class="edge">
<title>W&#45;&gt;Z</title>
<path fill="none" stroke="black" d="M192.95,-83.98C190.57,-3.49 162.37,0 157.75,-73.51"/>
<polygon fill="black" stroke="black" points="154.24,-73.73 157.28,-83.88 161.23,-74.05 154.24,-73.73"/>
</g>
<!-- W&#45;&gt;Z -->
<!-- W&#45;&gt;Z -->
<!-- W&#45;&gt;Z -->
<!-- W&#45;&gt;Z -->
<!-- W&#45;&gt;Z -->
<!-- W&#45;&gt;Z -->
<!-- W&#45;&gt;Z -->
<!-- W&#45;&gt;Z -->
<!-- W&#45;&gt;Z -->
<!-- W&#45;&gt;Z -->
<!-- W&#45;&gt;Z -->
<!-- M -->
<g id="node13" class="node">
<title>M</title>
<ellipse fill="none" stroke="transparent" cx="175.11" cy="-503.37" rx="0.5" ry="0.5"/>
<text text-anchor="middle" x="175.11" y="-499.67" font-family="Times,serif" font-size="14.00">1</text>
</g>
<!-- N -->
<g id="node14" class="node">
<title>N</title>
<ellipse fill="none" stroke="transparent" cx="175.11" cy="-38.97" rx="0.5" ry="0.5"/>
<text text-anchor="middle" x="175.11" y="-35.27" font-family="Times,serif" font-size="14.00">0</text>
</g>
</g>
</svg>
