<?xml version="1.0" encoding="UTF-8" standalone="no"?>
<!DOCTYPE svg PUBLIC "-//W3C//DTD SVG 1.1//EN"
 "http://www.w3.org/Graphics/SVG/1.1/DTD/svg11.dtd">
<!-- Generated by graphviz version 2.43.0 (0)
 -->
<!-- Title: G Pages: 1 -->
<svg width="223pt" height="176pt"
 viewBox="0.00 0.00 223.00 176.00" xmlns="http://www.w3.org/2000/svg" xmlns:xlink="http://www.w3.org/1999/xlink">
<g id="graph0" class="graph" transform="scale(1 1) rotate(0) translate(4 172)">
<title>G</title>
<polygon fill="white" stroke="transparent" points="-4,4 -4,-172 219,-172 219,4 -4,4"/>
<!-- A -->
<g id="node1" class="node">
<title>A</title>
<ellipse fill="none" stroke="black" cx="102" cy="-157" rx="11" ry="11"/>
</g>
<!-- B -->
<g id="node2" class="node">
<title>B</title>
<ellipse fill="none" stroke="black" cx="68" cy="-84" rx="11" ry="11"/>
</g>
<!-- A&#45;&#45;B -->
<g id="edge1" class="edge">
<title>A&#45;&#45;B</title>
<path fill="none" stroke="black" d="M97.56,-146.72C91.08,-133.19 79.1,-108.17 72.55,-94.51"/>
<text text-anchor="middle" x="94" y="-116.8" font-family="Times,serif" font-size="14.00">1</text>
</g>
<!-- G -->
<g id="node5" class="node">
<title>G</title>
<ellipse fill="none" stroke="black" cx="203" cy="-84" rx="11" ry="11"/>
</g>
<!-- A&#45;&#45;G -->
<g id="edge6" class="edge">
<title>A&#45;&#45;G</title>
<path fill="none" stroke="black" d="M111.75,-151.41C122.28,-146.27 139.39,-137.44 153,-128 169.18,-116.78 186.19,-101.23 195.61,-92.23"/>
<text text-anchor="middle" x="177" y="-116.8" font-family="Times,serif" font-size="14.00">8</text>
</g>
<!-- E -->
<g id="node6" class="node">
<title>E</title>
<ellipse fill="none" stroke="black" cx="154" cy="-84" rx="11" ry="11"/>
</g>
<!-- A&#45;&#45;E -->
<g id="edge7" class="edge">
<title>A&#45;&#45;E</title>
<path fill="none" stroke="black" d="M110.1,-148.61C115.76,-143.21 123.3,-135.54 129,-128 137.22,-117.11 144.82,-103.29 149.43,-94.29"/>
<text text-anchor="middle" x="144" y="-116.8" font-family="Times,serif" font-size="14.00">6</text>
</g>
<!-- C -->
<g id="node3" class="node">
<title>C</title>
<ellipse fill="none" stroke="black" cx="11" cy="-11" rx="11" ry="11"/>
</g>
<!-- B&#45;&#45;C -->
<g id="edge2" class="edge">
<title>B&#45;&#45;C</title>
<path fill="none" stroke="black" d="M61.46,-74.86C50.47,-61.16 28.41,-33.68 17.46,-20.05"/>
<text text-anchor="middle" x="50" y="-43.8" font-family="Times,serif" font-size="14.00">2</text>
</g>
<!-- D -->
<g id="node4" class="node">
<title>D</title>
<ellipse fill="none" stroke="black" cx="115" cy="-11" rx="11" ry="11"/>
</g>
<!-- B&#45;&#45;D -->
<g id="edge4" class="edge">
<title>B&#45;&#45;D</title>
<path fill="none" stroke="black" d="M72.21,-73.77C76.46,-64.83 83.45,-51.04 91,-40 96.06,-32.6 102.76,-24.92 107.8,-19.48"/>
<text text-anchor="middle" x="96" y="-43.8" font-family="Times,serif" font-size="14.00">4</text>
</g>
<!-- C&#45;&#45;A -->
<g id="edge3" class="edge">
<title>C&#45;&#45;A</title>
<path fill="none" stroke="black" stroke-dasharray="5,2" d="M12.63,-22.14C15.61,-38.5 23.06,-71.28 38,-95 53.05,-118.9 79.53,-139.96 93.23,-149.91"/>
<text text-anchor="middle" x="43" y="-80.3" font-family="Times,serif" font-size="14.00">3</text>
</g>
<!-- C&#45;&#45;D -->
<!-- D&#45;&#45;A -->
<g id="edge5" class="edge">
<title>D&#45;&#45;A</title>
<path fill="none" stroke="black" stroke-dasharray="5,2" d="M114.07,-22.26C111.68,-48.73 105.33,-119.07 102.93,-145.64"/>
<text text-anchor="middle" x="115" y="-80.3" font-family="Times,serif" font-size="14.00">5</text>
</g>
<!-- H -->
<g id="node8" class="node">
<title>H</title>
<ellipse fill="none" stroke="black" cx="204" cy="-11" rx="11" ry="11"/>
</g>
<!-- G&#45;&#45;H -->
<g id="edge9" class="edge">
<title>G&#45;&#45;H</title>
<path fill="none" stroke="black" d="M203.14,-72.83C203.33,-59.33 203.67,-35.64 203.86,-22.15"/>
<text text-anchor="middle" x="208" y="-43.8" font-family="Times,serif" font-size="14.00">9</text>
</g>
<!-- F -->
<g id="node7" class="node">
<title>F</title>
<ellipse fill="none" stroke="black" cx="155" cy="-11" rx="11" ry="11"/>
</g>
<!-- E&#45;&#45;F -->
<g id="edge8" class="edge">
<title>E&#45;&#45;F</title>
<path fill="none" stroke="black" d="M154.14,-72.83C154.33,-59.33 154.67,-35.64 154.86,-22.15"/>
<text text-anchor="middle" x="160" y="-43.8" font-family="Times,serif" font-size="14.00">7</text>
</g>
<!-- E&#45;&#45;H -->
</g>
</svg>
