<?xml version="1.0" encoding="UTF-8" standalone="no"?>
<!DOCTYPE svg PUBLIC "-//W3C//DTD SVG 1.1//EN"
 "http://www.w3.org/Graphics/SVG/1.1/DTD/svg11.dtd">
<!-- Generated by graphviz version 2.43.0 (0)
 -->
<!-- Title: G Pages: 1 -->
<svg width="210pt" height="174pt"
 viewBox="0.00 0.00 210.00 174.00" xmlns="http://www.w3.org/2000/svg" xmlns:xlink="http://www.w3.org/1999/xlink">
<g id="graph0" class="graph" transform="scale(1 1) rotate(0) translate(4 170)">
<title>G</title>
<polygon fill="white" stroke="transparent" points="-4,4 -4,-170 206,-170 206,4 -4,4"/>
<!-- A -->
<g id="node1" class="node">
<title>A</title>
<ellipse fill="yellow" stroke="black" cx="191" cy="-83" rx="11" ry="11"/>
</g>
<!-- B -->
<g id="node3" class="node">
<title>B</title>
<ellipse fill="blue" stroke="black" cx="137" cy="-11" rx="11" ry="11"/>
</g>
<!-- A&#45;&#45;B -->
<g id="edge1" class="edge">
<title>A&#45;&#45;B</title>
<path fill="none" stroke="black" d="M184.38,-74.17C174.01,-60.35 154.07,-33.76 143.68,-19.9"/>
</g>
<!-- E -->
<g id="node4" class="node">
<title>E</title>
<ellipse fill="blue" stroke="black" cx="65" cy="-155" rx="11" ry="11"/>
</g>
<!-- A&#45;&#45;E -->
<g id="edge2" class="edge">
<title>A&#45;&#45;E</title>
<path fill="none" stroke="black" d="M181.11,-88.65C157.56,-102.11 98.35,-135.94 74.84,-149.38"/>
</g>
<!-- D -->
<g id="node2" class="node">
<title>D</title>
<ellipse fill="yellow" stroke="black" cx="11" cy="-83" rx="11" ry="11"/>
</g>
<!-- D&#45;&#45;B -->
<g id="edge3" class="edge">
<title>D&#45;&#45;B</title>
<path fill="none" stroke="black" d="M20.89,-77.35C44.44,-63.89 103.65,-30.06 127.16,-16.62"/>
</g>
<!-- D&#45;&#45;E -->
<g id="edge4" class="edge">
<title>D&#45;&#45;E</title>
<path fill="none" stroke="black" d="M17.62,-91.83C27.99,-105.65 47.93,-132.24 58.32,-146.1"/>
</g>
<!-- C -->
<g id="node5" class="node">
<title>C</title>
<ellipse fill="red" stroke="black" cx="65" cy="-11" rx="11" ry="11"/>
</g>
<!-- B&#45;&#45;C -->
<g id="edge5" class="edge">
<title>B&#45;&#45;C</title>
<path fill="none" stroke="black" d="M125.75,-11C112.3,-11 89.93,-11 76.41,-11"/>
</g>
<!-- F -->
<g id="node6" class="node">
<title>F</title>
<ellipse fill="red" stroke="black" cx="137" cy="-155" rx="11" ry="11"/>
</g>
<!-- B&#45;&#45;F -->
<g id="edge6" class="edge">
<title>B&#45;&#45;F</title>
<path fill="none" stroke="black" d="M137,-22.3C137,-49.22 137,-116.89 137,-143.75"/>
</g>
<!-- E&#45;&#45;C -->
<g id="edge7" class="edge">
<title>E&#45;&#45;C</title>
<path fill="none" stroke="black" d="M65,-143.7C65,-116.78 65,-49.11 65,-22.25"/>
</g>
<!-- E&#45;&#45;F -->
<g id="edge8" class="edge">
<title>E&#45;&#45;F</title>
<path fill="none" stroke="black" d="M76.25,-155C89.7,-155 112.07,-155 125.59,-155"/>
</g>
<!-- C&#45;&#45;A -->
<g id="edge9" class="edge">
<title>C&#45;&#45;A</title>
<path fill="none" stroke="black" d="M74.89,-16.65C98.44,-30.11 157.65,-63.94 181.16,-77.38"/>
</g>
<!-- C&#45;&#45;D -->
<g id="edge10" class="edge">
<title>C&#45;&#45;D</title>
<path fill="none" stroke="black" d="M58.38,-19.83C48.01,-33.65 28.07,-60.24 17.68,-74.1"/>
</g>
<!-- F&#45;&#45;A -->
<g id="edge11" class="edge">
<title>F&#45;&#45;A</title>
<path fill="none" stroke="black" d="M143.62,-146.17C153.99,-132.35 173.93,-105.76 184.32,-91.9"/>
</g>
<!-- F&#45;&#45;D -->
<g id="edge12" class="edge">
<title>F&#45;&#45;D</title>
<path fill="none" stroke="black" d="M127.11,-149.35C103.56,-135.89 44.35,-102.06 20.84,-88.62"/>
</g>
</g>
</svg>
