<?xml version="1.0" encoding="UTF-8" standalone="no"?>
<!DOCTYPE svg PUBLIC "-//W3C//DTD SVG 1.1//EN"
 "http://www.w3.org/Graphics/SVG/1.1/DTD/svg11.dtd">
<!-- Generated by graphviz version 2.43.0 (0)
 -->
<!-- Title: G Pages: 1 -->
<svg width="318pt" height="102pt"
 viewBox="0.00 0.00 318.00 102.00" xmlns="http://www.w3.org/2000/svg" xmlns:xlink="http://www.w3.org/1999/xlink">
<g id="graph0" class="graph" transform="scale(1 1) rotate(0) translate(4 98)">
<title>G</title>
<polygon fill="white" stroke="transparent" points="-4,4 -4,-98 314,-98 314,4 -4,4"/>
<!-- A -->
<g id="node1" class="node">
<title>A</title>
<ellipse fill="yellow" stroke="black" cx="83" cy="-11" rx="11" ry="11"/>
</g>
<!-- D -->
<g id="node4" class="node">
<title>D</title>
<ellipse fill="blue" stroke="black" cx="11" cy="-83" rx="11" ry="11"/>
</g>
<!-- A&#45;&#45;D -->
<g id="edge1" class="edge">
<title>A&#45;&#45;D</title>
<path fill="none" stroke="black" d="M75.02,-18.98C61.11,-32.89 32.58,-61.42 18.8,-75.2"/>
</g>
<!-- E -->
<g id="node5" class="node">
<title>E</title>
<ellipse fill="blue" stroke="black" cx="83" cy="-83" rx="11" ry="11"/>
</g>
<!-- A&#45;&#45;E -->
<g id="edge2" class="edge">
<title>A&#45;&#45;E</title>
<path fill="none" stroke="black" d="M83,-22.25C83,-35.7 83,-58.07 83,-71.59"/>
</g>
<!-- F -->
<g id="node6" class="node">
<title>F</title>
<ellipse fill="blue" stroke="black" cx="155" cy="-83" rx="11" ry="11"/>
</g>
<!-- A&#45;&#45;F -->
<g id="edge3" class="edge">
<title>A&#45;&#45;F</title>
<path fill="none" stroke="black" d="M90.98,-18.98C104.89,-32.89 133.42,-61.42 147.2,-75.2"/>
</g>
<!-- G -->
<g id="node7" class="node">
<title>G</title>
<ellipse fill="blue" stroke="black" cx="227" cy="-83" rx="11" ry="11"/>
</g>
<!-- A&#45;&#45;G -->
<g id="edge4" class="edge">
<title>A&#45;&#45;G</title>
<path fill="none" stroke="black" d="M92.9,-15.95C119.2,-29.1 190.65,-64.82 217.03,-78.02"/>
</g>
<!-- H -->
<g id="node8" class="node">
<title>H</title>
<ellipse fill="blue" stroke="black" cx="299" cy="-83" rx="11" ry="11"/>
</g>
<!-- A&#45;&#45;H -->
<g id="edge5" class="edge">
<title>A&#45;&#45;H</title>
<path fill="none" stroke="black" d="M93.71,-14.57C130.49,-26.83 251.35,-67.12 288.22,-79.41"/>
</g>
<!-- B -->
<g id="node2" class="node">
<title>B</title>
<ellipse fill="yellow" stroke="black" cx="155" cy="-11" rx="11" ry="11"/>
</g>
<!-- B&#45;&#45;D -->
<g id="edge6" class="edge">
<title>B&#45;&#45;D</title>
<path fill="none" stroke="black" d="M145.1,-15.95C118.8,-29.1 47.35,-64.82 20.97,-78.02"/>
</g>
<!-- B&#45;&#45;E -->
<g id="edge7" class="edge">
<title>B&#45;&#45;E</title>
<path fill="none" stroke="black" d="M147.02,-18.98C133.11,-32.89 104.58,-61.42 90.8,-75.2"/>
</g>
<!-- B&#45;&#45;F -->
<g id="edge8" class="edge">
<title>B&#45;&#45;F</title>
<path fill="none" stroke="black" d="M155,-22.25C155,-35.7 155,-58.07 155,-71.59"/>
</g>
<!-- B&#45;&#45;G -->
<g id="edge9" class="edge">
<title>B&#45;&#45;G</title>
<path fill="none" stroke="black" d="M162.98,-18.98C176.89,-32.89 205.42,-61.42 219.2,-75.2"/>
</g>
<!-- B&#45;&#45;H -->
<g id="edge10" class="edge">
<title>B&#45;&#45;H</title>
<path fill="none" stroke="black" d="M164.9,-15.95C191.2,-29.1 262.65,-64.82 289.03,-78.02"/>
</g>
<!-- C -->
<g id="node3" class="node">
<title>C</title>
<ellipse fill="yellow" stroke="black" cx="227" cy="-11" rx="11" ry="11"/>
</g>
<!-- C&#45;&#45;D -->
<g id="edge11" class="edge">
<title>C&#45;&#45;D</title>
<path fill="none" stroke="black" d="M216.29,-14.57C179.51,-26.83 58.65,-67.12 21.78,-79.41"/>
</g>
<!-- C&#45;&#45;E -->
<g id="edge12" class="edge">
<title>C&#45;&#45;E</title>
<path fill="none" stroke="black" d="M217.1,-15.95C190.8,-29.1 119.35,-64.82 92.97,-78.02"/>
</g>
<!-- C&#45;&#45;F -->
<g id="edge13" class="edge">
<title>C&#45;&#45;F</title>
<path fill="none" stroke="black" d="M219.02,-18.98C205.11,-32.89 176.58,-61.42 162.8,-75.2"/>
</g>
<!-- C&#45;&#45;G -->
<g id="edge14" class="edge">
<title>C&#45;&#45;G</title>
<path fill="none" stroke="black" d="M227,-22.25C227,-35.7 227,-58.07 227,-71.59"/>
</g>
<!-- C&#45;&#45;H -->
<g id="edge15" class="edge">
<title>C&#45;&#45;H</title>
<path fill="none" stroke="black" d="M234.98,-18.98C248.89,-32.89 277.42,-61.42 291.2,-75.2"/>
</g>
</g>
</svg>
