<?xml version="1.0" encoding="UTF-8" standalone="no"?>
<!DOCTYPE svg PUBLIC "-//W3C//DTD SVG 1.1//EN"
 "http://www.w3.org/Graphics/SVG/1.1/DTD/svg11.dtd">
<!-- Generated by graphviz version 2.43.0 (0)
 -->
<!-- Title: G Pages: 1 -->
<svg width="162pt" height="198pt"
 viewBox="0.00 0.00 161.89 197.97" xmlns="http://www.w3.org/2000/svg" xmlns:xlink="http://www.w3.org/1999/xlink">
<g id="graph0" class="graph" transform="scale(1 1) rotate(0) translate(4 193.97)">
<title>G</title>
<polygon fill="white" stroke="transparent" points="-4,4 -4,-193.97 157.89,-193.97 157.89,4 -4,4"/>
<!-- C -->
<g id="node1" class="node">
<title>C</title>
<ellipse fill="none" stroke="black" cx="19.09" cy="-170.87" rx="19.18" ry="19.18"/>
<text text-anchor="middle" x="19.09" y="-167.17" font-family="Times,serif" font-size="14.00">C</text>
</g>
<!-- A -->
<g id="node2" class="node">
<title>A</title>
<ellipse fill="none" stroke="black" cx="19.09" cy="-94.98" rx="18.27" ry="18.27"/>
<text text-anchor="middle" x="19.09" y="-91.28" font-family="Times,serif" font-size="14.00">A</text>
</g>
<!-- C&#45;&#45;A -->
<g id="edge1" class="edge">
<title>C&#45;&#45;A</title>
<path fill="none" stroke="black" d="M13.25,-152.36C12.01,-140.33 12.04,-124.45 13.35,-112.61"/>
</g>
<!-- C&#45;&#45;A -->
<g id="edge2" class="edge">
<title>C&#45;&#45;A</title>
<path fill="none" stroke="black" d="M24.93,-152.36C26.18,-140.33 26.14,-124.45 24.84,-112.61"/>
</g>
<!-- D -->
<g id="node4" class="node">
<title>D</title>
<ellipse fill="none" stroke="black" cx="134.09" cy="-94.98" rx="19.6" ry="19.6"/>
<text text-anchor="middle" x="134.09" y="-91.28" font-family="Times,serif" font-size="14.00">D</text>
</g>
<!-- C&#45;&#45;D -->
<g id="edge5" class="edge">
<title>C&#45;&#45;D</title>
<path fill="none" stroke="black" d="M35.08,-159.6C56.93,-145.56 95.9,-120.52 117.87,-106.41"/>
</g>
<!-- B -->
<g id="node3" class="node">
<title>B</title>
<ellipse fill="none" stroke="black" cx="19.09" cy="-19.09" rx="19.18" ry="19.18"/>
<text text-anchor="middle" x="19.09" y="-15.39" font-family="Times,serif" font-size="14.00">B</text>
</g>
<!-- A&#45;&#45;B -->
<g id="edge3" class="edge">
<title>A&#45;&#45;B</title>
<path fill="none" stroke="black" d="M13.33,-77.22C12.03,-65.29 12.01,-49.33 13.28,-37.31"/>
</g>
<!-- A&#45;&#45;B -->
<g id="edge4" class="edge">
<title>A&#45;&#45;B</title>
<path fill="none" stroke="black" d="M24.85,-77.22C26.16,-65.29 26.17,-49.33 24.9,-37.31"/>
</g>
<!-- A&#45;&#45;D -->
<g id="edge6" class="edge">
<title>A&#45;&#45;D</title>
<path fill="none" stroke="black" d="M37.57,-94.98C58.52,-94.98 92.56,-94.98 114.12,-94.98"/>
<text text-anchor="middle" x="75.88" y="-101.78" font-family="Times,serif" font-size="14.00"> &#160;&#160;&#160;&#160;&#160;&#160;&#160;&#160;&#160;&#160;&#160;&#160;</text>
</g>
<!-- B&#45;&#45;D -->
<g id="edge7" class="edge">
<title>B&#45;&#45;D</title>
<path fill="none" stroke="black" d="M34.8,-30.18C56.51,-44.13 95.51,-69.19 117.62,-83.4"/>
</g>
</g>
</svg>
