<?xml version="1.0" encoding="UTF-8" standalone="no"?>
<!DOCTYPE svg PUBLIC "-//W3C//DTD SVG 1.1//EN"
 "http://www.w3.org/Graphics/SVG/1.1/DTD/svg11.dtd">
<!-- Generated by graphviz version 2.43.0 (0)
 -->
<!-- Title: G Pages: 1 -->
<svg width="174pt" height="178pt"
 viewBox="0.00 0.00 173.83 178.13" xmlns="http://www.w3.org/2000/svg" xmlns:xlink="http://www.w3.org/1999/xlink">
<g id="graph0" class="graph" transform="scale(1 1) rotate(0) translate(4 174.13)">
<title>G</title>
<polygon fill="white" stroke="transparent" points="-4,4 -4,-174.13 169.83,-174.13 169.83,4 -4,4"/>
<!-- A -->
<g id="node1" class="node">
<title>A</title>
<ellipse fill="none" stroke="black" cx="78.71" cy="-85.02" rx="3.5" ry="3.5"/>
</g>
<!-- B -->
<g id="node2" class="node">
<title>B</title>
<ellipse fill="none" stroke="black" cx="162.33" cy="-85.64" rx="3.5" ry="3.5"/>
</g>
<!-- A&#45;&#45;B -->
<g id="edge1" class="edge">
<title>A&#45;&#45;B</title>
<path fill="none" stroke="black" d="M82.31,-85.05C95.93,-85.15 144.38,-85.51 158.46,-85.61"/>
</g>
<!-- C -->
<g id="node3" class="node">
<title>C</title>
<ellipse fill="none" stroke="black" cx="60.8" cy="-3.5" rx="3.5" ry="3.5"/>
</g>
<!-- A&#45;&#45;C -->
<g id="edge2" class="edge">
<title>A&#45;&#45;C</title>
<path fill="none" stroke="black" d="M77.94,-81.52C75.02,-68.23 64.64,-21 61.62,-7.27"/>
</g>
<!-- D -->
<g id="node4" class="node">
<title>D</title>
<ellipse fill="none" stroke="black" cx="3.78" cy="-121.87" rx="3.5" ry="3.5"/>
</g>
<!-- A&#45;&#45;D -->
<g id="edge3" class="edge">
<title>A&#45;&#45;D</title>
<path fill="none" stroke="black" d="M75.49,-86.6C63.28,-92.61 19.86,-113.96 7.24,-120.17"/>
</g>
<!-- E -->
<g id="node5" class="node">
<title>E</title>
<ellipse fill="none" stroke="black" cx="130.91" cy="-150.33" rx="3.5" ry="3.5"/>
</g>
<!-- A&#45;&#45;E -->
<g id="edge4" class="edge">
<title>A&#45;&#45;E</title>
<path fill="none" stroke="black" d="M80.96,-87.83C89.47,-98.47 119.71,-136.31 128.5,-147.31"/>
</g>
<!-- F -->
<g id="node6" class="node">
<title>F</title>
<ellipse fill="none" stroke="black" cx="60.75" cy="-166.63" rx="3.5" ry="3.5"/>
</g>
<!-- A&#45;&#45;F -->
<g id="edge5" class="edge">
<title>A&#45;&#45;F</title>
<path fill="none" stroke="black" d="M77.94,-88.53C75.01,-101.83 64.61,-149.11 61.58,-162.86"/>
</g>
<!-- G -->
<g id="node7" class="node">
<title>G</title>
<ellipse fill="none" stroke="black" cx="3.5" cy="-48.83" rx="3.5" ry="3.5"/>
</g>
<!-- A&#45;&#45;G -->
<g id="edge6" class="edge">
<title>A&#45;&#45;G</title>
<path fill="none" stroke="black" d="M75.48,-83.47C63.22,-77.57 19.64,-56.6 6.98,-50.51"/>
</g>
<!-- H -->
<g id="node8" class="node">
<title>H</title>
<ellipse fill="none" stroke="black" cx="131.53" cy="-20.3" rx="3.5" ry="3.5"/>
</g>
<!-- A&#45;&#45;H -->
<g id="edge7" class="edge">
<title>A&#45;&#45;H</title>
<path fill="none" stroke="black" d="M80.98,-82.24C89.59,-71.69 120.19,-34.19 129.08,-23.29"/>
</g>
</g>
</svg>
