<?xml version="1.0" encoding="UTF-8" standalone="no"?>
<!DOCTYPE svg PUBLIC "-//W3C//DTD SVG 1.1//EN"
 "http://www.w3.org/Graphics/SVG/1.1/DTD/svg11.dtd">
<!-- Generated by graphviz version 2.43.0 (0)
 -->
<!-- Title: G Pages: 1 -->
<svg width="260pt" height="278pt"
 viewBox="0.00 0.00 260.00 278.00" xmlns="http://www.w3.org/2000/svg" xmlns:xlink="http://www.w3.org/1999/xlink">
<g id="graph0" class="graph" transform="scale(1 1) rotate(0) translate(4 274)">
<title>G</title>
<polygon fill="white" stroke="transparent" points="-4,4 -4,-274 256,-274 256,4 -4,4"/>
<!-- A -->
<g id="node1" class="node">
<title>A</title>
<ellipse fill="none" stroke="black" cx="90" cy="-252" rx="18" ry="18"/>
<text text-anchor="middle" x="90" y="-248.3" font-family="Times,serif" font-size="14.00">A</text>
</g>
<!-- D -->
<g id="node2" class="node">
<title>D</title>
<ellipse fill="none" stroke="black" cx="162" cy="-144" rx="18.4" ry="18.4"/>
<text text-anchor="middle" x="162" y="-140.3" font-family="Times,serif" font-size="14.00">D</text>
</g>
<!-- A&#45;&gt;D -->
<g id="edge1" class="edge">
<title>A&#45;&gt;D</title>
<path fill="none" stroke="black" d="M100.01,-236.98C111.98,-219.03 132.15,-188.77 146.23,-167.66"/>
<polygon fill="black" stroke="black" points="149.21,-169.5 151.84,-159.24 143.38,-165.62 149.21,-169.5"/>
</g>
<!-- C -->
<g id="node4" class="node">
<title>C</title>
<ellipse fill="none" stroke="black" cx="54" cy="-36" rx="18" ry="18"/>
<text text-anchor="middle" x="54" y="-32.3" font-family="Times,serif" font-size="14.00">C</text>
</g>
<!-- D&#45;&gt;C -->
<g id="edge6" class="edge">
<title>D&#45;&gt;C</title>
<path fill="none" stroke="black" d="M148.76,-130.76C130.11,-112.11 95.98,-77.98 74.17,-56.17"/>
<polygon fill="black" stroke="black" points="76.56,-53.61 67.01,-49.01 71.61,-58.56 76.56,-53.61"/>
</g>
<!-- B -->
<g id="node3" class="node">
<title>B</title>
<ellipse fill="none" stroke="black" cx="18" cy="-126" rx="18" ry="18"/>
<text text-anchor="middle" x="18" y="-122.3" font-family="Times,serif" font-size="14.00">B</text>
</g>
<!-- B&#45;&gt;A -->
<g id="edge2" class="edge">
<title>B&#45;&gt;A</title>
<path fill="none" stroke="black" d="M26.97,-141.7C39.26,-163.21 61.45,-202.04 75.95,-227.41"/>
<polygon fill="black" stroke="black" points="72.91,-229.15 80.91,-236.1 78.99,-225.68 72.91,-229.15"/>
</g>
<!-- B&#45;&gt;D -->
<g id="edge3" class="edge">
<title>B&#45;&gt;D</title>
<path fill="none" stroke="black" d="M35.95,-128.24C60.52,-131.32 104.9,-136.86 133.9,-140.49"/>
<polygon fill="black" stroke="black" points="133.47,-143.96 143.83,-141.73 134.34,-137.02 133.47,-143.96"/>
</g>
<!-- C&#45;&gt;B -->
<g id="edge4" class="edge">
<title>C&#45;&gt;B</title>
<path fill="none" stroke="black" d="M47.23,-52.93C41.95,-66.13 34.52,-84.69 28.48,-99.81"/>
<polygon fill="black" stroke="black" points="25.21,-98.56 24.74,-109.15 31.7,-101.16 25.21,-98.56"/>
</g>
<!-- E -->
<g id="node5" class="node">
<title>E</title>
<ellipse fill="none" stroke="black" cx="144" cy="-18" rx="18" ry="18"/>
<text text-anchor="middle" x="144" y="-14.3" font-family="Times,serif" font-size="14.00">E</text>
</g>
<!-- C&#45;&gt;E -->
<g id="edge5" class="edge">
<title>C&#45;&gt;E</title>
<path fill="none" stroke="black" d="M71.78,-32.44C84.48,-29.9 101.8,-26.44 116.3,-23.54"/>
<polygon fill="black" stroke="black" points="117.14,-26.94 126.26,-21.55 115.76,-20.08 117.14,-26.94"/>
</g>
<!-- E&#45;&gt;B -->
<g id="edge7" class="edge">
<title>E&#45;&gt;B</title>
<path fill="none" stroke="black" d="M130.03,-29.97C108.18,-48.7 65.72,-85.09 39.81,-107.3"/>
<polygon fill="black" stroke="black" points="37.34,-104.81 32.03,-113.98 41.9,-110.13 37.34,-104.81"/>
</g>
<!-- F -->
<g id="node6" class="node">
<title>F</title>
<ellipse fill="none" stroke="black" cx="234" cy="-72" rx="18" ry="18"/>
<text text-anchor="middle" x="234" y="-68.3" font-family="Times,serif" font-size="14.00">F</text>
</g>
<!-- F&#45;&gt;D -->
<g id="edge8" class="edge">
<title>F&#45;&gt;D</title>
<path fill="none" stroke="black" d="M221.13,-84.87C210.41,-95.59 194.95,-111.05 182.52,-123.48"/>
<polygon fill="black" stroke="black" points="179.84,-121.21 175.25,-130.75 184.79,-126.16 179.84,-121.21"/>
</g>
<!-- F&#45;&gt;C -->
<g id="edge9" class="edge">
<title>F&#45;&gt;C</title>
<path fill="none" stroke="black" d="M216.08,-68.42C184.68,-62.14 119.49,-49.1 82.06,-41.61"/>
<polygon fill="black" stroke="black" points="82.34,-38.1 71.84,-39.57 80.96,-44.96 82.34,-38.1"/>
</g>
</g>
</svg>
