<?xml version="1.0" encoding="UTF-8" standalone="no"?>
<!DOCTYPE svg PUBLIC "-//W3C//DTD SVG 1.1//EN"
 "http://www.w3.org/Graphics/SVG/1.1/DTD/svg11.dtd">
<!-- Generated by graphviz version 2.43.0 (0)
 -->
<!-- Title: G Pages: 1 -->
<svg width="228pt" height="289pt"
 viewBox="0.00 0.00 228.00 289.20" xmlns="http://www.w3.org/2000/svg" xmlns:xlink="http://www.w3.org/1999/xlink">
<g id="graph0" class="graph" transform="scale(1 1) rotate(0) translate(4 285.2)">
<title>G</title>
<polygon fill="white" stroke="transparent" points="-4,4 -4,-285.2 224,-285.2 224,4 -4,4"/>
<!-- A -->
<g id="node1" class="node">
<title>A</title>
<ellipse fill="none" stroke="black" cx="101" cy="-270.2" rx="11" ry="11"/>
</g>
<!-- B -->
<g id="node2" class="node">
<title>B</title>
<ellipse fill="none" stroke="black" cx="65" cy="-198.2" rx="11" ry="11"/>
</g>
<!-- A&#45;&#45;B -->
<g id="edge1" class="edge">
<title>A&#45;&#45;B</title>
<path fill="none" stroke="black" d="M95.99,-260.19C89.12,-246.43 76.82,-221.84 69.96,-208.13"/>
</g>
<!-- F -->
<g id="node6" class="node">
<title>F</title>
<ellipse fill="none" stroke="black" cx="119" cy="-180.2" rx="11" ry="11"/>
</g>
<!-- A&#45;&#45;F -->
<g id="edge5" class="edge">
<title>A&#45;&#45;F</title>
<path fill="none" stroke="black" d="M103.21,-259.16C106.68,-241.8 113.38,-208.29 116.83,-191.04"/>
</g>
<!-- J -->
<g id="node10" class="node">
<title>J</title>
<ellipse fill="none" stroke="black" cx="162.2" cy="-234.2" rx="11" ry="11"/>
</g>
<!-- A&#45;&#45;J -->
<g id="edge9" class="edge">
<title>A&#45;&#45;J</title>
<path fill="none" stroke="black" d="M110.56,-264.57C121.99,-257.85 141.01,-246.66 152.5,-239.9"/>
</g>
<!-- C -->
<g id="node3" class="node">
<title>C</title>
<ellipse fill="none" stroke="black" cx="11" cy="-144.2" rx="11" ry="11"/>
</g>
<!-- B&#45;&#45;C -->
<g id="edge2" class="edge">
<title>B&#45;&#45;C</title>
<path fill="none" stroke="black" d="M57.03,-190.23C46.82,-180.02 29.23,-162.43 19,-152.2"/>
</g>
<!-- D -->
<g id="node4" class="node">
<title>D</title>
<ellipse fill="none" stroke="black" cx="47" cy="-72.2" rx="11" ry="11"/>
</g>
<!-- C&#45;&#45;D -->
<g id="edge3" class="edge">
<title>C&#45;&#45;D</title>
<path fill="none" stroke="black" d="M16.01,-134.19C22.88,-120.43 35.18,-95.84 42.04,-82.13"/>
</g>
<!-- E -->
<g id="node5" class="node">
<title>E</title>
<ellipse fill="none" stroke="black" cx="11" cy="-18.2" rx="11" ry="11"/>
</g>
<!-- D&#45;&#45;E -->
<g id="edge4" class="edge">
<title>D&#45;&#45;E</title>
<path fill="none" stroke="black" d="M40.73,-62.79C34.12,-52.88 23.78,-37.37 17.2,-27.5"/>
</g>
<!-- G -->
<g id="node7" class="node">
<title>G</title>
<ellipse fill="none" stroke="black" cx="101" cy="-126.2" rx="11" ry="11"/>
</g>
<!-- F&#45;&#45;G -->
<g id="edge6" class="edge">
<title>F&#45;&#45;G</title>
<path fill="none" stroke="black" d="M115.44,-169.53C112.29,-160.06 107.7,-146.31 104.55,-136.85"/>
</g>
<!-- H -->
<g id="node8" class="node">
<title>H</title>
<ellipse fill="none" stroke="black" cx="137" cy="-72.2" rx="11" ry="11"/>
</g>
<!-- G&#45;&#45;H -->
<g id="edge7" class="edge">
<title>G&#45;&#45;H</title>
<path fill="none" stroke="black" d="M107.27,-116.79C113.88,-106.88 124.22,-91.37 130.8,-81.5"/>
</g>
<!-- I -->
<g id="node9" class="node">
<title>I</title>
<ellipse fill="none" stroke="black" cx="90.2" cy="-11" rx="11" ry="11"/>
</g>
<!-- H&#45;&#45;I -->
<g id="edge8" class="edge">
<title>H&#45;&#45;I</title>
<path fill="none" stroke="black" d="M130.29,-63.43C121.4,-51.8 105.78,-31.38 96.89,-19.75"/>
</g>
<!-- K -->
<g id="node11" class="node">
<title>K</title>
<ellipse fill="none" stroke="black" cx="183.8" cy="-162.2" rx="11" ry="11"/>
</g>
<!-- J&#45;&#45;K -->
<g id="edge10" class="edge">
<title>J&#45;&#45;K</title>
<path fill="none" stroke="black" d="M165.39,-223.58C169.47,-209.96 176.51,-186.5 180.6,-172.87"/>
</g>
<!-- L -->
<g id="node12" class="node">
<title>L</title>
<ellipse fill="none" stroke="black" cx="209" cy="-90.2" rx="11" ry="11"/>
</g>
<!-- K&#45;&#45;L -->
<g id="edge11" class="edge">
<title>K&#45;&#45;L</title>
<path fill="none" stroke="black" d="M187.52,-151.58C192.28,-137.96 200.49,-114.5 205.27,-100.87"/>
</g>
<!-- M -->
<g id="node13" class="node">
<title>M</title>
<ellipse fill="none" stroke="black" cx="173" cy="-18.2" rx="11" ry="11"/>
</g>
<!-- L&#45;&#45;M -->
<g id="edge12" class="edge">
<title>L&#45;&#45;M</title>
<path fill="none" stroke="black" d="M203.99,-80.19C197.12,-66.43 184.82,-41.84 177.96,-28.13"/>
</g>
</g>
</svg>
