<?xml version="1.0" encoding="UTF-8" standalone="no"?>
<!DOCTYPE svg PUBLIC "-//W3C//DTD SVG 1.1//EN"
 "http://www.w3.org/Graphics/SVG/1.1/DTD/svg11.dtd">
<!-- Generated by graphviz version 2.43.0 (0)
 -->
<!-- Title: G Pages: 1 -->
<svg width="206pt" height="305pt"
 viewBox="0.00 0.00 206.00 305.00" xmlns="http://www.w3.org/2000/svg" xmlns:xlink="http://www.w3.org/1999/xlink">
<g id="graph0" class="graph" transform="scale(1 1) rotate(0) translate(4 301)">
<title>G</title>
<polygon fill="white" stroke="transparent" points="-4,4 -4,-301 202,-301 202,4 -4,4"/>
<!-- B -->
<g id="node1" class="node">
<title>B</title>
<ellipse fill="none" stroke="black" cx="27" cy="-192" rx="18" ry="18"/>
<text text-anchor="middle" x="27" y="-188.3" font-family="Times,serif" font-size="14.00">a</text>
</g>
<!-- C -->
<g id="node2" class="node">
<title>C</title>
<ellipse fill="none" stroke="black" cx="99" cy="-192" rx="18" ry="18"/>
<text text-anchor="middle" x="99" y="-188.3" font-family="Times,serif" font-size="14.00">b</text>
</g>
<!-- B&#45;&gt;C -->
<!-- E -->
<g id="node4" class="node">
<title>E</title>
<ellipse fill="none" stroke="black" cx="18" cy="-105" rx="18" ry="18"/>
<text text-anchor="middle" x="18" y="-101.3" font-family="Times,serif" font-size="14.00">am</text>
</g>
<!-- B&#45;&gt;E -->
<g id="edge4" class="edge">
<title>B&#45;&gt;E</title>
<path fill="none" stroke="black" d="M25.18,-173.8C23.95,-162.16 22.29,-146.55 20.88,-133.24"/>
<polygon fill="black" stroke="black" points="24.35,-132.75 19.82,-123.18 17.39,-133.49 24.35,-132.75"/>
<text text-anchor="middle" x="31" y="-144.8" font-family="Times,serif" font-size="14.00">m</text>
</g>
<!-- D -->
<g id="node3" class="node">
<title>D</title>
<ellipse fill="none" stroke="black" cx="171" cy="-192" rx="18" ry="18"/>
<text text-anchor="middle" x="171" y="-188.3" font-family="Times,serif" font-size="14.00">s</text>
</g>
<!-- C&#45;&gt;D -->
<!-- F -->
<g id="node5" class="node">
<title>F</title>
<ellipse fill="none" stroke="black" cx="72" cy="-105" rx="18" ry="18"/>
<text text-anchor="middle" x="72" y="-101.3" font-family="Times,serif" font-size="14.00">ba</text>
</g>
<!-- C&#45;&gt;F -->
<g id="edge5" class="edge">
<title>C&#45;&gt;F</title>
<path fill="none" stroke="black" d="M93.79,-174.61C89.98,-162.62 84.74,-146.09 80.34,-132.27"/>
<polygon fill="black" stroke="black" points="83.55,-130.81 77.19,-122.34 76.88,-132.93 83.55,-130.81"/>
<text text-anchor="middle" x="92.5" y="-144.8" font-family="Times,serif" font-size="14.00">a</text>
</g>
<!-- G -->
<g id="node6" class="node">
<title>G</title>
<ellipse fill="none" stroke="black" cx="126" cy="-105" rx="18" ry="18"/>
<text text-anchor="middle" x="126" y="-101.3" font-family="Times,serif" font-size="14.00">be</text>
</g>
<!-- C&#45;&gt;G -->
<g id="edge6" class="edge">
<title>C&#45;&gt;G</title>
<path fill="none" stroke="black" d="M104.21,-174.61C108.02,-162.62 113.26,-146.09 117.66,-132.27"/>
<polygon fill="black" stroke="black" points="121.12,-132.93 120.81,-122.34 114.45,-130.81 121.12,-132.93"/>
<text text-anchor="middle" x="119.5" y="-144.8" font-family="Times,serif" font-size="14.00">e</text>
</g>
<!-- H -->
<g id="node7" class="node">
<title>H</title>
<ellipse fill="none" stroke="black" cx="180" cy="-105" rx="18" ry="18"/>
<text text-anchor="middle" x="180" y="-101.3" font-family="Times,serif" font-size="14.00">so</text>
</g>
<!-- D&#45;&gt;H -->
<g id="edge7" class="edge">
<title>D&#45;&gt;H</title>
<path fill="none" stroke="black" d="M172.82,-173.8C174.05,-162.16 175.71,-146.55 177.12,-133.24"/>
<polygon fill="black" stroke="black" points="180.61,-133.49 178.18,-123.18 173.65,-132.75 180.61,-133.49"/>
<text text-anchor="middle" x="181.5" y="-144.8" font-family="Times,serif" font-size="14.00">o</text>
</g>
<!-- I -->
<g id="node8" class="node">
<title>I</title>
<ellipse fill="none" stroke="black" cx="72" cy="-18" rx="18" ry="18"/>
<text text-anchor="middle" x="72" y="-14.3" font-family="Times,serif" font-size="14.00">bad</text>
</g>
<!-- F&#45;&gt;I -->
<g id="edge8" class="edge">
<title>F&#45;&gt;I</title>
<path fill="none" stroke="black" d="M72,-86.8C72,-75.16 72,-59.55 72,-46.24"/>
<polygon fill="black" stroke="black" points="75.5,-46.18 72,-36.18 68.5,-46.18 75.5,-46.18"/>
<text text-anchor="middle" x="77" y="-57.8" font-family="Times,serif" font-size="14.00">d</text>
</g>
<!-- A -->
<g id="node9" class="node">
<title>A</title>
<ellipse fill="none" stroke="black" cx="99" cy="-279" rx="18" ry="18"/>
</g>
<!-- A&#45;&gt;B -->
<g id="edge1" class="edge">
<title>A&#45;&gt;B</title>
<path fill="none" stroke="black" d="M87.75,-264.72C76.23,-251.12 58.16,-229.79 44.72,-213.92"/>
<polygon fill="black" stroke="black" points="47.31,-211.56 38.17,-206.19 41.96,-216.08 47.31,-211.56"/>
<text text-anchor="middle" x="72.5" y="-231.8" font-family="Times,serif" font-size="14.00">a</text>
</g>
<!-- A&#45;&gt;C -->
<g id="edge2" class="edge">
<title>A&#45;&gt;C</title>
<path fill="none" stroke="black" d="M99,-260.8C99,-249.16 99,-233.55 99,-220.24"/>
<polygon fill="black" stroke="black" points="102.5,-220.18 99,-210.18 95.5,-220.18 102.5,-220.18"/>
<text text-anchor="middle" x="104" y="-231.8" font-family="Times,serif" font-size="14.00">b</text>
</g>
<!-- A&#45;&gt;D -->
<g id="edge3" class="edge">
<title>A&#45;&gt;D</title>
<path fill="none" stroke="black" d="M110.25,-264.72C121.77,-251.12 139.84,-229.79 153.28,-213.92"/>
<polygon fill="black" stroke="black" points="156.04,-216.08 159.83,-206.19 150.69,-211.56 156.04,-216.08"/>
<text text-anchor="middle" x="144" y="-231.8" font-family="Times,serif" font-size="14.00">s</text>
</g>
</g>
</svg>
