<?xml version="1.0" encoding="UTF-8" standalone="no"?>
<!DOCTYPE svg PUBLIC "-//W3C//DTD SVG 1.1//EN"
 "http://www.w3.org/Graphics/SVG/1.1/DTD/svg11.dtd">
<!-- Generated by graphviz version 2.43.0 (0)
 -->
<!-- Title: G Pages: 1 -->
<svg width="189pt" height="204pt"
 viewBox="0.00 0.00 189.00 204.00" xmlns="http://www.w3.org/2000/svg" xmlns:xlink="http://www.w3.org/1999/xlink">
<g id="graph0" class="graph" transform="scale(1 1) rotate(0) translate(4 200)">
<title>G</title>
<polygon fill="white" stroke="transparent" points="-4,4 -4,-200 185,-200 185,4 -4,4"/>
<!-- A -->
<g id="node1" class="node">
<title>A</title>
<ellipse fill="none" stroke="black" cx="71" cy="-185" rx="11" ry="11"/>
</g>
<!-- B -->
<g id="node2" class="node">
<title>B</title>
<ellipse fill="none" stroke="black" cx="51" cy="-127" rx="11" ry="11"/>
</g>
<!-- A&#45;&#45;B -->
<g id="edge1" class="edge">
<title>A&#45;&#45;B</title>
<path fill="none" stroke="black" d="M67.61,-174.5C63.95,-164.27 58.16,-148.06 54.48,-137.73"/>
</g>
<!-- C -->
<g id="node3" class="node">
<title>C</title>
<ellipse fill="none" stroke="black" cx="130" cy="-127" rx="11" ry="11"/>
</g>
<!-- A&#45;&#45;C -->
<g id="edge2" class="edge">
<title>A&#45;&#45;C</title>
<path fill="none" stroke="black" d="M78.71,-176.68C90.08,-165.89 111.21,-145.84 122.47,-135.15"/>
</g>
<!-- D -->
<g id="node4" class="node">
<title>D</title>
<ellipse fill="none" stroke="black" cx="11" cy="-69" rx="11" ry="11"/>
</g>
<!-- A&#45;&#45;D -->
<g id="edge10" class="edge">
<title>A&#45;&#45;D</title>
<path fill="none" stroke="black" stroke-dasharray="5,2" d="M63.1,-176.96C54.1,-168.53 39.54,-153.6 31,-138 20.6,-119 15.05,-93.99 12.59,-80.21"/>
</g>
<!-- G -->
<g id="node7" class="node">
<title>G</title>
<ellipse fill="none" stroke="black" cx="130" cy="-69" rx="11" ry="11"/>
</g>
<!-- A&#45;&#45;G -->
<g id="edge11" class="edge">
<title>A&#45;&#45;G</title>
<path fill="none" stroke="black" stroke-dasharray="5,2" d="M75.83,-174.67C86.95,-153.19 114.25,-100.44 125.27,-79.14"/>
</g>
<!-- B&#45;&#45;D -->
<g id="edge3" class="edge">
<title>B&#45;&#45;D</title>
<path fill="none" stroke="black" d="M44.75,-117.25C37.19,-106.67 24.55,-88.98 17.08,-78.51"/>
</g>
<!-- E -->
<g id="node5" class="node">
<title>E</title>
<ellipse fill="none" stroke="black" cx="51" cy="-69" rx="11" ry="11"/>
</g>
<!-- B&#45;&#45;E -->
<g id="edge4" class="edge">
<title>B&#45;&#45;E</title>
<path fill="none" stroke="black" d="M51,-115.99C51,-105.92 51,-90.47 51,-80.3"/>
</g>
<!-- C&#45;&#45;G -->
<g id="edge6" class="edge">
<title>C&#45;&#45;G</title>
<path fill="none" stroke="black" d="M130,-115.99C130,-105.92 130,-90.47 130,-80.3"/>
</g>
<!-- I -->
<g id="node9" class="node">
<title>I</title>
<ellipse fill="none" stroke="black" cx="170" cy="-11" rx="11" ry="11"/>
</g>
<!-- C&#45;&#45;I -->
<g id="edge12" class="edge">
<title>C&#45;&#45;I</title>
<path fill="none" stroke="black" stroke-dasharray="5,2" d="M137.49,-118.66C145.6,-110.18 158.16,-95.42 164,-80 171.39,-60.5 171.46,-35.67 170.77,-22.06"/>
</g>
<!-- J -->
<g id="node10" class="node">
<title>J</title>
<ellipse fill="none" stroke="black" cx="130" cy="-11" rx="11" ry="11"/>
</g>
<!-- C&#45;&#45;J -->
<g id="edge13" class="edge">
<title>C&#45;&#45;J</title>
<path fill="none" stroke="black" stroke-dasharray="5,2" d="M135.13,-117.2C140.06,-108.2 147.16,-93.64 150,-80 151.99,-70.43 151.99,-67.57 150,-58 147.16,-44.36 140.06,-29.8 135.13,-20.8"/>
</g>
<!-- F -->
<g id="node6" class="node">
<title>F</title>
<ellipse fill="none" stroke="black" cx="50" cy="-11" rx="11" ry="11"/>
</g>
<!-- E&#45;&#45;F -->
<g id="edge5" class="edge">
<title>E&#45;&#45;F</title>
<path fill="none" stroke="black" d="M50.82,-57.99C50.64,-47.92 50.37,-32.47 50.18,-22.3"/>
</g>
<!-- H -->
<g id="node8" class="node">
<title>H</title>
<ellipse fill="none" stroke="black" cx="90" cy="-11" rx="11" ry="11"/>
</g>
<!-- G&#45;&#45;H -->
<g id="edge7" class="edge">
<title>G&#45;&#45;H</title>
<path fill="none" stroke="black" d="M123.75,-59.25C116.19,-48.67 103.55,-30.98 96.08,-20.51"/>
</g>
<!-- G&#45;&#45;I -->
<g id="edge8" class="edge">
<title>G&#45;&#45;I</title>
<path fill="none" stroke="black" d="M136.25,-59.25C143.81,-48.67 156.45,-30.98 163.92,-20.51"/>
</g>
<!-- G&#45;&#45;J -->
<g id="edge9" class="edge">
<title>G&#45;&#45;J</title>
<path fill="none" stroke="black" d="M130,-57.99C130,-47.92 130,-32.47 130,-22.3"/>
</g>
</g>
</svg>
