<?xml version="1.0" encoding="UTF-8" standalone="no"?>
<!DOCTYPE svg PUBLIC "-//W3C//DTD SVG 1.1//EN"
 "http://www.w3.org/Graphics/SVG/1.1/DTD/svg11.dtd">
<!-- Generated by graphviz version 2.43.0 (0)
 -->
<!-- Title: G Pages: 1 -->
<svg width="182pt" height="304pt"
 viewBox="0.00 0.00 182.00 304.00" xmlns="http://www.w3.org/2000/svg" xmlns:xlink="http://www.w3.org/1999/xlink">
<g id="graph0" class="graph" transform="scale(1 1) rotate(0) translate(4 300)">
<title>G</title>
<polygon fill="white" stroke="transparent" points="-4,4 -4,-300 178,-300 178,4 -4,4"/>
<g id="clust1" class="cluster">
<title>cluster_0</title>
<path fill="none" stroke="black" d="M80,-227C80,-227 94,-227 94,-227 100,-227 106,-233 106,-239 106,-239 106,-276 106,-276 106,-282 100,-288 94,-288 94,-288 80,-288 80,-288 74,-288 68,-282 68,-276 68,-276 68,-239 68,-239 68,-233 74,-227 80,-227"/>
<text text-anchor="start" x="78" y="-273.8" font-family="Times,serif" font-size="14.00">A</text>
<text text-anchor="start" x="88" y="-273.8" font-family="Times,serif" baseline-shift="sub" font-size="14.00">0</text>
</g>
<g id="clust2" class="cluster">
<title>cluster_1</title>
<path fill="none" stroke="black" d="M40,-158C40,-158 134,-158 134,-158 140,-158 146,-164 146,-170 146,-170 146,-207 146,-207 146,-213 140,-219 134,-219 134,-219 40,-219 40,-219 34,-219 28,-213 28,-207 28,-207 28,-170 28,-170 28,-164 34,-158 40,-158"/>
<text text-anchor="start" x="36" y="-204.8" font-family="Times,serif" font-size="14.00">A</text>
<text text-anchor="start" x="46" y="-204.8" font-family="Times,serif" baseline-shift="sub" font-size="14.00">1</text>
</g>
<g id="clust4" class="cluster">
<title>cluster_2</title>
<path fill="none" stroke="black" d="M20,-77C20,-77 154,-77 154,-77 160,-77 166,-83 166,-89 166,-89 166,-126 166,-126 166,-132 160,-138 154,-138 154,-138 20,-138 20,-138 14,-138 8,-132 8,-126 8,-126 8,-89 8,-89 8,-83 14,-77 20,-77"/>
<text text-anchor="start" x="16" y="-85.8" font-family="Times,serif" font-size="14.00">A</text>
<text text-anchor="start" x="26" y="-85.8" font-family="Times,serif" baseline-shift="sub" font-size="14.00">2</text>
</g>
<g id="clust6" class="cluster">
<title>cluster_3</title>
<path fill="none" stroke="black" d="M60,-8C60,-8 114,-8 114,-8 120,-8 126,-14 126,-20 126,-20 126,-57 126,-57 126,-63 120,-69 114,-69 114,-69 60,-69 60,-69 54,-69 48,-63 48,-57 48,-57 48,-20 48,-20 48,-14 54,-8 60,-8"/>
<text text-anchor="start" x="78" y="-16.8" font-family="Times,serif" font-size="14.00">A</text>
<text text-anchor="start" x="88" y="-16.8" font-family="Times,serif" baseline-shift="sub" font-size="14.00">3</text>
</g>
<!-- A -->
<g id="node1" class="node">
<title>A</title>
<ellipse fill="none" stroke="black" cx="87" cy="-246" rx="11" ry="11"/>
</g>
<!-- B -->
<g id="node2" class="node">
<title>B</title>
<ellipse fill="none" stroke="black" cx="47" cy="-177" rx="11" ry="11"/>
</g>
<!-- A&#45;&#45;B -->
<g id="edge14" class="edge">
<title>A&#45;&#45;B</title>
<path fill="none" stroke="black" d="M80.26,-237.11C76.15,-232.1 70.96,-225.39 67,-219 60.58,-208.63 54.64,-195.9 50.94,-187.4"/>
</g>
<!-- C -->
<g id="node3" class="node">
<title>C</title>
<ellipse fill="none" stroke="black" cx="87" cy="-177" rx="11" ry="11"/>
</g>
<!-- A&#45;&#45;C -->
<!-- A&#45;&#45;C -->
<g id="edge15" class="edge">
<title>A&#45;&#45;C</title>
<path fill="none" stroke="black" d="M87,-234.82C87,-222.23 87,-200.91 87,-188.27"/>
</g>
<!-- A&#45;&#45;C -->
<!-- D -->
<g id="node4" class="node">
<title>D</title>
<ellipse fill="none" stroke="black" cx="127" cy="-177" rx="11" ry="11"/>
</g>
<!-- A&#45;&#45;D -->
<!-- A&#45;&#45;D -->
<g id="edge16" class="edge">
<title>A&#45;&#45;D</title>
<path fill="none" stroke="black" d="M93.74,-237.11C97.85,-232.1 103.04,-225.39 107,-219 113.42,-208.63 119.36,-195.9 123.06,-187.4"/>
</g>
<!-- A&#45;&#45;D -->
<!-- B&#45;&#45;C -->
<g id="edge1" class="edge">
<title>B&#45;&#45;C</title>
<path fill="none" stroke="black" d="M58.25,-177C64.09,-177 69.93,-177 75.77,-177"/>
</g>
<!-- E -->
<g id="node5" class="node">
<title>E</title>
<ellipse fill="none" stroke="black" cx="27" cy="-119" rx="11" ry="11"/>
</g>
<!-- B&#45;&#45;E -->
<!-- B&#45;&#45;E -->
<g id="edge17" class="edge">
<title>B&#45;&#45;E</title>
<path fill="none" stroke="black" d="M43.61,-166.5C39.95,-156.27 34.16,-140.06 30.48,-129.73"/>
</g>
<!-- B&#45;&#45;E -->
<!-- G -->
<g id="node7" class="node">
<title>G</title>
<ellipse fill="none" stroke="black" cx="107" cy="-119" rx="11" ry="11"/>
</g>
<!-- B&#45;&#45;G -->
<g id="edge18" class="edge">
<title>B&#45;&#45;G</title>
<path fill="none" stroke="black" d="M54.84,-168.68C66.41,-157.89 87.89,-137.84 99.34,-127.15"/>
</g>
<!-- C&#45;&#45;D -->
<!-- C&#45;&#45;E -->
<!-- C&#45;&#45;E -->
<g id="edge19" class="edge">
<title>C&#45;&#45;E</title>
<path fill="none" stroke="black" d="M79.16,-168.68C67.59,-157.89 46.11,-137.84 34.66,-127.15"/>
</g>
<!-- C&#45;&#45;E -->
<!-- F -->
<g id="node6" class="node">
<title>F</title>
<ellipse fill="none" stroke="black" cx="67" cy="-119" rx="11" ry="11"/>
</g>
<!-- C&#45;&#45;F -->
<!-- C&#45;&#45;F -->
<g id="edge20" class="edge">
<title>C&#45;&#45;F</title>
<path fill="none" stroke="black" d="M83.61,-166.5C79.95,-156.27 74.16,-140.06 70.48,-129.73"/>
</g>
<!-- C&#45;&#45;F -->
<!-- C&#45;&#45;G -->
<g id="edge21" class="edge">
<title>C&#45;&#45;G</title>
<path fill="none" stroke="black" d="M90.39,-166.5C94.05,-156.27 99.84,-140.06 103.52,-129.73"/>
</g>
<!-- D&#45;&#45;G -->
<g id="edge22" class="edge">
<title>D&#45;&#45;G</title>
<path fill="none" stroke="black" d="M123.61,-166.5C119.95,-156.27 114.16,-140.06 110.48,-129.73"/>
</g>
<!-- H -->
<g id="node8" class="node">
<title>H</title>
<ellipse fill="none" stroke="black" cx="147" cy="-119" rx="11" ry="11"/>
</g>
<!-- D&#45;&#45;H -->
<!-- D&#45;&#45;H -->
<g id="edge23" class="edge">
<title>D&#45;&#45;H</title>
<path fill="none" stroke="black" d="M130.39,-166.5C134.05,-156.27 139.84,-140.06 143.52,-129.73"/>
</g>
<!-- D&#45;&#45;H -->
<!-- E&#45;&#45;F -->
<!-- I -->
<g id="node9" class="node">
<title>I</title>
<ellipse fill="none" stroke="black" cx="67" cy="-50" rx="11" ry="11"/>
</g>
<!-- E&#45;&#45;I -->
<g id="edge24" class="edge">
<title>E&#45;&#45;I</title>
<path fill="none" stroke="black" d="M30.94,-108.6C34.64,-100.1 40.58,-87.37 47,-77 50.96,-70.61 56.15,-63.9 60.26,-58.89"/>
</g>
<!-- F&#45;&#45;G -->
<g id="edge4" class="edge">
<title>F&#45;&#45;G</title>
<path fill="none" stroke="black" d="M78.25,-119C84.09,-119 89.93,-119 95.77,-119"/>
</g>
<!-- F&#45;&#45;I -->
<!-- F&#45;&#45;I -->
<!-- G&#45;&#45;H -->
<g id="edge5" class="edge">
<title>G&#45;&#45;H</title>
<path fill="none" stroke="black" d="M118.25,-119C124.09,-119 129.93,-119 135.77,-119"/>
</g>
<!-- G&#45;&#45;I -->
<g id="edge25" class="edge">
<title>G&#45;&#45;I</title>
<path fill="none" stroke="black" d="M103.06,-108.6C99.36,-100.1 93.42,-87.37 87,-77 83.04,-70.61 77.85,-63.9 73.74,-58.89"/>
</g>
<!-- J -->
<g id="node10" class="node">
<title>J</title>
<ellipse fill="none" stroke="black" cx="107" cy="-50" rx="11" ry="11"/>
</g>
<!-- G&#45;&#45;J -->
<!-- G&#45;&#45;J -->
<g id="edge26" class="edge">
<title>G&#45;&#45;J</title>
<path fill="none" stroke="black" d="M107,-107.82C107,-95.23 107,-73.91 107,-61.27"/>
</g>
<!-- G&#45;&#45;J -->
<!-- H&#45;&#45;J -->
<g id="edge27" class="edge">
<title>H&#45;&#45;J</title>
<path fill="none" stroke="black" d="M143.06,-108.6C139.36,-100.1 133.42,-87.37 127,-77 123.04,-70.61 117.85,-63.9 113.74,-58.89"/>
</g>
</g>
</svg>
