<?xml version="1.0" encoding="UTF-8" standalone="no"?>
<!DOCTYPE svg PUBLIC "-//W3C//DTD SVG 1.1//EN"
 "http://www.w3.org/Graphics/SVG/1.1/DTD/svg11.dtd">
<!-- Generated by graphviz version 2.43.0 (0)
 -->
<!-- Title: G Pages: 1 -->
<svg width="314pt" height="260pt"
 viewBox="0.00 0.00 314.00 260.00" xmlns="http://www.w3.org/2000/svg" xmlns:xlink="http://www.w3.org/1999/xlink">
<g id="graph0" class="graph" transform="scale(1 1) rotate(0) translate(4 256)">
<title>G</title>
<polygon fill="white" stroke="transparent" points="-4,4 -4,-256 310,-256 310,4 -4,4"/>
<!-- A -->
<g id="node1" class="node">
<title>A</title>
<ellipse fill="none" stroke="red" cx="99" cy="-234" rx="18" ry="18"/>
<text text-anchor="middle" x="99" y="-230.3" font-family="Times,serif" font-size="14.00">3</text>
</g>
<!-- D -->
<g id="node4" class="node">
<title>D</title>
<ellipse fill="none" stroke="blue" cx="18" cy="-162" rx="18" ry="18"/>
<text text-anchor="middle" x="18" y="-158.3" font-family="Times,serif" font-size="14.00">4</text>
</g>
<!-- A&#45;&#45;D -->
<g id="edge1" class="edge">
<title>A&#45;&#45;D</title>
<path fill="none" stroke="black" d="M85.62,-221.44C70.53,-208.39 46.12,-187.3 31.13,-174.34"/>
</g>
<!-- F -->
<g id="node6" class="node">
<title>F</title>
<ellipse fill="none" stroke="blue" cx="72" cy="-162" rx="18" ry="18"/>
<text text-anchor="middle" x="72" y="-158.3" font-family="Times,serif" font-size="14.00">7</text>
</g>
<!-- A&#45;&#45;F -->
<g id="edge2" class="edge">
<title>A&#45;&#45;F</title>
<path fill="none" stroke="black" d="M92.74,-216.76C88.38,-205.46 82.58,-190.44 78.23,-179.15"/>
</g>
<!-- J -->
<g id="node10" class="node">
<title>J</title>
<ellipse fill="none" stroke="blue" cx="126" cy="-162" rx="18" ry="18"/>
<text text-anchor="middle" x="126" y="-158.3" font-family="Times,serif" font-size="14.00">1</text>
</g>
<!-- A&#45;&#45;J -->
<g id="edge3" class="edge">
<title>A&#45;&#45;J</title>
<path fill="none" stroke="black" d="M105.26,-216.76C109.62,-205.46 115.42,-190.44 119.77,-179.15"/>
</g>
<!-- L -->
<g id="node12" class="node">
<title>L</title>
<ellipse fill="none" stroke="blue" cx="207" cy="-162" rx="18" ry="18"/>
<text text-anchor="middle" x="207" y="-158.3" font-family="Times,serif" font-size="14.00">11</text>
</g>
<!-- A&#45;&#45;L -->
<g id="edge4" class="edge">
<title>A&#45;&#45;L</title>
<path fill="none" stroke="black" d="M114.02,-223.27C134.65,-209.89 171.54,-185.98 192.11,-172.65"/>
</g>
<!-- B -->
<g id="node2" class="node">
<title>B</title>
<ellipse fill="none" stroke="#ffcc00" cx="126" cy="-90" rx="18" ry="18"/>
<text text-anchor="middle" x="126" y="-86.3" font-family="Times,serif" font-size="14.00">2</text>
</g>
<!-- C -->
<g id="node3" class="node">
<title>C</title>
<ellipse fill="none" stroke="#ffcc00" cx="180" cy="-90" rx="18" ry="18"/>
<text text-anchor="middle" x="180" y="-86.3" font-family="Times,serif" font-size="14.00">6</text>
</g>
<!-- K -->
<g id="node11" class="node">
<title>K</title>
<ellipse fill="none" stroke="green" cx="180" cy="-18" rx="18" ry="18"/>
<text text-anchor="middle" x="180" y="-14.3" font-family="Times,serif" font-size="14.00">9</text>
</g>
<!-- C&#45;&#45;K -->
<g id="edge10" class="edge">
<title>C&#45;&#45;K</title>
<path fill="none" stroke="black" d="M180,-71.7C180,-60.85 180,-46.92 180,-36.1"/>
</g>
<!-- E -->
<g id="node5" class="node">
<title>E</title>
<ellipse fill="none" stroke="green" cx="18" cy="-18" rx="18" ry="18"/>
<text text-anchor="middle" x="18" y="-14.3" font-family="Times,serif" font-size="14.00">5</text>
</g>
<!-- G -->
<g id="node7" class="node">
<title>G</title>
<ellipse fill="none" stroke="#ffcc00" cx="18" cy="-90" rx="18" ry="18"/>
<text text-anchor="middle" x="18" y="-86.3" font-family="Times,serif" font-size="14.00">8</text>
</g>
<!-- F&#45;&#45;G -->
<g id="edge6" class="edge">
<title>F&#45;&#45;G</title>
<path fill="none" stroke="black" d="M61.33,-147.17C51.86,-134.9 38.11,-117.06 28.65,-104.8"/>
</g>
<!-- I -->
<g id="node9" class="node">
<title>I</title>
<ellipse fill="none" stroke="#ffcc00" cx="72" cy="-90" rx="18" ry="18"/>
<text text-anchor="middle" x="72" y="-86.3" font-family="Times,serif" font-size="14.00">12</text>
</g>
<!-- F&#45;&#45;I -->
<g id="edge7" class="edge">
<title>F&#45;&#45;I</title>
<path fill="none" stroke="black" d="M72,-143.7C72,-132.85 72,-118.92 72,-108.1"/>
</g>
<!-- G&#45;&#45;E -->
<g id="edge5" class="edge">
<title>G&#45;&#45;E</title>
<path fill="none" stroke="black" d="M18,-71.7C18,-60.85 18,-46.92 18,-36.1"/>
</g>
<!-- H -->
<g id="node8" class="node">
<title>H</title>
<ellipse fill="none" stroke="green" cx="72" cy="-18" rx="18" ry="18"/>
<text text-anchor="middle" x="72" y="-14.3" font-family="Times,serif" font-size="14.00">10</text>
</g>
<!-- I&#45;&#45;H -->
<g id="edge8" class="edge">
<title>I&#45;&#45;H</title>
<path fill="none" stroke="black" d="M72,-71.7C72,-60.85 72,-46.92 72,-36.1"/>
</g>
<!-- J&#45;&#45;B -->
<g id="edge9" class="edge">
<title>J&#45;&#45;B</title>
<path fill="none" stroke="black" d="M126,-143.7C126,-132.85 126,-118.92 126,-108.1"/>
</g>
<!-- L&#45;&#45;C -->
<g id="edge11" class="edge">
<title>L&#45;&#45;C</title>
<path fill="none" stroke="black" d="M200.74,-144.76C196.38,-133.46 190.58,-118.44 186.23,-107.15"/>
</g>
<!-- M -->
<g id="node13" class="node">
<title>M</title>
<ellipse fill="none" stroke="#ffcc00" cx="234" cy="-90" rx="18" ry="18"/>
<text text-anchor="middle" x="234" y="-86.3" font-family="Times,serif" font-size="14.00">13</text>
</g>
<!-- L&#45;&#45;M -->
<g id="edge12" class="edge">
<title>L&#45;&#45;M</title>
<path fill="none" stroke="black" d="M213.26,-144.76C217.62,-133.46 223.42,-118.44 227.77,-107.15"/>
</g>
<!-- O -->
<g id="node15" class="node">
<title>O</title>
<ellipse fill="none" stroke="#ffcc00" cx="288" cy="-90" rx="18" ry="18"/>
<text text-anchor="middle" x="288" y="-86.3" font-family="Times,serif" font-size="14.00">15</text>
</g>
<!-- L&#45;&#45;O -->
<g id="edge13" class="edge">
<title>L&#45;&#45;O</title>
<path fill="none" stroke="black" d="M220.38,-149.44C235.47,-136.39 259.88,-115.3 274.87,-102.34"/>
</g>
<!-- N -->
<g id="node14" class="node">
<title>N</title>
<ellipse fill="none" stroke="green" cx="288" cy="-18" rx="18" ry="18"/>
<text text-anchor="middle" x="288" y="-14.3" font-family="Times,serif" font-size="14.00">14</text>
</g>
<!-- O&#45;&#45;N -->
<g id="edge14" class="edge">
<title>O&#45;&#45;N</title>
<path fill="none" stroke="black" d="M288,-71.7C288,-60.85 288,-46.92 288,-36.1"/>
</g>
</g>
</svg>
