<?xml version="1.0" encoding="UTF-8" standalone="no"?>
<!DOCTYPE svg PUBLIC "-//W3C//DTD SVG 1.1//EN"
 "http://www.w3.org/Graphics/SVG/1.1/DTD/svg11.dtd">
<!-- Generated by graphviz version 2.43.0 (0)
 -->
<!-- Title: G Pages: 1 -->
<svg width="70pt" height="88pt"
 viewBox="0.00 0.00 70.00 88.00" xmlns="http://www.w3.org/2000/svg" xmlns:xlink="http://www.w3.org/1999/xlink">
<g id="graph0" class="graph" transform="scale(1 1) rotate(0) translate(4 84)">
<title>G</title>
<polygon fill="white" stroke="transparent" points="-4,4 -4,-84 66,-84 66,4 -4,4"/>
<!-- A -->
<g id="node1" class="node">
<title>A</title>
<ellipse fill="none" stroke="black" cx="11" cy="-69" rx="11" ry="11"/>
</g>
<!-- B -->
<g id="node2" class="node">
<title>B</title>
<ellipse fill="none" stroke="black" cx="51" cy="-69" rx="11" ry="11"/>
</g>
<!-- A&#45;&#45;B -->
<g id="edge1" class="edge">
<title>A&#45;&#45;B</title>
<path fill="none" stroke="blue" d="M22.25,-69C28.09,-69 33.93,-69 39.77,-69"/>
</g>
<!-- C -->
<g id="node3" class="node">
<title>C</title>
<ellipse fill="none" stroke="black" cx="11" cy="-11" rx="11" ry="11"/>
</g>
<!-- A&#45;&#45;C -->
<g id="edge4" class="edge">
<title>A&#45;&#45;C</title>
<path fill="none" stroke="red" d="M11,-57.99C11,-47.92 11,-32.47 11,-22.3"/>
</g>
<!-- B&#45;&#45;C -->
<g id="edge2" class="edge">
<title>B&#45;&#45;C</title>
<path fill="none" stroke="blue" d="M44.75,-59.25C37.19,-48.67 24.55,-30.98 17.08,-20.51"/>
</g>
<!-- D -->
<g id="node4" class="node">
<title>D</title>
<ellipse fill="none" stroke="black" cx="51" cy="-11" rx="11" ry="11"/>
</g>
<!-- B&#45;&#45;D -->
<g id="edge3" class="edge">
<title>B&#45;&#45;D</title>
<path fill="none" stroke="blue" d="M51,-57.99C51,-47.92 51,-32.47 51,-22.3"/>
</g>
<!-- C&#45;&#45;D -->
<g id="edge5" class="edge">
<title>C&#45;&#45;D</title>
<path fill="none" stroke="red" d="M22.25,-11C28.09,-11 33.93,-11 39.77,-11"/>
</g>
<!-- D&#45;&#45;A -->
<g id="edge6" class="edge">
<title>D&#45;&#45;A</title>
<path fill="none" stroke="red" d="M44.92,-20.51C37.45,-30.98 24.81,-48.67 17.25,-59.25"/>
</g>
</g>
</svg>
