<?xml version="1.0" encoding="UTF-8" standalone="no"?>
<!DOCTYPE svg PUBLIC "-//W3C//DTD SVG 1.1//EN"
 "http://www.w3.org/Graphics/SVG/1.1/DTD/svg11.dtd">
<!-- Generated by graphviz version 2.43.0 (0)
 -->
<!-- Title: G Pages: 1 -->
<svg width="270pt" height="81pt"
 viewBox="0.00 0.00 270.48 81.50" xmlns="http://www.w3.org/2000/svg" xmlns:xlink="http://www.w3.org/1999/xlink">
<g id="graph0" class="graph" transform="scale(1 1) rotate(0) translate(4 77.5)">
<title>G</title>
<polygon fill="white" stroke="transparent" points="-4,4 -4,-77.5 266.48,-77.5 266.48,4 -4,4"/>
<!-- A -->
<g id="node1" class="node">
<title>A</title>
<ellipse fill="none" stroke="black" cx="18.38" cy="-19.8" rx="18.27" ry="18.27"/>
<text text-anchor="middle" x="18.38" y="-16.1" font-family="Times,serif" font-size="14.00">A</text>
</g>
<!-- C -->
<g id="node2" class="node">
<title>C</title>
<ellipse fill="none" stroke="black" cx="129.38" cy="-19.8" rx="19.18" ry="19.18"/>
<text text-anchor="middle" x="129.38" y="-16.1" font-family="Times,serif" font-size="14.00">C</text>
</g>
<!-- A&#45;&gt;C -->
<g id="edge1" class="edge">
<title>A&#45;&gt;C</title>
<path fill="none" stroke="black" d="M28.39,-35.27C34.72,-43.58 43.72,-53.03 54.38,-57.6 69.91,-64.25 76.82,-64.14 92.38,-57.6 99.72,-54.51 106.32,-49.19 111.86,-43.49"/>
<polygon fill="black" stroke="black" points="114.75,-45.5 118.7,-35.67 109.48,-40.89 114.75,-45.5"/>
</g>
<!-- E -->
<g id="node3" class="node">
<title>E</title>
<ellipse fill="none" stroke="black" cx="243.38" cy="-19.8" rx="19.18" ry="19.18"/>
<text text-anchor="middle" x="243.38" y="-16.1" font-family="Times,serif" font-size="14.00">E</text>
</g>
<!-- A&#45;&gt;E -->
<!-- A&#45;&gt;E -->
<g id="edge3" class="edge">
<title>A&#45;&gt;E</title>
<path fill="none" stroke="black" d="M27.73,-35.91C34.53,-45.92 44.75,-57.93 57.38,-63.6 86.99,-76.88 173.7,-76.69 203.38,-63.6 212.66,-59.51 220.71,-52.09 227.11,-44.51"/>
<polygon fill="black" stroke="black" points="230.06,-46.42 233.39,-36.37 224.51,-42.15 230.06,-46.42"/>
</g>
<!-- B -->
<g id="node5" class="node">
<title>B</title>
<ellipse fill="none" stroke="black" cx="73.38" cy="-19.8" rx="19.18" ry="19.18"/>
<text text-anchor="middle" x="73.38" y="-16.1" font-family="Times,serif" font-size="14.00">B</text>
</g>
<!-- A&#45;&gt;B -->
<g id="edge6" class="edge">
<title>A&#45;&gt;B</title>
<path fill="none" stroke="black" d="M36.86,-19.8C39.31,-19.8 41.76,-19.8 44.2,-19.8"/>
<polygon fill="black" stroke="black" points="44.27,-23.3 54.27,-19.8 44.27,-16.3 44.27,-23.3"/>
</g>
<!-- C&#45;&gt;E -->
<g id="edge4" class="edge">
<title>C&#45;&gt;E</title>
<path fill="none" stroke="black" d="M140.07,-35.67C146.59,-43.89 155.72,-53.11 166.38,-57.6 182.77,-64.49 190,-64.49 206.38,-57.6 213.72,-54.51 220.32,-49.19 225.86,-43.49"/>
<polygon fill="black" stroke="black" points="228.75,-45.5 232.7,-35.67 223.48,-40.89 228.75,-45.5"/>
</g>
<!-- D -->
<g id="node4" class="node">
<title>D</title>
<ellipse fill="none" stroke="black" cx="186.38" cy="-19.8" rx="19.6" ry="19.6"/>
<text text-anchor="middle" x="186.38" y="-16.1" font-family="Times,serif" font-size="14.00">D</text>
</g>
<!-- C&#45;&gt;D -->
<g id="edge5" class="edge">
<title>C&#45;&gt;D</title>
<path fill="none" stroke="black" d="M148.53,-19.8C151.16,-19.8 153.79,-19.8 156.43,-19.8"/>
<polygon fill="black" stroke="black" points="156.57,-23.3 166.57,-19.8 156.57,-16.3 156.57,-23.3"/>
</g>
<!-- B&#45;&gt;C -->
<g id="edge7" class="edge">
<title>B&#45;&gt;C</title>
<path fill="none" stroke="black" d="M92.63,-19.8C95.1,-19.8 97.56,-19.8 100.02,-19.8"/>
<polygon fill="black" stroke="black" points="100.15,-23.3 110.15,-19.8 100.15,-16.3 100.15,-23.3"/>
</g>
</g>
</svg>
