<?xml version="1.0" encoding="UTF-8" standalone="no"?>
<!DOCTYPE svg PUBLIC "-//W3C//DTD SVG 1.1//EN"
 "http://www.w3.org/Graphics/SVG/1.1/DTD/svg11.dtd">
<!-- Generated by graphviz version 2.43.0 (0)
 -->
<!-- Title: G Pages: 1 -->
<svg width="562pt" height="274pt"
 viewBox="0.00 0.00 562.00 274.00" xmlns="http://www.w3.org/2000/svg" xmlns:xlink="http://www.w3.org/1999/xlink">
<g id="graph0" class="graph" transform="scale(1 1) rotate(0) translate(4 270)">
<title>G</title>
<polygon fill="white" stroke="transparent" points="-4,4 -4,-270 558,-270 558,4 -4,4"/>
<!-- 1 -->
<g id="node1" class="node">
<title>1</title>
<ellipse fill="none" stroke="black" cx="277" cy="-241" rx="25" ry="25"/>
<text text-anchor="middle" x="277" y="-235" font-family="Times,serif" font-size="25.00">0</text>
</g>
<!-- 2 -->
<g id="node2" class="node">
<title>2</title>
<ellipse fill="none" stroke="black" cx="133" cy="-169" rx="25" ry="25"/>
<text text-anchor="middle" x="133" y="-163" font-family="Times,serif" font-size="25.00">1</text>
</g>
<!-- 1&#45;&#45;2 -->
<g id="edge1" class="edge">
<title>1&#45;&#45;2</title>
<path fill="none" stroke="black" d="M254.5,-229.75C227.61,-216.3 182.85,-193.93 155.82,-180.41"/>
</g>
<!-- 3 -->
<g id="node3" class="node">
<title>3</title>
<ellipse fill="none" stroke="black" cx="421" cy="-169" rx="25" ry="25"/>
<text text-anchor="middle" x="421" y="-163" font-family="Times,serif" font-size="25.00">2</text>
</g>
<!-- 1&#45;&#45;3 -->
<g id="edge2" class="edge">
<title>1&#45;&#45;3</title>
<path fill="none" stroke="black" d="M299.5,-229.75C326.39,-216.3 371.15,-193.93 398.18,-180.41"/>
</g>
<!-- 4 -->
<g id="node4" class="node">
<title>4</title>
<ellipse fill="none" stroke="black" cx="61" cy="-97" rx="25" ry="25"/>
<text text-anchor="middle" x="61" y="-91" font-family="Times,serif" font-size="25.00">3</text>
</g>
<!-- 2&#45;&#45;4 -->
<g id="edge3" class="edge">
<title>2&#45;&#45;4</title>
<path fill="none" stroke="black" d="M115.2,-151.2C104.13,-140.13 89.93,-125.93 78.84,-114.84"/>
</g>
<!-- 5 -->
<g id="node5" class="node">
<title>5</title>
<ellipse fill="none" stroke="black" cx="205" cy="-97" rx="25" ry="25"/>
<text text-anchor="middle" x="205" y="-91" font-family="Times,serif" font-size="25.00">4</text>
</g>
<!-- 2&#45;&#45;5 -->
<g id="edge4" class="edge">
<title>2&#45;&#45;5</title>
<path fill="none" stroke="black" d="M150.8,-151.2C161.87,-140.13 176.07,-125.93 187.16,-114.84"/>
</g>
<!-- 6 -->
<!-- 3&#45;&#45;6 -->
<!-- 7 -->
<!-- 3&#45;&#45;7 -->
<!-- 8 -->
<!-- 4&#45;&#45;8 -->
<!-- 9 -->
<!-- 4&#45;&#45;9 -->
<!-- 10 -->
<!-- 5&#45;&#45;10 -->
<!-- 11 -->
<!-- 5&#45;&#45;11 -->
<!-- 12 -->
<!-- 6&#45;&#45;12 -->
<!-- 13 -->
<!-- 6&#45;&#45;13 -->
<!-- 14 -->
<!-- 7&#45;&#45;14 -->
<!-- 15 -->
<!-- 7&#45;&#45;15 -->
</g>
</svg>
