<?xml version="1.0" encoding="UTF-8" standalone="no"?>
<!DOCTYPE svg PUBLIC "-//W3C//DTD SVG 1.1//EN"
 "http://www.w3.org/Graphics/SVG/1.1/DTD/svg11.dtd">
<!-- Generated by graphviz version 2.43.0 (0)
 -->
<!-- Title: G Pages: 1 -->
<svg width="181pt" height="92pt"
 viewBox="0.00 0.00 181.21 92.41" xmlns="http://www.w3.org/2000/svg" xmlns:xlink="http://www.w3.org/1999/xlink">
<g id="graph0" class="graph" transform="scale(1 1) rotate(0) translate(4 88.41)">
<title>G</title>
<polygon fill="white" stroke="transparent" points="-4,4 -4,-88.41 177.21,-88.41 177.21,4 -4,4"/>
<!-- A -->
<g id="node1" class="node">
<title>A</title>
<ellipse fill="none" stroke="black" cx="11" cy="-72.93" rx="11" ry="11"/>
<text text-anchor="middle" x="11" y="-69.23" font-family="Times,serif" font-size="14.00">1</text>
</g>
<!-- B -->
<g id="node2" class="node">
<title>B</title>
<ellipse fill="none" stroke="black" cx="83.21" cy="-73.41" rx="11" ry="11"/>
<text text-anchor="middle" x="83.21" y="-69.71" font-family="Times,serif" font-size="14.00">2</text>
</g>
<!-- A&#45;&gt;B -->
<g id="edge1" class="edge">
<title>A&#45;&gt;B</title>
<path fill="none" stroke="black" d="M22.28,-73.01C32.71,-73.08 48.5,-73.18 61.39,-73.26"/>
<polygon fill="black" stroke="black" points="61.74,-76.77 71.77,-73.33 61.79,-69.77 61.74,-76.77"/>
</g>
<!-- C -->
<g id="node3" class="node">
<title>C</title>
<ellipse fill="none" stroke="black" cx="47.59" cy="-11" rx="11" ry="11"/>
<text text-anchor="middle" x="47.59" y="-7.3" font-family="Times,serif" font-size="14.00">3</text>
</g>
<!-- B&#45;&gt;C -->
<g id="edge2" class="edge">
<title>B&#45;&gt;C</title>
<path fill="none" stroke="black" d="M77.64,-63.66C72.5,-54.64 64.71,-41 58.35,-29.86"/>
<polygon fill="black" stroke="black" points="61.23,-27.84 53.24,-20.89 55.15,-31.31 61.23,-27.84"/>
</g>
<!-- C&#45;&gt;A -->
<g id="edge3" class="edge">
<title>C&#45;&gt;A</title>
<path fill="none" stroke="black" d="M41.87,-20.68C36.59,-29.62 28.59,-43.17 22.06,-54.22"/>
<polygon fill="black" stroke="black" points="18.87,-52.73 16.8,-63.12 24.9,-56.29 18.87,-52.73"/>
</g>
<!-- D -->
<g id="node4" class="node">
<title>D</title>
<ellipse fill="none" stroke="black" cx="91" cy="-21.64" rx="11" ry="11"/>
<text text-anchor="middle" x="91" y="-17.94" font-family="Times,serif" font-size="14.00">4</text>
</g>
<!-- E -->
<g id="node5" class="node">
<title>E</title>
<ellipse fill="none" stroke="black" cx="162.21" cy="-11" rx="11" ry="11"/>
<text text-anchor="middle" x="162.21" y="-7.3" font-family="Times,serif" font-size="14.00">5</text>
</g>
<!-- D&#45;&gt;E -->
<g id="edge4" class="edge">
<title>D&#45;&gt;E</title>
<path fill="none" stroke="black" d="M101.62,-24.95C112.65,-25.33 130.12,-23.15 143.48,-19.97"/>
<polygon fill="black" stroke="black" points="144.44,-23.34 153.11,-17.24 142.53,-16.6 144.44,-23.34"/>
</g>
<!-- E&#45;&gt;D -->
<g id="edge5" class="edge">
<title>E&#45;&gt;D</title>
<path fill="none" stroke="black" d="M151.59,-7.69C140.56,-7.31 123.09,-9.49 109.73,-12.67"/>
<polygon fill="black" stroke="black" points="108.77,-9.3 100.1,-15.4 110.68,-16.04 108.77,-9.3"/>
</g>
<!-- F -->
<g id="node6" class="node">
<title>F</title>
<ellipse fill="none" stroke="black" cx="123" cy="-67" rx="11" ry="11"/>
<text text-anchor="middle" x="123" y="-63.3" font-family="Times,serif" font-size="14.00">6</text>
</g>
<!-- F&#45;&gt;F -->
<g id="edge6" class="edge">
<title>F&#45;&gt;F</title>
<path fill="none" stroke="black" d="M132.81,-72.46C142.01,-75.29 152,-73.47 152,-67 152,-62.96 148.1,-60.73 142.92,-60.32"/>
<polygon fill="black" stroke="black" points="142.31,-56.87 132.81,-61.54 143.15,-63.82 142.31,-56.87"/>
</g>
</g>
</svg>
