<?xml version="1.0" encoding="UTF-8" standalone="no"?>
<!DOCTYPE svg PUBLIC "-//W3C//DTD SVG 1.1//EN"
 "http://www.w3.org/Graphics/SVG/1.1/DTD/svg11.dtd">
<!-- Generated by graphviz version 2.43.0 (0)
 -->
<!-- Title: G Pages: 1 -->
<svg width="176pt" height="128pt"
 viewBox="0.00 0.00 175.65 128.30" xmlns="http://www.w3.org/2000/svg" xmlns:xlink="http://www.w3.org/1999/xlink">
<g id="graph0" class="graph" transform="scale(1 1) rotate(0) translate(4 124.3)">
<title>G</title>
<polygon fill="white" stroke="transparent" points="-4,4 -4,-124.3 171.65,-124.3 171.65,4 -4,4"/>
<!-- A -->
<g id="node1" class="node">
<title>A</title>
<ellipse fill="none" stroke="black" cx="16.97" cy="-103.33" rx="16.94" ry="16.94"/>
<text text-anchor="middle" x="16.97" y="-100.83" font-family="Times,serif" font-size="10.00">A</text>
</g>
<!-- B -->
<g id="node2" class="node">
<title>B</title>
<ellipse fill="none" stroke="black" cx="33.97" cy="-17.68" rx="16.94" ry="16.94"/>
<text text-anchor="middle" x="33.97" y="-15.18" font-family="Times,serif" font-size="10.00">B</text>
</g>
<!-- A&#45;&#45;B -->
<g id="edge1" class="edge">
<title>A&#45;&#45;B</title>
<path fill="none" stroke="black" d="M8.23,-88.4C3.16,-78.48 -1.45,-64.92 2.97,-53.36 6.6,-43.85 14.17,-35.3 20.92,-29.07"/>
<text text-anchor="middle" x="7.97" y="-57.16" font-family="Times,serif" font-size="14.00">1</text>
</g>
<!-- A&#45;&#45;B -->
<g id="edge2" class="edge">
<title>A&#45;&#45;B</title>
<path fill="none" stroke="black" d="M20.17,-86.59C23.19,-71.73 27.7,-49.56 30.73,-34.63"/>
<text text-anchor="middle" x="31.97" y="-57.16" font-family="Times,serif" font-size="14.00">2</text>
</g>
<!-- C -->
<g id="node3" class="node">
<title>C</title>
<ellipse fill="none" stroke="black" cx="85.97" cy="-103.33" rx="16.94" ry="16.94"/>
<text text-anchor="middle" x="85.97" y="-100.83" font-family="Times,serif" font-size="10.00">C</text>
</g>
<!-- A&#45;&#45;C -->
<!-- B&#45;&#45;C -->
<g id="edge4" class="edge">
<title>B&#45;&#45;C</title>
<path fill="none" stroke="black" d="M42.57,-32.51C52.21,-48.02 67.75,-73.01 77.38,-88.51"/>
<text text-anchor="middle" x="69.97" y="-57.16" font-family="Times,serif" font-size="14.00">3</text>
</g>
<!-- D -->
<g id="node4" class="node">
<title>D</title>
<ellipse fill="none" stroke="black" cx="103.97" cy="-17.68" rx="17.86" ry="17.86"/>
<text text-anchor="middle" x="103.97" y="-15.18" font-family="Times,serif" font-size="10.00">D</text>
</g>
<!-- B&#45;&#45;D -->
<g id="edge5" class="edge">
<title>B&#45;&#45;D</title>
<path fill="none" stroke="black" d="M51.27,-17.68C61.8,-17.68 75.22,-17.68 85.89,-17.68"/>
<text text-anchor="middle" x="68.62" y="-24.48" font-family="Times,serif" font-size="14.00">4</text>
</g>
<!-- C&#45;&#45;D -->
<g id="edge6" class="edge">
<title>C&#45;&#45;D</title>
<path fill="none" stroke="black" d="M89.36,-86.59C92.51,-71.92 97.2,-50.12 100.42,-35.2"/>
<text text-anchor="middle" x="101.97" y="-57.16" font-family="Times,serif" font-size="14.00">5</text>
</g>
<!-- D&#45;&#45;D -->
<!-- D&#45;&#45;D -->
<g id="edge8" class="edge">
<title>D&#45;&#45;D</title>
<path fill="none" stroke="black" d="M120.73,-23.76C138.14,-27.46 157.65,-25.43 157.65,-17.68 157.65,-9.93 138.14,-7.9 120.73,-11.59"/>
<text text-anchor="middle" x="162.65" y="-13.98" font-family="Times,serif" font-size="14.00">6</text>
</g>
</g>
</svg>
