<?xml version="1.0" encoding="UTF-8" standalone="no"?>
<!DOCTYPE svg PUBLIC "-//W3C//DTD SVG 1.1//EN"
 "http://www.w3.org/Graphics/SVG/1.1/DTD/svg11.dtd">
<!-- Generated by graphviz version 2.43.0 (0)
 -->
<!-- Title: G Pages: 1 -->
<svg width="390pt" height="204pt"
 viewBox="0.00 0.00 390.00 204.00" xmlns="http://www.w3.org/2000/svg" xmlns:xlink="http://www.w3.org/1999/xlink">
<g id="graph0" class="graph" transform="scale(1 1) rotate(0) translate(4 200)">
<title>G</title>
<polygon fill="white" stroke="transparent" points="-4,4 -4,-200 386,-200 386,4 -4,4"/>
<!-- A -->
<g id="node1" class="node">
<title>A</title>
<ellipse fill="none" stroke="black" cx="211" cy="-185" rx="11" ry="11"/>
<text text-anchor="middle" x="211" y="-181.3" font-family="Times,serif" font-size="14.00">1</text>
</g>
<!-- B -->
<g id="node2" class="node">
<title>B</title>
<ellipse fill="none" stroke="black" cx="111" cy="-127" rx="11" ry="11"/>
<text text-anchor="middle" x="111" y="-123.3" font-family="Times,serif" font-size="14.00">2</text>
</g>
<!-- A&#45;&gt;B -->
<g id="edge1" class="edge">
<title>A&#45;&gt;B</title>
<path fill="none" stroke="black" d="M201.77,-178.83C185.25,-169.58 150.36,-150.04 128.97,-138.06"/>
<polygon fill="black" stroke="black" points="130.64,-134.99 120.21,-133.16 127.22,-141.1 130.64,-134.99"/>
</g>
<!-- C -->
<g id="node3" class="node">
<title>C</title>
<ellipse fill="none" stroke="black" cx="211" cy="-127" rx="11" ry="11"/>
<text text-anchor="middle" x="211" y="-123.3" font-family="Times,serif" font-size="14.00">3</text>
</g>
<!-- A&#45;&gt;C -->
<g id="edge2" class="edge">
<title>A&#45;&gt;C</title>
<path fill="none" stroke="black" d="M211,-173.99C211,-166.91 211,-157.17 211,-148.48"/>
<polygon fill="black" stroke="black" points="214.5,-148.3 211,-138.3 207.5,-148.3 214.5,-148.3"/>
</g>
<!-- D -->
<g id="node4" class="node">
<title>D</title>
<ellipse fill="none" stroke="black" cx="311" cy="-127" rx="11" ry="11"/>
<text text-anchor="middle" x="311" y="-123.3" font-family="Times,serif" font-size="14.00">4</text>
</g>
<!-- A&#45;&gt;D -->
<g id="edge3" class="edge">
<title>A&#45;&gt;D</title>
<path fill="none" stroke="black" d="M220.23,-178.83C236.75,-169.58 271.64,-150.04 293.03,-138.06"/>
<polygon fill="black" stroke="black" points="294.78,-141.1 301.79,-133.16 291.36,-134.99 294.78,-141.1"/>
</g>
<!-- E -->
<g id="node5" class="node">
<title>E</title>
<ellipse fill="none" stroke="black" cx="51" cy="-69" rx="11" ry="11"/>
<text text-anchor="middle" x="51" y="-65.3" font-family="Times,serif" font-size="14.00">5</text>
</g>
<!-- B&#45;&gt;E -->
<g id="edge4" class="edge">
<title>B&#45;&gt;E</title>
<path fill="none" stroke="black" d="M103.16,-118.68C93.76,-109.91 77.82,-95.03 66.03,-84.02"/>
<polygon fill="black" stroke="black" points="68.35,-81.41 58.66,-77.15 63.58,-86.53 68.35,-81.41"/>
</g>
<!-- F -->
<g id="node6" class="node">
<title>F</title>
<ellipse fill="none" stroke="black" cx="91" cy="-69" rx="11" ry="11"/>
<text text-anchor="middle" x="91" y="-65.3" font-family="Times,serif" font-size="14.00">6</text>
</g>
<!-- B&#45;&gt;F -->
<g id="edge5" class="edge">
<title>B&#45;&gt;F</title>
<path fill="none" stroke="black" d="M107.61,-116.5C104.95,-109.06 101.17,-98.48 97.89,-89.28"/>
<polygon fill="black" stroke="black" points="101.14,-87.97 94.48,-79.73 94.54,-90.33 101.14,-87.97"/>
</g>
<!-- G -->
<g id="node7" class="node">
<title>G</title>
<ellipse fill="none" stroke="black" cx="131" cy="-69" rx="11" ry="11"/>
<text text-anchor="middle" x="131" y="-65.3" font-family="Times,serif" font-size="14.00">7</text>
</g>
<!-- B&#45;&gt;G -->
<g id="edge6" class="edge">
<title>B&#45;&gt;G</title>
<path fill="none" stroke="black" d="M114.39,-116.5C117.05,-109.06 120.83,-98.48 124.11,-89.28"/>
<polygon fill="black" stroke="black" points="127.46,-90.33 127.52,-79.73 120.86,-87.97 127.46,-90.33"/>
</g>
<!-- H -->
<g id="node8" class="node">
<title>H</title>
<ellipse fill="none" stroke="black" cx="171" cy="-69" rx="11" ry="11"/>
<text text-anchor="middle" x="171" y="-65.3" font-family="Times,serif" font-size="14.00">8</text>
</g>
<!-- C&#45;&gt;H -->
<g id="edge7" class="edge">
<title>C&#45;&gt;H</title>
<path fill="none" stroke="black" d="M204.75,-117.25C198.96,-109.15 190.2,-96.88 183.05,-86.87"/>
<polygon fill="black" stroke="black" points="185.74,-84.61 177.08,-78.51 180.04,-88.68 185.74,-84.61"/>
</g>
<!-- I -->
<g id="node9" class="node">
<title>I</title>
<ellipse fill="none" stroke="black" cx="211" cy="-69" rx="11" ry="11"/>
<text text-anchor="middle" x="211" y="-65.3" font-family="Times,serif" font-size="14.00">9</text>
</g>
<!-- C&#45;&gt;I -->
<g id="edge8" class="edge">
<title>C&#45;&gt;I</title>
<path fill="none" stroke="black" d="M211,-115.99C211,-108.91 211,-99.17 211,-90.48"/>
<polygon fill="black" stroke="black" points="214.5,-90.3 211,-80.3 207.5,-90.3 214.5,-90.3"/>
</g>
<!-- J -->
<g id="node10" class="node">
<title>J</title>
<ellipse fill="none" stroke="black" cx="251" cy="-69" rx="11" ry="11"/>
<text text-anchor="middle" x="251" y="-65.3" font-family="Times,serif" font-size="14.00">10</text>
</g>
<!-- C&#45;&gt;J -->
<g id="edge9" class="edge">
<title>C&#45;&gt;J</title>
<path fill="none" stroke="black" d="M217.25,-117.25C223.04,-109.15 231.8,-96.88 238.95,-86.87"/>
<polygon fill="black" stroke="black" points="241.96,-88.68 244.92,-78.51 236.26,-84.61 241.96,-88.68"/>
</g>
<!-- K -->
<g id="node11" class="node">
<title>K</title>
<ellipse fill="none" stroke="black" cx="291" cy="-69" rx="11" ry="11"/>
<text text-anchor="middle" x="291" y="-65.3" font-family="Times,serif" font-size="14.00">11</text>
</g>
<!-- D&#45;&gt;K -->
<g id="edge10" class="edge">
<title>D&#45;&gt;K</title>
<path fill="none" stroke="black" d="M307.61,-116.5C304.95,-109.06 301.17,-98.48 297.89,-89.28"/>
<polygon fill="black" stroke="black" points="301.14,-87.97 294.48,-79.73 294.54,-90.33 301.14,-87.97"/>
</g>
<!-- L -->
<g id="node12" class="node">
<title>L</title>
<ellipse fill="none" stroke="black" cx="331" cy="-69" rx="11" ry="11"/>
<text text-anchor="middle" x="331" y="-65.3" font-family="Times,serif" font-size="14.00">12</text>
</g>
<!-- D&#45;&gt;L -->
<g id="edge11" class="edge">
<title>D&#45;&gt;L</title>
<path fill="none" stroke="black" d="M314.39,-116.5C317.05,-109.06 320.83,-98.48 324.11,-89.28"/>
<polygon fill="black" stroke="black" points="327.46,-90.33 327.52,-79.73 320.86,-87.97 327.46,-90.33"/>
</g>
<!-- M -->
<g id="node13" class="node">
<title>M</title>
<ellipse fill="none" stroke="black" cx="371" cy="-69" rx="11" ry="11"/>
<text text-anchor="middle" x="371" y="-65.3" font-family="Times,serif" font-size="14.00">13</text>
</g>
<!-- D&#45;&gt;M -->
<g id="edge12" class="edge">
<title>D&#45;&gt;M</title>
<path fill="none" stroke="black" d="M318.84,-118.68C328.24,-109.91 344.18,-95.03 355.97,-84.02"/>
<polygon fill="black" stroke="black" points="358.42,-86.53 363.34,-77.15 353.65,-81.41 358.42,-86.53"/>
</g>
<!-- N -->
<g id="node14" class="node">
<title>N</title>
<ellipse fill="none" stroke="black" cx="11" cy="-11" rx="11" ry="11"/>
<text text-anchor="middle" x="11" y="-7.3" font-family="Times,serif" font-size="14.00">14</text>
</g>
<!-- E&#45;&gt;N -->
<g id="edge13" class="edge">
<title>E&#45;&gt;N</title>
<path fill="none" stroke="black" d="M44.75,-59.25C38.96,-51.15 30.2,-38.88 23.05,-28.87"/>
<polygon fill="black" stroke="black" points="25.74,-26.61 17.08,-20.51 20.04,-30.68 25.74,-26.61"/>
</g>
<!-- O -->
<g id="node15" class="node">
<title>O</title>
<ellipse fill="none" stroke="black" cx="51" cy="-11" rx="11" ry="11"/>
<text text-anchor="middle" x="51" y="-7.3" font-family="Times,serif" font-size="14.00">15</text>
</g>
<!-- E&#45;&gt;O -->
<g id="edge14" class="edge">
<title>E&#45;&gt;O</title>
<path fill="none" stroke="black" d="M51,-57.99C51,-50.91 51,-41.17 51,-32.48"/>
<polygon fill="black" stroke="black" points="54.5,-32.3 51,-22.3 47.5,-32.3 54.5,-32.3"/>
</g>
<!-- P -->
<g id="node16" class="node">
<title>P</title>
<ellipse fill="none" stroke="black" cx="91" cy="-11" rx="11" ry="11"/>
<text text-anchor="middle" x="91" y="-7.3" font-family="Times,serif" font-size="14.00">16</text>
</g>
<!-- E&#45;&gt;P -->
<g id="edge15" class="edge">
<title>E&#45;&gt;P</title>
<path fill="none" stroke="black" d="M57.25,-59.25C63.04,-51.15 71.8,-38.88 78.95,-28.87"/>
<polygon fill="black" stroke="black" points="81.96,-30.68 84.92,-20.51 76.26,-26.61 81.96,-30.68"/>
</g>
</g>
</svg>
