<?xml version="1.0" encoding="UTF-8" standalone="no"?>
<!DOCTYPE svg PUBLIC "-//W3C//DTD SVG 1.1//EN"
 "http://www.w3.org/Graphics/SVG/1.1/DTD/svg11.dtd">
<!-- Generated by graphviz version 2.43.0 (0)
 -->
<!-- Title: G Pages: 1 -->
<svg width="456pt" height="456pt"
 viewBox="0.00 0.00 456.00 456.00" xmlns="http://www.w3.org/2000/svg" xmlns:xlink="http://www.w3.org/1999/xlink">
<g id="graph0" class="graph" transform="scale(1 1) rotate(0) translate(4 452)">
<title>G</title>
<polygon fill="white" stroke="transparent" points="-4,4 -4,-452 452,-452 452,4 -4,4"/>
<g id="clust1" class="cluster">
<title>cluster_0</title>
<polygon fill="none" stroke="red" points="8,-8 8,-440 440,-440 440,-8 8,-8"/>
</g>
<g id="clust2" class="cluster">
<title>cluster_0_0</title>
<polygon fill="none" stroke="blue" points="16,-244 16,-376 84,-376 84,-244 16,-244"/>
</g>
<g id="clust3" class="cluster">
<title>cluster_0_0_0</title>
<polygon fill="none" stroke="#ffcc00" points="24,-316 24,-368 76,-368 76,-316 24,-316"/>
</g>
<g id="clust4" class="cluster">
<title>cluster_0_1</title>
<polygon fill="none" stroke="blue" points="92,-16 92,-376 236,-376 236,-16 92,-16"/>
</g>
<g id="clust5" class="cluster">
<title>cluster_0_1_0</title>
<polygon fill="none" stroke="#ffcc00" points="160,-236 160,-368 228,-368 228,-236 160,-236"/>
</g>
<g id="clust6" class="cluster">
<title>cluster_0_1_0_0</title>
<polygon fill="none" stroke="green" points="168,-244 168,-296 220,-296 220,-244 168,-244"/>
</g>
<g id="clust7" class="cluster">
<title>cluster_0_1_1</title>
<polygon fill="none" stroke="#ffcc00" points="100,-96 100,-148 152,-148 152,-96 100,-96"/>
</g>
<g id="clust8" class="cluster">
<title>cluster_0_1_2</title>
<polygon fill="none" stroke="#ffcc00" points="160,-24 160,-156 228,-156 228,-24 160,-24"/>
</g>
<g id="clust9" class="cluster">
<title>cluster_0_1_2_0</title>
<polygon fill="none" stroke="green" points="168,-96 168,-148 220,-148 220,-96 168,-96"/>
</g>
<g id="clust10" class="cluster">
<title>cluster_0_2</title>
<polygon fill="none" stroke="blue" points="244,-316 244,-368 296,-368 296,-316 244,-316"/>
</g>
<g id="clust11" class="cluster">
<title>cluster_0_3</title>
<polygon fill="none" stroke="blue" points="304,-88 304,-384 432,-384 432,-88 304,-88"/>
</g>
<g id="clust12" class="cluster">
<title>cluster_0_3_0</title>
<polygon fill="none" stroke="#ffcc00" points="312,-244 312,-376 380,-376 380,-244 312,-244"/>
</g>
<g id="clust13" class="cluster">
<title>cluster_0_3_0_0</title>
<polygon fill="none" stroke="green" points="320,-316 320,-368 372,-368 372,-316 320,-316"/>
</g>
<g id="clust14" class="cluster">
<title>cluster_0_3_1</title>
<polygon fill="none" stroke="#ffcc00" points="356,-96 356,-228 424,-228 424,-96 356,-96"/>
</g>
<g id="clust15" class="cluster">
<title>cluster_0_3_1_0</title>
<polygon fill="none" stroke="green" points="364,-168 364,-220 416,-220 416,-168 364,-168"/>
</g>
<!-- A -->
<g id="node1" class="node">
<title>A</title>
<ellipse fill="none" stroke="red" cx="234" cy="-414" rx="18" ry="18"/>
<text text-anchor="middle" x="234" y="-410.3" font-family="Times,serif" font-size="14.00">3</text>
</g>
<!-- B -->
<g id="node2" class="node">
<title>B</title>
<ellipse fill="none" stroke="#ffcc00" cx="50" cy="-342" rx="18" ry="18"/>
<text text-anchor="middle" x="50" y="-338.3" font-family="Times,serif" font-size="14.00">2</text>
</g>
<!-- A&#45;&#45;B -->
<g id="edge1" class="edge">
<title>A&#45;&#45;B</title>
<path fill="none" stroke="black" d="M217.24,-406.84C201.43,-401.01 177.07,-391.99 156,-384 124.27,-371.96 87.33,-357.59 66.5,-349.46"/>
</g>
<!-- C -->
<g id="node3" class="node">
<title>C</title>
<ellipse fill="none" stroke="#ffcc00" cx="198" cy="-342" rx="18" ry="18"/>
<text text-anchor="middle" x="198" y="-338.3" font-family="Times,serif" font-size="14.00">6</text>
</g>
<!-- A&#45;&#45;C -->
<g id="edge2" class="edge">
<title>A&#45;&#45;C</title>
<path fill="none" stroke="black" d="M226.01,-397.46C220.04,-385.86 211.93,-370.08 205.97,-358.49"/>
</g>
<!-- D -->
<g id="node4" class="node">
<title>D</title>
<ellipse fill="none" stroke="blue" cx="270" cy="-342" rx="18" ry="18"/>
<text text-anchor="middle" x="270" y="-338.3" font-family="Times,serif" font-size="14.00">4</text>
</g>
<!-- A&#45;&#45;D -->
<g id="edge3" class="edge">
<title>A&#45;&#45;D</title>
<path fill="none" stroke="black" d="M241.99,-397.46C247.96,-385.86 256.07,-370.08 262.03,-358.49"/>
</g>
<!-- E -->
<g id="node5" class="node">
<title>E</title>
<ellipse fill="none" stroke="green" cx="346" cy="-342" rx="18" ry="18"/>
<text text-anchor="middle" x="346" y="-338.3" font-family="Times,serif" font-size="14.00">5</text>
</g>
<!-- A&#45;&#45;E -->
<g id="edge4" class="edge">
<title>A&#45;&#45;E</title>
<path fill="none" stroke="black" d="M250.73,-407.32C264.53,-402.25 284.31,-394.08 300,-384 312.6,-375.91 325.18,-364.4 333.99,-355.64"/>
</g>
<!-- J -->
<g id="node10" class="node">
<title>J</title>
<ellipse fill="none" stroke="blue" cx="50" cy="-270" rx="18" ry="18"/>
<text text-anchor="middle" x="50" y="-266.3" font-family="Times,serif" font-size="14.00">1</text>
</g>
<!-- B&#45;&#45;J -->
<g id="edge9" class="edge">
<title>B&#45;&#45;J</title>
<path fill="none" stroke="black" d="M50,-323.7C50,-312.85 50,-298.92 50,-288.1"/>
</g>
<!-- K -->
<g id="node11" class="node">
<title>K</title>
<ellipse fill="none" stroke="green" cx="194" cy="-270" rx="18" ry="18"/>
<text text-anchor="middle" x="194" y="-266.3" font-family="Times,serif" font-size="14.00">9</text>
</g>
<!-- C&#45;&#45;K -->
<g id="edge10" class="edge">
<title>C&#45;&#45;K</title>
<path fill="none" stroke="black" d="M197.01,-323.7C196.39,-312.85 195.6,-298.92 194.98,-288.1"/>
</g>
<!-- F -->
<g id="node6" class="node">
<title>F</title>
<ellipse fill="none" stroke="blue" cx="406" cy="-270" rx="18" ry="18"/>
<text text-anchor="middle" x="406" y="-266.3" font-family="Times,serif" font-size="14.00">7</text>
</g>
<!-- E&#45;&#45;F -->
<g id="edge5" class="edge">
<title>E&#45;&#45;F</title>
<path fill="none" stroke="black" d="M357.29,-327.83C368.01,-315.32 384.05,-296.6 394.77,-284.11"/>
</g>
<!-- G -->
<g id="node7" class="node">
<title>G</title>
<ellipse fill="none" stroke="#ffcc00" cx="346" cy="-270" rx="18" ry="18"/>
<text text-anchor="middle" x="346" y="-266.3" font-family="Times,serif" font-size="14.00">8</text>
</g>
<!-- E&#45;&#45;G -->
<g id="edge6" class="edge">
<title>E&#45;&#45;G</title>
<path fill="none" stroke="black" d="M346,-323.7C346,-312.85 346,-298.92 346,-288.1"/>
</g>
<!-- H -->
<g id="node8" class="node">
<title>H</title>
<ellipse fill="none" stroke="green" cx="390" cy="-194" rx="18" ry="18"/>
<text text-anchor="middle" x="390" y="-190.3" font-family="Times,serif" font-size="14.00">10</text>
</g>
<!-- F&#45;&#45;H -->
<g id="edge7" class="edge">
<title>F&#45;&#45;H</title>
<path fill="none" stroke="black" d="M402.37,-252.21C399.75,-240.1 396.23,-223.82 393.62,-211.73"/>
</g>
<!-- I -->
<g id="node9" class="node">
<title>I</title>
<ellipse fill="none" stroke="#ffcc00" cx="390" cy="-122" rx="18" ry="18"/>
<text text-anchor="middle" x="390" y="-118.3" font-family="Times,serif" font-size="14.00">12</text>
</g>
<!-- H&#45;&#45;I -->
<g id="edge8" class="edge">
<title>H&#45;&#45;I</title>
<path fill="none" stroke="black" d="M390,-175.7C390,-164.85 390,-150.92 390,-140.1"/>
</g>
<!-- L -->
<g id="node12" class="node">
<title>L</title>
<ellipse fill="none" stroke="blue" cx="194" cy="-194" rx="18" ry="18"/>
<text text-anchor="middle" x="194" y="-190.3" font-family="Times,serif" font-size="14.00">11</text>
</g>
<!-- K&#45;&#45;L -->
<g id="edge11" class="edge">
<title>K&#45;&#45;L</title>
<path fill="none" stroke="black" d="M194,-251.84C194,-239.88 194,-224 194,-212.07"/>
</g>
<!-- M -->
<g id="node13" class="node">
<title>M</title>
<ellipse fill="none" stroke="#ffcc00" cx="126" cy="-122" rx="18" ry="18"/>
<text text-anchor="middle" x="126" y="-118.3" font-family="Times,serif" font-size="14.00">13</text>
</g>
<!-- L&#45;&#45;M -->
<g id="edge12" class="edge">
<title>L&#45;&#45;M</title>
<path fill="none" stroke="black" d="M181.84,-180.49C169.47,-167.74 150.39,-148.11 138.05,-135.41"/>
</g>
<!-- N -->
<g id="node14" class="node">
<title>N</title>
<ellipse fill="none" stroke="green" cx="194" cy="-122" rx="18" ry="18"/>
<text text-anchor="middle" x="194" y="-118.3" font-family="Times,serif" font-size="14.00">14</text>
</g>
<!-- L&#45;&#45;N -->
<g id="edge13" class="edge">
<title>L&#45;&#45;N</title>
<path fill="none" stroke="black" d="M194,-175.7C194,-164.85 194,-150.92 194,-140.1"/>
</g>
<!-- O -->
<g id="node15" class="node">
<title>O</title>
<ellipse fill="none" stroke="#ffcc00" cx="194" cy="-50" rx="18" ry="18"/>
<text text-anchor="middle" x="194" y="-46.3" font-family="Times,serif" font-size="14.00">15</text>
</g>
<!-- N&#45;&#45;O -->
<g id="edge14" class="edge">
<title>N&#45;&#45;O</title>
<path fill="none" stroke="black" d="M194,-103.7C194,-92.85 194,-78.92 194,-68.1"/>
</g>
</g>
</svg>
