<?xml version="1.0" encoding="UTF-8" standalone="no"?>
<!DOCTYPE svg PUBLIC "-//W3C//DTD SVG 1.1//EN"
 "http://www.w3.org/Graphics/SVG/1.1/DTD/svg11.dtd">
<!-- Generated by graphviz version 2.43.0 (0)
 -->
<!-- Title: G Pages: 1 -->
<svg width="486pt" height="89pt"
 viewBox="0.00 0.00 486.00 89.00" xmlns="http://www.w3.org/2000/svg" xmlns:xlink="http://www.w3.org/1999/xlink">
<g id="graph0" class="graph" transform="scale(1 1) rotate(0) translate(4 85)">
<title>G</title>
<polygon fill="white" stroke="transparent" points="-4,4 -4,-85 482,-85 482,4 -4,4"/>
<!-- A -->
<g id="node1" class="node">
<title>A</title>
<ellipse fill="none" stroke="blue" cx="69" cy="-11" rx="11" ry="11"/>
</g>
<!-- B -->
<g id="node2" class="node">
<title>B</title>
<ellipse fill="none" stroke="blue" cx="127" cy="-11" rx="11" ry="11"/>
</g>
<!-- A&#45;&#45;B -->
<g id="edge1" class="edge">
<title>A&#45;&#45;B</title>
<path fill="none" stroke="blue" d="M80.33,-11C92.12,-11 103.91,-11 115.7,-11"/>
</g>
<!-- E -->
<g id="node5" class="node">
<title>E</title>
<ellipse fill="none" stroke="blue" cx="351" cy="-11" rx="11" ry="11"/>
</g>
<!-- A&#45;&#45;E -->
<g id="edge7" class="edge">
<title>A&#45;&#45;E</title>
<path fill="none" stroke="blue" stroke-dasharray="5,2" d="M77.29,-18.27C86.16,-25.52 101,-36.18 116,-40.5 196.3,-63.61 223.7,-63.61 304,-40.5 319,-36.18 333.84,-25.52 342.71,-18.27"/>
</g>
<!-- X -->
<g id="node8" class="node">
<title>X</title>
<ellipse fill="red" stroke="red" cx="39" cy="-70" rx="11" ry="11"/>
</g>
<!-- A&#45;&#45;X -->
<g id="edge8" class="edge">
<title>A&#45;&#45;X</title>
<path fill="none" stroke="red" d="M64.29,-20.95C58.71,-31.56 49.45,-49.14 43.82,-59.84"/>
</g>
<!-- C -->
<g id="node3" class="node">
<title>C</title>
<ellipse fill="none" stroke="blue" cx="185" cy="-11" rx="11" ry="11"/>
</g>
<!-- B&#45;&#45;C -->
<g id="edge2" class="edge">
<title>B&#45;&#45;C</title>
<path fill="none" stroke="blue" d="M138.33,-11C150.12,-11 161.91,-11 173.7,-11"/>
</g>
<!-- D -->
<g id="node4" class="node">
<title>D</title>
<ellipse fill="none" stroke="blue" cx="293" cy="-11" rx="11" ry="11"/>
</g>
<!-- C&#45;&#45;D -->
<g id="edge3" class="edge">
<title>C&#45;&#45;D</title>
<path fill="none" stroke="blue" stroke-dasharray="1,5" d="M196.15,-11C216.85,-11 260.98,-11 281.75,-11"/>
<text text-anchor="middle" x="239" y="-17.8" font-family="Times,serif" font-size="14.00"> &#160;&#160;&#160;&#160;&#160;&#160;&#160;&#160;&#160;&#160;&#160;&#160;&#160;&#160;</text>
</g>
<!-- D&#45;&#45;E -->
<g id="edge4" class="edge">
<title>D&#45;&#45;E</title>
<path fill="none" stroke="blue" d="M304.33,-11C316.12,-11 327.91,-11 339.7,-11"/>
</g>
<!-- F -->
<g id="node6" class="node">
<title>F</title>
<ellipse fill="none" stroke="black" cx="409" cy="-11" rx="11" ry="11"/>
</g>
<!-- E&#45;&#45;F -->
<g id="edge5" class="edge">
<title>E&#45;&#45;F</title>
<path fill="none" stroke="black" d="M362.33,-11C374.12,-11 385.91,-11 397.7,-11"/>
</g>
<!-- G -->
<g id="node7" class="node">
<title>G</title>
<ellipse fill="none" stroke="black" cx="467" cy="-11" rx="11" ry="11"/>
</g>
<!-- F&#45;&#45;G -->
<g id="edge6" class="edge">
<title>F&#45;&#45;G</title>
<path fill="none" stroke="black" d="M420.33,-11C432.12,-11 443.91,-11 455.7,-11"/>
</g>
<!-- T -->
<!-- X&#45;&#45;T -->
<!-- T&#45;&#45;A -->
</g>
</svg>
