<?xml version="1.0" encoding="UTF-8" standalone="no"?>
<!DOCTYPE svg PUBLIC "-//W3C//DTD SVG 1.1//EN"
 "http://www.w3.org/Graphics/SVG/1.1/DTD/svg11.dtd">
<!-- Generated by graphviz version 2.43.0 (0)
 -->
<!-- Title: G Pages: 1 -->
<svg width="354pt" height="206pt"
 viewBox="0.00 0.00 354.10 206.00" xmlns="http://www.w3.org/2000/svg" xmlns:xlink="http://www.w3.org/1999/xlink">
<g id="graph0" class="graph" transform="scale(1 1) rotate(0) translate(4 202)">
<title>G</title>
<polygon fill="white" stroke="transparent" points="-4,4 -4,-202 350.1,-202 350.1,4 -4,4"/>
<!-- B -->
<g id="node1" class="node">
<title>B</title>
<ellipse fill="none" stroke="black" cx="248.9" cy="-126" rx="18" ry="18"/>
</g>
<!-- C -->
<g id="node3" class="node">
<title>C</title>
<ellipse fill="none" stroke="black" cx="248.9" cy="-18" rx="18" ry="18"/>
</g>
<!-- B&#45;&#45;C -->
<g id="edge6" class="edge">
<title>B&#45;&#45;C</title>
<path fill="none" stroke="black" d="M248.9,-107.68C248.9,-87.7 248.9,-55.92 248.9,-36.05"/>
</g>
<!-- D -->
<g id="node4" class="node">
<title>D</title>
<ellipse fill="none" stroke="black" cx="158.9" cy="-126" rx="18" ry="18"/>
</g>
<!-- B&#45;&#45;D -->
<g id="edge7" class="edge">
<title>B&#45;&#45;D</title>
<path fill="none" stroke="black" d="M230.69,-126C215.07,-126 192.69,-126 177.09,-126"/>
</g>
<!-- A -->
<g id="node2" class="node">
<title>A</title>
<ellipse fill="none" stroke="red" cx="328.1" cy="-72" rx="18" ry="18"/>
</g>
<!-- A&#45;&#45;B -->
<g id="edge4" class="edge">
<title>A&#45;&#45;B</title>
<path fill="none" stroke="black" d="M313.2,-82.16C299.13,-91.75 278.14,-106.07 264,-115.7"/>
</g>
<!-- A&#45;&#45;C -->
<g id="edge5" class="edge">
<title>A&#45;&#45;C</title>
<path fill="none" stroke="black" d="M313.2,-61.84C299.13,-52.25 278.14,-37.93 264,-28.3"/>
</g>
<!-- E -->
<g id="node5" class="node">
<title>E</title>
<ellipse fill="none" stroke="black" cx="79.7" cy="-180" rx="18" ry="18"/>
</g>
<!-- D&#45;&#45;E -->
<g id="edge8" class="edge">
<title>D&#45;&#45;E</title>
<path fill="none" stroke="black" d="M144,-136.16C129.93,-145.75 108.94,-160.07 94.8,-169.7"/>
</g>
<!-- F -->
<g id="node6" class="node">
<title>F</title>
<ellipse fill="none" stroke="black" cx="79.7" cy="-72" rx="18" ry="18"/>
</g>
<!-- D&#45;&#45;F -->
<g id="edge9" class="edge">
<title>D&#45;&#45;F</title>
<path fill="none" stroke="black" d="M144,-115.84C129.93,-106.25 108.94,-91.93 94.8,-82.3"/>
</g>
<!-- E&#45;&#45;F -->
<g id="edge10" class="edge">
<title>E&#45;&#45;F</title>
<path fill="none" stroke="black" d="M79.7,-161.68C79.7,-141.7 79.7,-109.92 79.7,-90.05"/>
</g>
<!-- X -->
<!-- X&#45;&#45;E -->
<g id="edge1" class="edge">
<title>X&#45;&#45;E</title>
<path fill="none" stroke="blue" d="M1.01,-180C5.56,-180 39.9,-180 61.68,-180"/>
</g>
<!-- Y -->
<!-- Y&#45;&#45;F -->
<g id="edge2" class="edge">
<title>Y&#45;&#45;F</title>
<path fill="none" stroke="blue" d="M1.01,-72C5.56,-72 39.9,-72 61.68,-72"/>
</g>
<!-- Z -->
<!-- Z&#45;&#45;C -->
<g id="edge3" class="edge">
<title>Z&#45;&#45;C</title>
<path fill="none" stroke="blue" d="M1.21,-18C13.28,-18 175.22,-18 230.53,-18"/>
</g>
</g>
</svg>
