<?xml version="1.0" encoding="UTF-8" standalone="no"?>
<!DOCTYPE svg PUBLIC "-//W3C//DTD SVG 1.1//EN"
 "http://www.w3.org/Graphics/SVG/1.1/DTD/svg11.dtd">
<!-- Generated by graphviz version 2.43.0 (0)
 -->
<!-- Title: G Pages: 1 -->
<svg width="195pt" height="368pt"
 viewBox="0.00 0.00 195.00 368.00" xmlns="http://www.w3.org/2000/svg" xmlns:xlink="http://www.w3.org/1999/xlink">
<g id="graph0" class="graph" transform="scale(1 1) rotate(0) translate(4 364)">
<title>G</title>
<polygon fill="white" stroke="transparent" points="-4,4 -4,-364 191,-364 191,4 -4,4"/>
<!-- A -->
<g id="node1" class="node">
<title>A</title>
<ellipse fill="none" stroke="black" cx="21.5" cy="-288" rx="11" ry="11"/>
</g>
<!-- E -->
<g id="node5" class="node">
<title>E</title>
<ellipse fill="none" stroke="black" cx="165.5" cy="-324" rx="11" ry="11"/>
</g>
<!-- A&#45;&#45;E -->
<g id="edge1" class="edge">
<title>A&#45;&#45;E</title>
<path fill="none" stroke="red" d="M32.32,-290.71C59.01,-297.38 127.73,-314.56 154.55,-321.26"/>
</g>
<!-- F -->
<g id="node6" class="node">
<title>F</title>
<ellipse fill="none" stroke="black" cx="165.5" cy="-252" rx="11" ry="11"/>
</g>
<!-- A&#45;&#45;F -->
<g id="edge2" class="edge">
<title>A&#45;&#45;F</title>
<path fill="none" stroke="black" d="M32.32,-285.29C59.01,-278.62 127.73,-261.44 154.55,-254.74"/>
</g>
<!-- G -->
<g id="node7" class="node">
<title>G</title>
<ellipse fill="none" stroke="black" cx="165.5" cy="-180" rx="11" ry="11"/>
</g>
<!-- A&#45;&#45;G -->
<g id="edge3" class="edge">
<title>A&#45;&#45;G</title>
<path fill="none" stroke="black" d="M30.51,-281.24C56.37,-261.85 130.64,-206.15 156.5,-186.75"/>
</g>
<!-- B -->
<g id="node2" class="node">
<title>B</title>
<ellipse fill="none" stroke="black" cx="21.5" cy="-216" rx="11" ry="11"/>
</g>
<!-- B&#45;&#45;E -->
<g id="edge4" class="edge">
<title>B&#45;&#45;E</title>
<path fill="none" stroke="black" d="M30.51,-222.76C56.37,-242.15 130.64,-297.85 156.5,-317.25"/>
</g>
<!-- H -->
<g id="node8" class="node">
<title>H</title>
<ellipse fill="none" stroke="black" cx="165.5" cy="-108" rx="11" ry="11"/>
</g>
<!-- B&#45;&#45;H -->
<g id="edge5" class="edge">
<title>B&#45;&#45;H</title>
<path fill="none" stroke="red" d="M30.51,-209.24C56.37,-189.85 130.64,-134.15 156.5,-114.75"/>
</g>
<!-- I -->
<g id="node9" class="node">
<title>I</title>
<ellipse fill="none" stroke="black" cx="165.5" cy="-36" rx="11" ry="11"/>
</g>
<!-- B&#45;&#45;I -->
<g id="edge6" class="edge">
<title>B&#45;&#45;I</title>
<path fill="none" stroke="black" d="M28.45,-207.32C52.83,-176.84 134.35,-74.94 158.62,-44.59"/>
</g>
<!-- C -->
<g id="node3" class="node">
<title>C</title>
<ellipse fill="none" stroke="black" cx="21.5" cy="-144" rx="11" ry="11"/>
</g>
<!-- C&#45;&#45;F -->
<g id="edge7" class="edge">
<title>C&#45;&#45;F</title>
<path fill="none" stroke="red" d="M30.51,-150.76C56.37,-170.15 130.64,-225.85 156.5,-245.25"/>
</g>
<!-- C&#45;&#45;G -->
<g id="edge8" class="edge">
<title>C&#45;&#45;G</title>
<path fill="none" stroke="black" d="M32.32,-146.71C59.01,-153.38 127.73,-170.56 154.55,-177.26"/>
</g>
<!-- C&#45;&#45;H -->
<g id="edge9" class="edge">
<title>C&#45;&#45;H</title>
<path fill="none" stroke="black" d="M32.32,-141.29C59.01,-134.62 127.73,-117.44 154.55,-110.74"/>
</g>
<!-- D -->
<g id="node4" class="node">
<title>D</title>
<ellipse fill="none" stroke="black" cx="21.5" cy="-72" rx="11" ry="11"/>
</g>
<!-- D&#45;&#45;E -->
<g id="edge10" class="edge">
<title>D&#45;&#45;E</title>
<path fill="none" stroke="black" d="M26.97,-81.57C49.78,-121.49 137.21,-274.48 160.03,-314.42"/>
</g>
<!-- D&#45;&#45;G -->
<g id="edge11" class="edge">
<title>D&#45;&#45;G</title>
<path fill="none" stroke="red" d="M30.51,-78.76C56.37,-98.15 130.64,-153.85 156.5,-173.25"/>
</g>
<!-- D&#45;&#45;I -->
<g id="edge12" class="edge">
<title>D&#45;&#45;I</title>
<path fill="none" stroke="black" d="M32.32,-69.29C59.01,-62.62 127.73,-45.44 154.55,-38.74"/>
</g>
<!-- S -->
<g id="node10" class="node">
<title>S</title>
<polygon fill="none" stroke="black" points="43,-324 0,-324 0,-36 43,-36 43,-324"/>
<text text-anchor="middle" x="21.5" y="-312.8" font-family="Times,serif" font-size="14.00">S</text>
</g>
<!-- T -->
<g id="node11" class="node">
<title>T</title>
<polygon fill="none" stroke="black" points="187,-360 144,-360 144,0 187,0 187,-360"/>
<text text-anchor="middle" x="165.5" y="-348.8" font-family="Times,serif" font-size="14.00">T</text>
</g>
</g>
</svg>
