<?xml version="1.0" encoding="UTF-8" standalone="no"?>
<!DOCTYPE svg PUBLIC "-//W3C//DTD SVG 1.1//EN"
 "http://www.w3.org/Graphics/SVG/1.1/DTD/svg11.dtd">
<!-- Generated by graphviz version 2.43.0 (0)
 -->
<!-- Title: G Pages: 1 -->
<svg width="625pt" height="131pt"
 viewBox="0.00 0.00 625.00 131.00" xmlns="http://www.w3.org/2000/svg" xmlns:xlink="http://www.w3.org/1999/xlink">
<g id="graph0" class="graph" transform="scale(1 1) rotate(0) translate(4 127)">
<title>G</title>
<polygon fill="white" stroke="transparent" points="-4,4 -4,-127 621,-127 621,4 -4,4"/>
<!-- A -->
<g id="node1" class="node">
<title>A</title>
<ellipse fill="none" stroke="black" cx="21.5" cy="-21.5" rx="21.5" ry="21.5"/>
<text text-anchor="start" x="13" y="-18.8" font-family="Times,serif" font-size="14.00">v</text>
<text text-anchor="start" x="22" y="-18.8" font-family="Times,serif" baseline-shift="sub" font-size="14.00">1</text>
</g>
<!-- B -->
<g id="node2" class="node">
<title>B</title>
<ellipse fill="none" stroke="black" cx="100.5" cy="-21.5" rx="21.5" ry="21.5"/>
<text text-anchor="start" x="92" y="-18.8" font-family="Times,serif" font-size="14.00">v</text>
<text text-anchor="start" x="101" y="-18.8" font-family="Times,serif" baseline-shift="sub" font-size="14.00">2</text>
</g>
<!-- A&#45;&#45;B -->
<g id="edge1" class="edge">
<title>A&#45;&#45;B</title>
<path fill="none" stroke="black" d="M43.1,-21.5C55.06,-21.5 67.02,-21.5 78.98,-21.5"/>
</g>
<!-- E -->
<g id="node5" class="node">
<title>E</title>
<ellipse fill="none" stroke="black" cx="387.5" cy="-21.5" rx="21.5" ry="21.5"/>
<text text-anchor="start" x="381" y="-18.8" font-family="Times,serif" font-size="14.00">v</text>
<text text-anchor="start" x="390" y="-18.8" font-family="Times,serif" baseline-shift="sub" font-size="14.00">i</text>
</g>
<!-- A&#45;&#45;E -->
<g id="edge7" class="edge">
<title>A&#45;&#45;E</title>
<path fill="none" stroke="black" stroke-dasharray="5,2" d="M32.94,-40.06C43.13,-54.66 59.49,-73.91 79.5,-82.5 182.02,-126.49 228.17,-126.93 330.5,-82.5 350.31,-73.9 366.37,-54.65 376.33,-40.05"/>
</g>
<!-- C -->
<g id="node3" class="node">
<title>C</title>
<ellipse fill="none" stroke="black" cx="179.5" cy="-21.5" rx="21.5" ry="21.5"/>
<text text-anchor="start" x="171" y="-18.8" font-family="Times,serif" font-size="14.00">v</text>
<text text-anchor="start" x="180" y="-18.8" font-family="Times,serif" baseline-shift="sub" font-size="14.00">3</text>
</g>
<!-- B&#45;&#45;C -->
<g id="edge2" class="edge">
<title>B&#45;&#45;C</title>
<path fill="none" stroke="black" d="M122.1,-21.5C134.06,-21.5 146.02,-21.5 157.98,-21.5"/>
</g>
<!-- D -->
<g id="node4" class="node">
<title>D</title>
<ellipse fill="none" stroke="black" cx="308.5" cy="-21.5" rx="21.5" ry="21.5"/>
<text text-anchor="start" x="296" y="-18.8" font-family="Times,serif" font-size="14.00">v</text>
<text text-anchor="start" x="305" y="-18.8" font-family="Times,serif" baseline-shift="sub" font-size="14.00">i&#45;1</text>
</g>
<!-- C&#45;&#45;D -->
<g id="edge3" class="edge">
<title>C&#45;&#45;D</title>
<path fill="none" stroke="black" stroke-dasharray="1,5" d="M201.09,-21.5C224.9,-21.5 263,-21.5 286.84,-21.5"/>
<text text-anchor="middle" x="244" y="-28.3" font-family="Times,serif" font-size="14.00"> &#160;&#160;&#160;&#160;&#160;&#160;&#160;&#160;&#160;&#160;&#160;&#160;&#160;&#160;</text>
</g>
<!-- X -->
<!-- C&#45;&#45;X -->
<!-- D&#45;&#45;E -->
<g id="edge4" class="edge">
<title>D&#45;&#45;E</title>
<path fill="none" stroke="black" d="M330.1,-21.5C342.06,-21.5 354.02,-21.5 365.98,-21.5"/>
</g>
<!-- G -->
<g id="node7" class="node">
<title>G</title>
<ellipse fill="none" stroke="black" cx="595.5" cy="-21.5" rx="21.5" ry="21.5"/>
<text text-anchor="start" x="587" y="-18.8" font-family="Times,serif" font-size="14.00">v</text>
<text text-anchor="start" x="596" y="-18.8" font-family="Times,serif" baseline-shift="sub" font-size="14.00">n</text>
</g>
<!-- D&#45;&#45;G -->
<g id="edge8" class="edge">
<title>D&#45;&#45;G</title>
<path fill="none" stroke="black" stroke-dasharray="5,2" d="M319.94,-40.06C330.13,-54.66 346.49,-73.91 366.5,-82.5 436.75,-112.64 468.38,-112.95 538.5,-82.5 558.31,-73.9 574.37,-54.65 584.33,-40.05"/>
</g>
<!-- F -->
<g id="node6" class="node">
<title>F</title>
<ellipse fill="none" stroke="black" cx="516.5" cy="-21.5" rx="21.5" ry="21.5"/>
<text text-anchor="start" x="502.5" y="-18.8" font-family="Times,serif" font-size="14.00">v</text>
<text text-anchor="start" x="511.5" y="-18.8" font-family="Times,serif" baseline-shift="sub" font-size="14.00">n&#45;1</text>
</g>
<!-- E&#45;&#45;F -->
<g id="edge5" class="edge">
<title>E&#45;&#45;F</title>
<path fill="none" stroke="black" stroke-dasharray="1,5" d="M409.09,-21.5C432.9,-21.5 471,-21.5 494.84,-21.5"/>
<text text-anchor="middle" x="452" y="-28.3" font-family="Times,serif" font-size="14.00"> &#160;&#160;&#160;&#160;&#160;&#160;&#160;&#160;&#160;&#160;&#160;&#160;&#160;&#160;</text>
</g>
<!-- F&#45;&#45;G -->
<g id="edge6" class="edge">
<title>F&#45;&#45;G</title>
<path fill="none" stroke="black" d="M538.1,-21.5C550.06,-21.5 562.02,-21.5 573.98,-21.5"/>
</g>
<!-- Y -->
</g>
</svg>
