<?xml version="1.0" encoding="UTF-8" standalone="no"?>
<!DOCTYPE svg PUBLIC "-//W3C//DTD SVG 1.1//EN"
 "http://www.w3.org/Graphics/SVG/1.1/DTD/svg11.dtd">
<!-- Generated by graphviz version 2.43.0 (0)
 -->
<!-- Title: G Pages: 1 -->
<svg width="260pt" height="278pt"
 viewBox="0.00 0.00 260.00 278.00" xmlns="http://www.w3.org/2000/svg" xmlns:xlink="http://www.w3.org/1999/xlink">
<g id="graph0" class="graph" transform="scale(1 1) rotate(0) translate(4 274)">
<title>G</title>
<polygon fill="white" stroke="transparent" points="-4,4 -4,-274 256,-274 256,4 -4,4"/>
<!-- A -->
<g id="node1" class="node">
<title>A</title>
<ellipse fill="none" stroke="black" cx="90" cy="-252" rx="18" ry="18"/>
<text text-anchor="middle" x="90" y="-248.3" font-family="Times,serif" font-size="14.00">A</text>
</g>
<!-- D -->
<g id="node2" class="node">
<title>D</title>
<ellipse fill="none" stroke="black" cx="162" cy="-144" rx="18.4" ry="18.4"/>
<text text-anchor="middle" x="162" y="-140.3" font-family="Times,serif" font-size="14.00">D</text>
</g>
<!-- A&#45;&#45;D -->
<g id="edge1" class="edge">
<title>A&#45;&#45;D</title>
<path fill="none" stroke="black" d="M100.01,-236.98C113.69,-216.47 138.09,-179.87 151.84,-159.24"/>
</g>
<!-- F -->
<g id="node6" class="node">
<title>F</title>
<ellipse fill="none" stroke="black" cx="234" cy="-72" rx="18" ry="18"/>
<text text-anchor="middle" x="234" y="-68.3" font-family="Times,serif" font-size="14.00">F</text>
</g>
<!-- D&#45;&#45;F -->
<g id="edge9" class="edge">
<title>D&#45;&#45;F</title>
<path fill="none" stroke="black" d="M174.87,-131.13C187.98,-118.02 208.17,-97.83 221.24,-84.76"/>
</g>
<!-- B -->
<g id="node3" class="node">
<title>B</title>
<ellipse fill="none" stroke="black" cx="18" cy="-126" rx="18" ry="18"/>
<text text-anchor="middle" x="18" y="-122.3" font-family="Times,serif" font-size="14.00">B</text>
</g>
<!-- B&#45;&#45;A -->
<g id="edge2" class="edge">
<title>B&#45;&#45;A</title>
<path fill="none" stroke="black" d="M26.97,-141.7C40.77,-165.85 67.05,-211.84 80.91,-236.1"/>
</g>
<!-- B&#45;&#45;D -->
<g id="edge3" class="edge">
<title>B&#45;&#45;D</title>
<path fill="none" stroke="black" d="M35.95,-128.24C63.54,-131.69 116.1,-138.26 143.83,-141.73"/>
</g>
<!-- C -->
<g id="node4" class="node">
<title>C</title>
<ellipse fill="none" stroke="black" cx="54" cy="-36" rx="18" ry="18"/>
<text text-anchor="middle" x="54" y="-32.3" font-family="Times,serif" font-size="14.00">C</text>
</g>
<!-- B&#45;&#45;C -->
<g id="edge4" class="edge">
<title>B&#45;&#45;C</title>
<path fill="none" stroke="black" d="M24.77,-109.07C31.21,-92.98 40.83,-68.92 47.26,-52.85"/>
</g>
<!-- E -->
<g id="node5" class="node">
<title>E</title>
<ellipse fill="none" stroke="black" cx="144" cy="-18" rx="18" ry="18"/>
<text text-anchor="middle" x="144" y="-14.3" font-family="Times,serif" font-size="14.00">E</text>
</g>
<!-- B&#45;&#45;E -->
<g id="edge5" class="edge">
<title>B&#45;&#45;E</title>
<path fill="none" stroke="black" d="M31.97,-114.03C56.19,-93.27 105.71,-50.82 129.97,-30.02"/>
</g>
<!-- C&#45;&#45;D -->
<g id="edge6" class="edge">
<title>C&#45;&#45;D</title>
<path fill="none" stroke="black" d="M66.81,-48.81C87.49,-69.49 127.99,-109.99 148.87,-130.87"/>
</g>
<!-- C&#45;&#45;E -->
<g id="edge7" class="edge">
<title>C&#45;&#45;E</title>
<path fill="none" stroke="black" d="M71.78,-32.44C87.56,-29.29 110.49,-24.7 126.26,-21.55"/>
</g>
<!-- C&#45;&#45;F -->
<g id="edge8" class="edge">
<title>C&#45;&#45;F</title>
<path fill="none" stroke="black" d="M71.92,-39.58C106.42,-46.48 181.71,-61.54 216.16,-68.43"/>
</g>
</g>
</svg>
