<?xml version="1.0" encoding="UTF-8" standalone="no"?>
<!DOCTYPE svg PUBLIC "-//W3C//DTD SVG 1.1//EN"
 "http://www.w3.org/Graphics/SVG/1.1/DTD/svg11.dtd">
<!-- Generated by graphviz version 2.43.0 (0)
 -->
<!-- Title: G Pages: 1 -->
<svg width="246pt" height="217pt"
 viewBox="0.00 0.00 246.00 217.00" xmlns="http://www.w3.org/2000/svg" xmlns:xlink="http://www.w3.org/1999/xlink">
<g id="graph0" class="graph" transform="scale(1 1) rotate(0) translate(4 213)">
<title>G</title>
<polygon fill="white" stroke="transparent" points="-4,4 -4,-213 242,-213 242,4 -4,4"/>
<!-- A -->
<g id="node1" class="node">
<title>A</title>
<ellipse fill="red" stroke="red" cx="101" cy="-173" rx="36" ry="36"/>
</g>
<!-- F -->
<g id="node2" class="node">
<title>F</title>
<ellipse fill="none" stroke="black" cx="65" cy="-101" rx="11" ry="11"/>
</g>
<!-- A&#45;&#45;F -->
<g id="edge1" class="edge">
<title>A&#45;&#45;F</title>
<path fill="none" stroke="black" d="M84.9,-140.79C79.5,-130.01 73.88,-118.77 70,-110.99"/>
</g>
<!-- I -->
<g id="node5" class="node">
<title>I</title>
<ellipse fill="none" stroke="black" cx="119" cy="-83" rx="11" ry="11"/>
</g>
<!-- A&#45;&#45;I -->
<g id="edge4" class="edge">
<title>A&#45;&#45;I</title>
<path fill="none" stroke="black" d="M108.06,-137.69C111.17,-122.13 114.61,-104.94 116.79,-94.07"/>
</g>
<!-- J -->
<g id="node6" class="node">
<title>J</title>
<ellipse fill="none" stroke="black" cx="155" cy="-119" rx="11" ry="11"/>
</g>
<!-- A&#45;&#45;J -->
<g id="edge5" class="edge">
<title>A&#45;&#45;J</title>
<path fill="none" stroke="black" d="M126.73,-147.27C134.12,-139.88 141.64,-132.36 147.06,-126.94"/>
</g>
<!-- N -->
<g id="node10" class="node">
<title>N</title>
<ellipse fill="none" stroke="black" cx="209" cy="-137" rx="11" ry="11"/>
</g>
<!-- A&#45;&#45;N -->
<g id="edge9" class="edge">
<title>A&#45;&#45;N</title>
<path fill="none" stroke="black" d="M135.17,-161.61C156.92,-154.36 183.66,-145.45 198.25,-140.58"/>
</g>
<!-- G -->
<g id="node3" class="node">
<title>G</title>
<ellipse fill="none" stroke="black" cx="11" cy="-47" rx="11" ry="11"/>
</g>
<!-- F&#45;&#45;G -->
<g id="edge2" class="edge">
<title>F&#45;&#45;G</title>
<path fill="none" stroke="black" d="M57.03,-93.03C46.82,-82.82 29.23,-65.23 19,-55"/>
</g>
<!-- H -->
<g id="node4" class="node">
<title>H</title>
<ellipse fill="none" stroke="black" cx="83" cy="-29" rx="11" ry="11"/>
</g>
<!-- F&#45;&#45;H -->
<g id="edge3" class="edge">
<title>F&#45;&#45;H</title>
<path fill="none" stroke="black" d="M67.73,-90.06C71.12,-76.53 76.85,-53.62 80.24,-40.04"/>
</g>
<!-- K -->
<g id="node7" class="node">
<title>K</title>
<ellipse fill="none" stroke="black" cx="191" cy="-65" rx="11" ry="11"/>
</g>
<!-- J&#45;&#45;K -->
<g id="edge6" class="edge">
<title>J&#45;&#45;K</title>
<path fill="none" stroke="black" d="M161.27,-109.59C167.88,-99.68 178.22,-84.17 184.8,-74.3"/>
</g>
<!-- L -->
<g id="node8" class="node">
<title>L</title>
<ellipse fill="none" stroke="black" cx="155" cy="-29" rx="11" ry="11"/>
</g>
<!-- K&#45;&#45;L -->
<g id="edge7" class="edge">
<title>K&#45;&#45;L</title>
<path fill="none" stroke="black" d="M183.01,-57.01C177.04,-51.04 168.93,-42.93 162.97,-36.97"/>
</g>
<!-- M -->
<g id="node9" class="node">
<title>M</title>
<ellipse fill="none" stroke="black" cx="227" cy="-11" rx="11" ry="11"/>
</g>
<!-- K&#45;&#45;M -->
<g id="edge8" class="edge">
<title>K&#45;&#45;M</title>
<path fill="none" stroke="black" d="M197.27,-55.59C203.88,-45.68 214.22,-30.17 220.8,-20.3"/>
</g>
</g>
</svg>
