<?xml version="1.0" encoding="UTF-8" standalone="no"?>
<!DOCTYPE svg PUBLIC "-//W3C//DTD SVG 1.1//EN"
 "http://www.w3.org/Graphics/SVG/1.1/DTD/svg11.dtd">
<!-- Generated by graphviz version 2.43.0 (0)
 -->
<!-- Title: G Pages: 1 -->
<svg width="209pt" height="260pt"
 viewBox="0.00 0.00 209.00 260.00" xmlns="http://www.w3.org/2000/svg" xmlns:xlink="http://www.w3.org/1999/xlink">
<g id="graph0" class="graph" transform="scale(1 1) rotate(0) translate(4 256)">
<title>G</title>
<polygon fill="white" stroke="transparent" points="-4,4 -4,-256 205,-256 205,4 -4,4"/>
<!-- A -->
<g id="node1" class="node">
<title>A</title>
<ellipse fill="none" stroke="black" cx="104" cy="-234" rx="25" ry="18"/>
<text text-anchor="middle" x="104" y="-230.3" font-family="Times,serif" font-size="14.00">Apple</text>
</g>
<!-- B -->
<g id="node2" class="node">
<title>B</title>
<ellipse fill="none" stroke="black" cx="25" cy="-162" rx="25" ry="18"/>
<text text-anchor="middle" x="25" y="-158.3" font-family="Times,serif" font-size="14.00">Plum</text>
</g>
<!-- A&#45;&#45;B -->
<g id="edge1" class="edge">
<title>A&#45;&#45;B</title>
<path fill="none" stroke="black" d="M88.77,-219.5C74.78,-207.11 54.16,-188.84 40.19,-176.46"/>
</g>
<!-- C -->
<g id="node3" class="node">
<title>C</title>
<ellipse fill="none" stroke="black" cx="66" cy="-90" rx="25" ry="18"/>
<text text-anchor="middle" x="66" y="-86.3" font-family="Times,serif" font-size="14.00">Lime</text>
</g>
<!-- A&#45;&#45;C -->
<g id="edge3" class="edge">
<title>A&#45;&#45;C</title>
<path fill="none" stroke="black" d="M99.49,-216.15C92.18,-188.82 77.81,-135.14 70.5,-107.82"/>
</g>
<!-- D -->
<g id="node4" class="node">
<title>D</title>
<ellipse fill="none" stroke="black" cx="131" cy="-162" rx="25" ry="18"/>
<text text-anchor="middle" x="131" y="-158.3" font-family="Times,serif" font-size="14.00">Orange</text>
</g>
<!-- A&#45;&#45;D -->
<g id="edge5" class="edge">
<title>A&#45;&#45;D</title>
<path fill="none" stroke="black" d="M110.4,-216.41C114.7,-205.25 120.35,-190.6 124.65,-179.47"/>
</g>
<!-- E -->
<g id="node5" class="node">
<title>E</title>
<ellipse fill="none" stroke="black" cx="176" cy="-18" rx="25" ry="18"/>
<text text-anchor="middle" x="176" y="-14.3" font-family="Times,serif" font-size="14.00">Kiwi</text>
</g>
<!-- A&#45;&#45;E -->
<g id="edge6" class="edge">
<title>A&#45;&#45;E</title>
<path fill="none" stroke="black" d="M123.05,-222.21C137.32,-213 155.87,-198.34 165,-180 188.72,-132.35 183.29,-66.74 178.91,-36.08"/>
</g>
<!-- B&#45;&#45;C -->
<g id="edge2" class="edge">
<title>B&#45;&#45;C</title>
<path fill="none" stroke="black" d="M34.3,-145.12C41.01,-133.66 50.03,-118.26 56.73,-106.82"/>
</g>
<!-- C&#45;&#45;D -->
<g id="edge4" class="edge">
<title>C&#45;&#45;D</title>
<path fill="none" stroke="black" d="M79.45,-105.49C90.6,-117.49 106.38,-134.48 117.53,-146.5"/>
</g>
<!-- F -->
<g id="node6" class="node">
<title>F</title>
<ellipse fill="none" stroke="black" cx="97" cy="-18" rx="25" ry="18"/>
<text text-anchor="middle" x="97" y="-14.3" font-family="Times,serif" font-size="14.00">Peach</text>
</g>
<!-- C&#45;&#45;F -->
<g id="edge9" class="edge">
<title>C&#45;&#45;F</title>
<path fill="none" stroke="black" d="M73.35,-72.41C78.29,-61.25 84.78,-46.6 89.71,-35.47"/>
</g>
<!-- D&#45;&#45;E -->
<g id="edge7" class="edge">
<title>D&#45;&#45;E</title>
<path fill="none" stroke="black" d="M136.34,-144.15C145,-116.82 162.01,-63.14 170.67,-35.82"/>
</g>
<!-- D&#45;&#45;F -->
<g id="edge8" class="edge">
<title>D&#45;&#45;F</title>
<path fill="none" stroke="black" d="M126.97,-144.15C120.42,-116.82 107.57,-63.14 101.03,-35.82"/>
</g>
</g>
</svg>
