<?xml version="1.0" encoding="UTF-8" standalone="no"?>
<!DOCTYPE svg PUBLIC "-//W3C//DTD SVG 1.1//EN"
 "http://www.w3.org/Graphics/SVG/1.1/DTD/svg11.dtd">
<!-- Generated by graphviz version 2.43.0 (0)
 -->
<!-- Title: G Pages: 1 -->
<svg width="296pt" height="312pt"
 viewBox="0.00 0.00 296.00 312.00" xmlns="http://www.w3.org/2000/svg" xmlns:xlink="http://www.w3.org/1999/xlink">
<g id="graph0" class="graph" transform="scale(1 1) rotate(0) translate(4 308)">
<title>G</title>
<polygon fill="white" stroke="transparent" points="-4,4 -4,-308 292,-308 292,4 -4,4"/>
<!-- A -->
<g id="node1" class="node">
<title>A</title>
<ellipse fill="none" stroke="black" cx="144" cy="-286" rx="36" ry="18"/>
<text text-anchor="start" x="135" y="-283.3" font-family="Times,serif" font-size="14.00">A</text>
<text text-anchor="start" x="145" y="-283.3" font-family="Times,serif" baseline-shift="sub" font-size="14.00">0</text>
</g>
<!-- B -->
<g id="node2" class="node">
<title>B</title>
<ellipse fill="none" stroke="black" cx="144" cy="-209.5" rx="72" ry="22.5"/>
<text text-anchor="start" x="135" y="-206.8" font-family="Times,serif" font-size="14.00">A</text>
<text text-anchor="start" x="145" y="-206.8" font-family="Times,serif" baseline-shift="sub" font-size="14.00">1</text>
</g>
<!-- A&#45;&#45;B -->
<g id="edge1" class="edge">
<title>A&#45;&#45;B</title>
<path fill="none" stroke="black" d="M127.35,-269.92C123.24,-258.87 122.65,-243.72 125.57,-231.48"/>
</g>
<!-- A&#45;&#45;B -->
<g id="edge2" class="edge">
<title>A&#45;&#45;B</title>
<path fill="none" stroke="black" d="M138.24,-268.09C137.09,-257.45 136.94,-243.6 137.81,-232.15"/>
</g>
<!-- A&#45;&#45;B -->
<g id="edge3" class="edge">
<title>A&#45;&#45;B</title>
<path fill="none" stroke="black" d="M149.76,-268.09C150.91,-257.45 151.06,-243.6 150.19,-232.15"/>
</g>
<!-- A&#45;&#45;B -->
<g id="edge4" class="edge">
<title>A&#45;&#45;B</title>
<path fill="none" stroke="black" d="M160.65,-269.92C164.76,-258.87 165.35,-243.72 162.43,-231.48"/>
</g>
<!-- C -->
<g id="node3" class="node">
<title>C</title>
<ellipse fill="none" stroke="black" cx="144" cy="-124.5" rx="108" ry="26.5"/>
<text text-anchor="start" x="135" y="-121.8" font-family="Times,serif" font-size="14.00">A</text>
<text text-anchor="start" x="145" y="-121.8" font-family="Times,serif" baseline-shift="sub" font-size="14.00">2</text>
</g>
<!-- B&#45;&#45;C -->
<g id="edge5" class="edge">
<title>B&#45;&#45;C</title>
<path fill="none" stroke="black" d="M95.3,-192.89C81.45,-180.12 79.54,-161.89 89.57,-147.62"/>
</g>
<!-- B&#45;&#45;C -->
<g id="edge6" class="edge">
<title>B&#45;&#45;C</title>
<path fill="none" stroke="black" d="M104.25,-190.49C95.48,-178.28 94.4,-162.04 101.02,-148.84"/>
</g>
<!-- B&#45;&#45;C -->
<g id="edge7" class="edge">
<title>B&#45;&#45;C</title>
<path fill="none" stroke="black" d="M114.8,-188.83C109.46,-177.23 108.82,-162.45 112.88,-150.08"/>
</g>
<!-- B&#45;&#45;C -->
<g id="edge8" class="edge">
<title>B&#45;&#45;C</title>
<path fill="none" stroke="black" d="M126.14,-187.56C123.32,-176.41 122.99,-162.63 125.17,-150.88"/>
</g>
<!-- B&#45;&#45;C -->
<g id="edge9" class="edge">
<title>B&#45;&#45;C</title>
<path fill="none" stroke="black" d="M137.98,-186.69C137.1,-175.74 137.02,-162.41 137.72,-150.99"/>
</g>
<!-- B&#45;&#45;C -->
<g id="edge10" class="edge">
<title>B&#45;&#45;C</title>
<path fill="none" stroke="black" d="M150.02,-186.69C150.9,-175.74 150.98,-162.41 150.28,-150.99"/>
</g>
<!-- B&#45;&#45;C -->
<g id="edge11" class="edge">
<title>B&#45;&#45;C</title>
<path fill="none" stroke="black" d="M161.86,-187.56C164.68,-176.41 165.01,-162.63 162.83,-150.88"/>
</g>
<!-- B&#45;&#45;C -->
<g id="edge12" class="edge">
<title>B&#45;&#45;C</title>
<path fill="none" stroke="black" d="M173.2,-188.83C178.54,-177.23 179.18,-162.45 175.12,-150.08"/>
</g>
<!-- B&#45;&#45;C -->
<g id="edge13" class="edge">
<title>B&#45;&#45;C</title>
<path fill="none" stroke="black" d="M183.75,-190.49C192.52,-178.28 193.6,-162.04 186.98,-148.84"/>
</g>
<!-- B&#45;&#45;C -->
<g id="edge14" class="edge">
<title>B&#45;&#45;C</title>
<path fill="none" stroke="black" d="M192.7,-192.89C206.55,-180.12 208.46,-161.89 198.43,-147.62"/>
</g>
<!-- D -->
<g id="node4" class="node">
<title>D</title>
<ellipse fill="none" stroke="black" cx="144" cy="-31" rx="144" ry="31"/>
<text text-anchor="start" x="135" y="-28.3" font-family="Times,serif" font-size="14.00">A</text>
<text text-anchor="start" x="145" y="-28.3" font-family="Times,serif" baseline-shift="sub" font-size="14.00">h</text>
</g>
<!-- C&#45;&#45;D -->
<g id="edge15" class="edge">
<title>C&#45;&#45;D</title>
<path fill="none" stroke="black" stroke-dasharray="1,5" d="M144,-97.52C144,-86.53 144,-73.66 144,-62.25"/>
</g>
</g>
</svg>
