<?xml version="1.0" encoding="UTF-8" standalone="no"?>
<!DOCTYPE svg PUBLIC "-//W3C//DTD SVG 1.1//EN"
 "http://www.w3.org/Graphics/SVG/1.1/DTD/svg11.dtd">
<!-- Generated by graphviz version 2.43.0 (0)
 -->
<!-- Title: G Pages: 1 -->
<svg width="404pt" height="386pt"
 viewBox="0.00 0.00 404.00 386.00" xmlns="http://www.w3.org/2000/svg" xmlns:xlink="http://www.w3.org/1999/xlink">
<g id="graph0" class="graph" transform="scale(1 1) rotate(0) translate(4 382)">
<title>G</title>
<polygon fill="white" stroke="transparent" points="-4,4 -4,-382 400,-382 400,4 -4,4"/>
<!-- D1 -->
<g id="node1" class="node">
<title>D1</title>
<ellipse fill="none" stroke="black" cx="126" cy="-288" rx="18" ry="18"/>
<text text-anchor="middle" x="126" y="-284.3" font-family="Times,serif" font-size="14.00">1</text>
</g>
<!-- B1 -->
<g id="node2" class="node">
<title>B1</title>
<ellipse fill="none" stroke="black" cx="54" cy="-234" rx="18" ry="18"/>
<text text-anchor="middle" x="54" y="-230.3" font-family="Times,serif" font-size="14.00">3</text>
</g>
<!-- D1&#45;&#45;B1 -->
<g id="edge1" class="edge">
<title>D1&#45;&#45;B1</title>
<path fill="none" stroke="black" d="M111.43,-277.07C98.94,-267.7 81.03,-254.28 68.55,-244.91"/>
</g>
<!-- K1 -->
<g id="node3" class="node">
<title>K1</title>
<ellipse fill="none" stroke="black" cx="378" cy="-234" rx="18" ry="18"/>
<text text-anchor="middle" x="378" y="-230.3" font-family="Times,serif" font-size="14.00">5</text>
</g>
<!-- D1&#45;&#45;K1 -->
<g id="edge2" class="edge">
<title>D1&#45;&#45;K1</title>
<path fill="none" stroke="black" d="M143.72,-284.2C189.99,-274.29 314.05,-247.7 360.3,-237.79"/>
</g>
<!-- A1 -->
<g id="node4" class="node">
<title>A1</title>
<ellipse fill="none" stroke="black" cx="18" cy="-180" rx="18" ry="18"/>
<text text-anchor="middle" x="18" y="-176.3" font-family="Times,serif" font-size="14.00">9</text>
</g>
<!-- B1&#45;&#45;A1 -->
<g id="edge3" class="edge">
<title>B1&#45;&#45;A1</title>
<path fill="none" stroke="black" d="M43.97,-218.96C39.06,-211.59 33.16,-202.74 28.22,-195.34"/>
</g>
<!-- C1 -->
<g id="node5" class="node">
<title>C1</title>
<ellipse fill="none" stroke="black" cx="90" cy="-180" rx="18" ry="18"/>
<text text-anchor="middle" x="90" y="-176.3" font-family="Times,serif" font-size="14.00">7</text>
</g>
<!-- B1&#45;&#45;C1 -->
<g id="edge4" class="edge">
<title>B1&#45;&#45;C1</title>
<path fill="none" stroke="black" d="M64.03,-218.96C68.94,-211.59 74.84,-202.74 79.78,-195.34"/>
</g>
<!-- E1 -->
<g id="node6" class="node">
<title>E1</title>
<ellipse fill="none" stroke="black" cx="162" cy="-180" rx="18" ry="18"/>
<text text-anchor="middle" x="162" y="-176.3" font-family="Times,serif" font-size="14.00">8</text>
</g>
<!-- K1&#45;&#45;E1 -->
<g id="edge5" class="edge">
<title>K1&#45;&#45;E1</title>
<path fill="none" stroke="black" d="M360.32,-229.58C319.72,-219.43 220.17,-194.54 179.62,-184.4"/>
</g>
<!-- G1 -->
<g id="node7" class="node">
<title>G1</title>
<ellipse fill="none" stroke="black" cx="234" cy="-126" rx="18" ry="18"/>
<text text-anchor="middle" x="234" y="-122.3" font-family="Times,serif" font-size="14.00">10</text>
</g>
<!-- E1&#45;&#45;G1 -->
<g id="edge6" class="edge">
<title>E1&#45;&#45;G1</title>
<path fill="none" stroke="black" d="M176.57,-169.07C189.06,-159.7 206.97,-146.28 219.45,-136.91"/>
</g>
<!-- F1 -->
<g id="node8" class="node">
<title>F1</title>
<ellipse fill="none" stroke="black" cx="198" cy="-72" rx="18" ry="18"/>
<text text-anchor="middle" x="198" y="-68.3" font-family="Times,serif" font-size="14.00">12</text>
</g>
<!-- G1&#45;&#45;F1 -->
<g id="edge7" class="edge">
<title>G1&#45;&#45;F1</title>
<path fill="none" stroke="black" d="M223.97,-110.96C219.06,-103.59 213.16,-94.74 208.22,-87.34"/>
</g>
<!-- I1 -->
<g id="node9" class="node">
<title>I1</title>
<ellipse fill="none" stroke="black" cx="306" cy="-72" rx="18" ry="18"/>
<text text-anchor="middle" x="306" y="-68.3" font-family="Times,serif" font-size="14.00">15</text>
</g>
<!-- G1&#45;&#45;I1 -->
<g id="edge8" class="edge">
<title>G1&#45;&#45;I1</title>
<path fill="none" stroke="black" d="M248.57,-115.07C261.06,-105.7 278.97,-92.28 291.45,-82.91"/>
</g>
<!-- H1 -->
<g id="node10" class="node">
<title>H1</title>
<ellipse fill="none" stroke="black" cx="270" cy="-18" rx="18" ry="18"/>
<text text-anchor="middle" x="270" y="-14.3" font-family="Times,serif" font-size="14.00">20</text>
</g>
<!-- I1&#45;&#45;H1 -->
<g id="edge9" class="edge">
<title>I1&#45;&#45;H1</title>
<path fill="none" stroke="black" d="M295.97,-56.96C291.06,-49.59 285.16,-40.74 280.22,-33.34"/>
</g>
<!-- J1 -->
<g id="node11" class="node">
<title>J1</title>
<ellipse fill="none" stroke="black" cx="342" cy="-18" rx="18" ry="18"/>
<text text-anchor="middle" x="342" y="-14.3" font-family="Times,serif" font-size="14.00">18</text>
</g>
<!-- I1&#45;&#45;J1 -->
<g id="edge10" class="edge">
<title>I1&#45;&#45;J1</title>
<path fill="none" stroke="black" d="M316.03,-56.96C320.94,-49.59 326.84,-40.74 331.78,-33.34"/>
</g>
<!-- A0 -->
<g id="node12" class="node">
<title>A0</title>
<polygon fill="none" stroke="black" points="36,-378 0,-378 0,-342 36,-342 36,-378"/>
<text text-anchor="middle" x="18" y="-356.3" font-family="Times,serif" font-size="14.00">9</text>
</g>
<!-- A0&#45;&#45;A1 -->
<g id="edge11" class="edge">
<title>A0&#45;&#45;A1</title>
<path fill="none" stroke="black" stroke-dasharray="1,5" d="M18,-341.75C18,-307.16 18,-232.45 18,-198.03"/>
</g>
<!-- B0 -->
<g id="node13" class="node">
<title>B0</title>
<polygon fill="none" stroke="black" points="72,-378 36,-378 36,-342 72,-342 72,-378"/>
<text text-anchor="middle" x="54" y="-356.3" font-family="Times,serif" font-size="14.00">3</text>
</g>
<!-- B0&#45;&#45;B1 -->
<g id="edge12" class="edge">
<title>B0&#45;&#45;B1</title>
<path fill="none" stroke="black" stroke-dasharray="1,5" d="M54,-341.95C54,-317.99 54,-275.95 54,-252.02"/>
</g>
<!-- C0 -->
<g id="node14" class="node">
<title>C0</title>
<polygon fill="none" stroke="black" points="108,-378 72,-378 72,-342 108,-342 108,-378"/>
<text text-anchor="middle" x="90" y="-356.3" font-family="Times,serif" font-size="14.00">7</text>
</g>
<!-- C0&#45;&#45;C1 -->
<g id="edge13" class="edge">
<title>C0&#45;&#45;C1</title>
<path fill="none" stroke="black" stroke-dasharray="1,5" d="M90,-341.75C90,-307.16 90,-232.45 90,-198.03"/>
</g>
<!-- D0 -->
<g id="node15" class="node">
<title>D0</title>
<polygon fill="none" stroke="black" points="144,-378 108,-378 108,-342 144,-342 144,-378"/>
<text text-anchor="middle" x="126" y="-356.3" font-family="Times,serif" font-size="14.00">1</text>
</g>
<!-- D0&#45;&#45;D1 -->
<g id="edge14" class="edge">
<title>D0&#45;&#45;D1</title>
<path fill="none" stroke="black" stroke-dasharray="1,5" d="M126,-341.83C126,-331 126,-317.29 126,-306.41"/>
</g>
<!-- E0 -->
<g id="node16" class="node">
<title>E0</title>
<polygon fill="none" stroke="black" points="180,-378 144,-378 144,-342 180,-342 180,-378"/>
<text text-anchor="middle" x="162" y="-356.3" font-family="Times,serif" font-size="14.00">8</text>
</g>
<!-- E0&#45;&#45;E1 -->
<g id="edge15" class="edge">
<title>E0&#45;&#45;E1</title>
<path fill="none" stroke="black" stroke-dasharray="1,5" d="M162,-341.75C162,-307.16 162,-232.45 162,-198.03"/>
</g>
<!-- F0 -->
<g id="node17" class="node">
<title>F0</title>
<polygon fill="none" stroke="black" points="216,-378 180,-378 180,-342 216,-342 216,-378"/>
<text text-anchor="middle" x="198" y="-356.3" font-family="Times,serif" font-size="14.00">12</text>
</g>
<!-- F0&#45;&#45;F1 -->
<g id="edge16" class="edge">
<title>F0&#45;&#45;F1</title>
<path fill="none" stroke="black" stroke-dasharray="1,5" d="M198,-341.98C198,-290.26 198,-141.72 198,-90.01"/>
</g>
<!-- G0 -->
<g id="node18" class="node">
<title>G0</title>
<polygon fill="none" stroke="black" points="252,-378 216,-378 216,-342 252,-342 252,-378"/>
<text text-anchor="middle" x="234" y="-356.3" font-family="Times,serif" font-size="14.00">10</text>
</g>
<!-- G0&#45;&#45;G1 -->
<g id="edge17" class="edge">
<title>G0&#45;&#45;G1</title>
<path fill="none" stroke="black" stroke-dasharray="1,5" d="M234,-341.64C234,-297.9 234,-187.93 234,-144.28"/>
</g>
<!-- H0 -->
<g id="node19" class="node">
<title>H0</title>
<polygon fill="none" stroke="black" points="288,-378 252,-378 252,-342 288,-342 288,-378"/>
<text text-anchor="middle" x="270" y="-356.3" font-family="Times,serif" font-size="14.00">20</text>
</g>
<!-- H0&#45;&#45;H1 -->
<g id="edge18" class="edge">
<title>H0&#45;&#45;H1</title>
<path fill="none" stroke="black" stroke-dasharray="1,5" d="M270,-341.61C270,-282.09 270,-95.12 270,-36.06"/>
</g>
<!-- I0 -->
<g id="node20" class="node">
<title>I0</title>
<polygon fill="none" stroke="black" points="324,-378 288,-378 288,-342 324,-342 324,-378"/>
<text text-anchor="middle" x="306" y="-356.3" font-family="Times,serif" font-size="14.00">15</text>
</g>
<!-- I0&#45;&#45;I1 -->
<g id="edge19" class="edge">
<title>I0&#45;&#45;I1</title>
<path fill="none" stroke="black" stroke-dasharray="1,5" d="M306,-341.98C306,-290.26 306,-141.72 306,-90.01"/>
</g>
<!-- J0 -->
<g id="node21" class="node">
<title>J0</title>
<polygon fill="none" stroke="black" points="360,-378 324,-378 324,-342 360,-342 360,-378"/>
<text text-anchor="middle" x="342" y="-356.3" font-family="Times,serif" font-size="14.00">18</text>
</g>
<!-- J0&#45;&#45;J1 -->
<g id="edge20" class="edge">
<title>J0&#45;&#45;J1</title>
<path fill="none" stroke="black" stroke-dasharray="1,5" d="M342,-341.61C342,-282.09 342,-95.12 342,-36.06"/>
</g>
<!-- K0 -->
<g id="node22" class="node">
<title>K0</title>
<polygon fill="none" stroke="black" points="396,-378 360,-378 360,-342 396,-342 396,-378"/>
<text text-anchor="middle" x="378" y="-356.3" font-family="Times,serif" font-size="14.00">5</text>
</g>
<!-- K0&#45;&#45;K1 -->
<g id="edge21" class="edge">
<title>K0&#45;&#45;K1</title>
<path fill="none" stroke="black" stroke-dasharray="1,5" d="M378,-341.95C378,-317.99 378,-275.95 378,-252.02"/>
</g>
</g>
</svg>
