<?xml version="1.0" encoding="UTF-8" standalone="no"?>
<!DOCTYPE svg PUBLIC "-//W3C//DTD SVG 1.1//EN"
 "http://www.w3.org/Graphics/SVG/1.1/DTD/svg11.dtd">
<!-- Generated by graphviz version 2.43.0 (0)
 -->
<!-- Title: G Pages: 1 -->
<svg width="127pt" height="195pt"
 viewBox="0.00 0.00 126.89 194.55" xmlns="http://www.w3.org/2000/svg" xmlns:xlink="http://www.w3.org/1999/xlink">
<g id="graph0" class="graph" transform="scale(1 1) rotate(0) translate(4 190.55)">
<title>G</title>
<polygon fill="white" stroke="transparent" points="-4,4 -4,-190.55 122.89,-190.55 122.89,4 -4,4"/>
<!-- A -->
<g id="node1" class="node">
<title>A</title>
<ellipse fill="none" stroke="black" cx="75.8" cy="-168.17" rx="18.27" ry="18.27"/>
<text text-anchor="middle" x="75.8" y="-164.47" font-family="Times,serif" font-size="14.00">A</text>
</g>
<!-- C -->
<g id="node2" class="node">
<title>C</title>
<ellipse fill="none" stroke="black" cx="19.8" cy="-94.69" rx="19.18" ry="19.18"/>
<text text-anchor="middle" x="19.8" y="-90.99" font-family="Times,serif" font-size="14.00">C</text>
</g>
<!-- A&#45;&gt;C -->
<g id="edge1" class="edge">
<title>A&#45;&gt;C</title>
<path fill="none" stroke="black" d="M64.74,-153.05C57.01,-143.19 46.54,-129.82 37.65,-118.47"/>
<polygon fill="black" stroke="black" points="40.15,-115.99 31.22,-110.27 34.64,-120.3 40.15,-115.99"/>
</g>
<!-- E -->
<g id="node3" class="node">
<title>E</title>
<ellipse fill="none" stroke="black" cx="75.8" cy="-94.69" rx="19.18" ry="19.18"/>
<text text-anchor="middle" x="75.8" y="-90.99" font-family="Times,serif" font-size="14.00">E</text>
</g>
<!-- A&#45;&gt;E -->
<g id="edge2" class="edge">
<title>A&#45;&gt;E</title>
<path fill="none" stroke="black" d="M75.8,-149.5C75.8,-141.8 75.8,-132.58 75.8,-123.97"/>
<polygon fill="black" stroke="black" points="79.3,-123.9 75.8,-113.9 72.3,-123.9 79.3,-123.9"/>
</g>
<!-- B -->
<g id="node5" class="node">
<title>B</title>
<ellipse fill="none" stroke="black" cx="99.8" cy="-19.8" rx="19.18" ry="19.18"/>
<text text-anchor="middle" x="99.8" y="-16.1" font-family="Times,serif" font-size="14.00">B</text>
</g>
<!-- A&#45;&gt;B -->
<g id="edge5" class="edge">
<title>A&#45;&gt;B</title>
<path fill="none" stroke="black" d="M85.96,-152.53C92.48,-142.22 100.34,-127.81 103.8,-113.78 109.09,-92.3 107.58,-67.21 105.03,-48.51"/>
<polygon fill="black" stroke="black" points="108.48,-47.92 103.49,-38.57 101.56,-48.99 108.48,-47.92"/>
</g>
<!-- C&#45;&gt;E -->
<g id="edge3" class="edge">
<title>C&#45;&gt;E</title>
<path fill="none" stroke="black" d="M39.05,-94.69C41.51,-94.69 43.97,-94.69 46.44,-94.69"/>
<polygon fill="black" stroke="black" points="46.56,-98.19 56.56,-94.69 46.56,-91.19 46.56,-98.19"/>
</g>
<!-- D -->
<g id="node4" class="node">
<title>D</title>
<ellipse fill="none" stroke="black" cx="19.8" cy="-19.8" rx="19.6" ry="19.6"/>
<text text-anchor="middle" x="19.8" y="-16.1" font-family="Times,serif" font-size="14.00">D</text>
</g>
<!-- C&#45;&gt;D -->
<g id="edge4" class="edge">
<title>C&#45;&gt;D</title>
<path fill="none" stroke="black" d="M19.8,-75.3C19.8,-67.56 19.8,-58.37 19.8,-49.77"/>
<polygon fill="black" stroke="black" points="23.3,-49.69 19.8,-39.69 16.3,-49.69 23.3,-49.69"/>
</g>
<!-- B&#45;&gt;C -->
<g id="edge6" class="edge">
<title>B&#45;&gt;C</title>
<path fill="none" stroke="black" d="M86.02,-33.35C73.69,-44.59 55.4,-61.26 41.16,-74.23"/>
<polygon fill="black" stroke="black" points="38.77,-71.67 33.73,-80.99 43.48,-76.85 38.77,-71.67"/>
</g>
</g>
</svg>
