<?xml version="1.0" encoding="UTF-8" standalone="no"?>
<!DOCTYPE svg PUBLIC "-//W3C//DTD SVG 1.1//EN"
 "http://www.w3.org/Graphics/SVG/1.1/DTD/svg11.dtd">
<!-- Generated by graphviz version 2.43.0 (0)
 -->
<!-- Title: G Pages: 1 -->
<svg width="149pt" height="261pt"
 viewBox="0.00 0.00 149.00 261.00" xmlns="http://www.w3.org/2000/svg" xmlns:xlink="http://www.w3.org/1999/xlink">
<g id="graph0" class="graph" transform="scale(1 1) rotate(0) translate(4 257)">
<title>G</title>
<polygon fill="white" stroke="transparent" points="-4,4 -4,-257 145,-257 145,4 -4,4"/>
<!-- A -->
<g id="node1" class="node">
<title>A</title>
<ellipse fill="none" stroke="black" cx="94" cy="-227" rx="11" ry="11"/>
<text text-anchor="middle" x="51" y="-241.8" font-family="Times,serif" font-size="14.00">((()(()))())</text>
</g>
<!-- B -->
<g id="node2" class="node">
<title>B</title>
<ellipse fill="none" stroke="black" cx="58" cy="-155" rx="11" ry="11"/>
<text text-anchor="middle" x="25.5" y="-169.8" font-family="Times,serif" font-size="14.00">(()(()))</text>
</g>
<!-- A&#45;&#45;B -->
<g id="edge1" class="edge">
<title>A&#45;&#45;B</title>
<path fill="none" stroke="black" d="M88.99,-216.99C82.12,-203.23 69.82,-178.64 62.96,-164.93"/>
</g>
<!-- C -->
<g id="node3" class="node">
<title>C</title>
<ellipse fill="none" stroke="black" cx="130" cy="-155" rx="11" ry="11"/>
<text text-anchor="middle" x="113.5" y="-169.8" font-family="Times,serif" font-size="14.00">()</text>
</g>
<!-- A&#45;&#45;C -->
<g id="edge2" class="edge">
<title>A&#45;&#45;C</title>
<path fill="none" stroke="black" d="M99.01,-216.99C105.88,-203.23 118.18,-178.64 125.04,-164.93"/>
</g>
<!-- D -->
<g id="node4" class="node">
<title>D</title>
<ellipse fill="none" stroke="black" cx="22" cy="-83" rx="11" ry="11"/>
<text text-anchor="middle" x="5.5" y="-97.8" font-family="Times,serif" font-size="14.00">()</text>
</g>
<!-- B&#45;&#45;D -->
<g id="edge3" class="edge">
<title>B&#45;&#45;D</title>
<path fill="none" stroke="black" d="M52.99,-144.99C46.12,-131.23 33.82,-106.64 26.96,-92.93"/>
</g>
<!-- E -->
<g id="node5" class="node">
<title>E</title>
<ellipse fill="none" stroke="black" cx="94" cy="-83" rx="11" ry="11"/>
<text text-anchor="middle" x="72" y="-97.8" font-family="Times,serif" font-size="14.00">(())</text>
</g>
<!-- B&#45;&#45;E -->
<g id="edge4" class="edge">
<title>B&#45;&#45;E</title>
<path fill="none" stroke="black" d="M63.01,-144.99C69.88,-131.23 82.18,-106.64 89.04,-92.93"/>
</g>
<!-- F -->
<g id="node6" class="node">
<title>F</title>
<ellipse fill="none" stroke="black" cx="94" cy="-11" rx="11" ry="11"/>
<text text-anchor="middle" x="77.5" y="-25.8" font-family="Times,serif" font-size="14.00">()</text>
</g>
<!-- E&#45;&#45;F -->
<g id="edge5" class="edge">
<title>E&#45;&#45;F</title>
<path fill="none" stroke="black" d="M94,-71.75C94,-58.3 94,-35.93 94,-22.41"/>
</g>
</g>
</svg>
