<?xml version="1.0" encoding="UTF-8" standalone="no"?>
<!DOCTYPE svg PUBLIC "-//W3C//DTD SVG 1.1//EN"
 "http://www.w3.org/Graphics/SVG/1.1/DTD/svg11.dtd">
<!-- Generated by graphviz version 2.43.0 (0)
 -->
<!-- Title: G Pages: 1 -->
<svg width="358pt" height="430pt"
 viewBox="0.00 0.00 358.23 430.23" xmlns="http://www.w3.org/2000/svg" xmlns:xlink="http://www.w3.org/1999/xlink">
<g id="graph0" class="graph" transform="scale(1 1) rotate(0) translate(4 426.23)">
<title>G</title>
<polygon fill="white" stroke="transparent" points="-4,4 -4,-426.23 354.23,-426.23 354.23,4 -4,4"/>
<!-- A -->
<g id="node1" class="node">
<title>A</title>
<ellipse fill="grey" stroke="black" cx="31.11" cy="-247.11" rx="31.23" ry="31.23"/>
<text text-anchor="middle" x="31.11" y="-243.41" font-family="Times,serif" font-size="14.00">010</text>
</g>
<!-- B -->
<g id="node2" class="node">
<title>B</title>
<ellipse fill="grey" stroke="black" cx="103.11" cy="-391.11" rx="31.23" ry="31.23"/>
<text text-anchor="middle" x="103.11" y="-387.41" font-family="Times,serif" font-size="14.00">000</text>
</g>
<!-- A&#45;&#45;B -->
<g id="edge1" class="edge">
<title>A&#45;&#45;B</title>
<path fill="none" stroke="black" d="M45.17,-275.22C57.85,-300.59 76.42,-337.73 89.09,-363.08"/>
</g>
<!-- E -->
<g id="node5" class="node">
<title>E</title>
<ellipse fill="white" stroke="black" cx="31.11" cy="-31.11" rx="31.23" ry="31.23"/>
<text text-anchor="middle" x="31.11" y="-27.41" font-family="Times,serif" font-size="14.00">110</text>
</g>
<!-- A&#45;&#45;E -->
<g id="edge5" class="edge">
<title>A&#45;&#45;E</title>
<path fill="none" stroke="black" d="M31.11,-215.7C31.11,-174.75 31.11,-103.53 31.11,-62.56"/>
</g>
<!-- C -->
<g id="node3" class="node">
<title>C</title>
<ellipse fill="grey" stroke="black" cx="319.11" cy="-391.11" rx="31.23" ry="31.23"/>
<text text-anchor="middle" x="319.11" y="-387.41" font-family="Times,serif" font-size="14.00">001</text>
</g>
<!-- B&#45;&#45;C -->
<g id="edge2" class="edge">
<title>B&#45;&#45;C</title>
<path fill="none" stroke="black" d="M134.52,-391.11C175.47,-391.11 246.7,-391.11 287.67,-391.11"/>
</g>
<!-- F -->
<g id="node6" class="node">
<title>F</title>
<ellipse fill="white" stroke="black" cx="103.11" cy="-175.11" rx="31.23" ry="31.23"/>
<text text-anchor="middle" x="103.11" y="-171.41" font-family="Times,serif" font-size="14.00">100</text>
</g>
<!-- B&#45;&#45;F -->
<g id="edge6" class="edge">
<title>B&#45;&#45;F</title>
<path fill="none" stroke="black" d="M103.11,-359.7C103.11,-318.75 103.11,-247.53 103.11,-206.56"/>
</g>
<!-- D -->
<g id="node4" class="node">
<title>D</title>
<ellipse fill="grey" stroke="black" cx="247.11" cy="-247.11" rx="31.23" ry="31.23"/>
<text text-anchor="middle" x="247.11" y="-243.41" font-family="Times,serif" font-size="14.00">011</text>
</g>
<!-- C&#45;&#45;D -->
<g id="edge3" class="edge">
<title>C&#45;&#45;D</title>
<path fill="none" stroke="black" d="M305.06,-363.01C292.37,-337.63 273.81,-300.5 261.13,-275.15"/>
</g>
<!-- G -->
<g id="node7" class="node">
<title>G</title>
<ellipse fill="white" stroke="black" cx="319.11" cy="-175.11" rx="31.23" ry="31.23"/>
<text text-anchor="middle" x="319.11" y="-171.41" font-family="Times,serif" font-size="14.00">101</text>
</g>
<!-- C&#45;&#45;G -->
<g id="edge7" class="edge">
<title>C&#45;&#45;G</title>
<path fill="none" stroke="black" d="M319.11,-359.7C319.11,-318.75 319.11,-247.53 319.11,-206.56"/>
</g>
<!-- D&#45;&#45;A -->
<g id="edge4" class="edge">
<title>D&#45;&#45;A</title>
<path fill="none" stroke="black" d="M215.7,-247.11C174.75,-247.11 103.53,-247.11 62.56,-247.11"/>
</g>
<!-- H -->
<g id="node8" class="node">
<title>H</title>
<ellipse fill="white" stroke="black" cx="247.11" cy="-31.11" rx="31.23" ry="31.23"/>
<text text-anchor="middle" x="247.11" y="-27.41" font-family="Times,serif" font-size="14.00">111</text>
</g>
<!-- D&#45;&#45;H -->
<g id="edge8" class="edge">
<title>D&#45;&#45;H</title>
<path fill="none" stroke="black" d="M247.11,-215.7C247.11,-174.75 247.11,-103.53 247.11,-62.56"/>
</g>
<!-- E&#45;&#45;F -->
<g id="edge9" class="edge">
<title>E&#45;&#45;F</title>
<path fill="none" stroke="black" d="M45.17,-59.22C57.85,-84.59 76.42,-121.73 89.09,-147.08"/>
</g>
<!-- F&#45;&#45;G -->
<g id="edge10" class="edge">
<title>F&#45;&#45;G</title>
<path fill="none" stroke="black" d="M134.52,-175.11C175.47,-175.11 246.7,-175.11 287.67,-175.11"/>
</g>
<!-- G&#45;&#45;H -->
<g id="edge11" class="edge">
<title>G&#45;&#45;H</title>
<path fill="none" stroke="black" d="M305.06,-147.01C292.37,-121.63 273.81,-84.5 261.13,-59.15"/>
</g>
<!-- H&#45;&#45;E -->
<g id="edge12" class="edge">
<title>H&#45;&#45;E</title>
<path fill="none" stroke="black" d="M215.7,-31.11C174.75,-31.11 103.53,-31.11 62.56,-31.11"/>
</g>
</g>
</svg>
