<?xml version="1.0" encoding="UTF-8" standalone="no"?>
<!DOCTYPE svg PUBLIC "-//W3C//DTD SVG 1.1//EN"
 "http://www.w3.org/Graphics/SVG/1.1/DTD/svg11.dtd">
<!-- Generated by graphviz version 2.43.0 (0)
 -->
<!-- Title: G Pages: 1 -->
<svg width="336pt" height="192pt"
 viewBox="0.00 0.00 336.00 192.00" xmlns="http://www.w3.org/2000/svg" xmlns:xlink="http://www.w3.org/1999/xlink">
<g id="graph0" class="graph" transform="scale(1 1) rotate(0) translate(4 188)">
<title>G</title>
<polygon fill="white" stroke="transparent" points="-4,4 -4,-188 332,-188 332,4 -4,4"/>
<!-- A -->
<g id="node1" class="node">
<title>A</title>
<ellipse fill="none" stroke="red" cx="11" cy="-173" rx="11" ry="11"/>
</g>
<!-- B -->
<g id="node2" class="node">
<title>B</title>
<ellipse fill="none" stroke="red" cx="119" cy="-137" rx="11" ry="11"/>
</g>
<!-- A&#45;&#45;B -->
<g id="edge1" class="edge">
<title>A&#45;&#45;B</title>
<path fill="none" stroke="red" d="M21.75,-169.42C42.45,-162.52 87.63,-147.46 108.29,-140.57"/>
</g>
<!-- C -->
<g id="node3" class="node">
<title>C</title>
<ellipse fill="none" stroke="red" cx="191" cy="-173" rx="11" ry="11"/>
</g>
<!-- B&#45;&#45;C -->
<g id="edge2" class="edge">
<title>B&#45;&#45;C</title>
<path fill="none" stroke="red" d="M129.01,-142.01C142.77,-148.88 167.36,-161.18 181.07,-168.04"/>
</g>
<!-- F -->
<g id="node6" class="node">
<title>F</title>
<ellipse fill="none" stroke="black" cx="83" cy="-83" rx="11" ry="11"/>
</g>
<!-- B&#45;&#45;F -->
<g id="edge5" class="edge">
<title>B&#45;&#45;F</title>
<path fill="none" stroke="black" d="M112.73,-127.59C106.12,-117.68 95.78,-102.17 89.2,-92.3"/>
</g>
<!-- I -->
<g id="node9" class="node">
<title>I</title>
<ellipse fill="none" stroke="black" cx="137" cy="-65" rx="11" ry="11"/>
</g>
<!-- B&#45;&#45;I -->
<g id="edge8" class="edge">
<title>B&#45;&#45;I</title>
<path fill="none" stroke="black" d="M121.73,-126.06C125.12,-112.53 130.85,-89.62 134.24,-76.04"/>
</g>
<!-- D -->
<g id="node4" class="node">
<title>D</title>
<ellipse fill="none" stroke="red" cx="263" cy="-137" rx="11" ry="11"/>
</g>
<!-- C&#45;&#45;D -->
<g id="edge3" class="edge">
<title>C&#45;&#45;D</title>
<path fill="none" stroke="red" d="M201.01,-167.99C214.77,-161.12 239.36,-148.82 253.07,-141.96"/>
</g>
<!-- J -->
<g id="node10" class="node">
<title>J</title>
<ellipse fill="none" stroke="black" cx="173" cy="-119" rx="11" ry="11"/>
</g>
<!-- C&#45;&#45;J -->
<g id="edge9" class="edge">
<title>C&#45;&#45;J</title>
<path fill="none" stroke="black" d="M187.44,-162.33C184.29,-152.86 179.7,-139.11 176.55,-129.65"/>
</g>
<!-- E -->
<g id="node5" class="node">
<title>E</title>
<ellipse fill="none" stroke="red" cx="317" cy="-173" rx="11" ry="11"/>
</g>
<!-- D&#45;&#45;E -->
<g id="edge4" class="edge">
<title>D&#45;&#45;E</title>
<path fill="none" stroke="red" d="M272.41,-143.27C282.32,-149.88 297.83,-160.22 307.7,-166.8"/>
</g>
<!-- N -->
<g id="node14" class="node">
<title>N</title>
<ellipse fill="none" stroke="black" cx="281" cy="-83" rx="11" ry="11"/>
</g>
<!-- D&#45;&#45;N -->
<g id="edge13" class="edge">
<title>D&#45;&#45;N</title>
<path fill="none" stroke="black" d="M266.56,-126.33C269.71,-116.86 274.3,-103.11 277.45,-93.65"/>
</g>
<!-- G -->
<g id="node7" class="node">
<title>G</title>
<ellipse fill="none" stroke="black" cx="29" cy="-29" rx="11" ry="11"/>
</g>
<!-- F&#45;&#45;G -->
<g id="edge6" class="edge">
<title>F&#45;&#45;G</title>
<path fill="none" stroke="black" d="M75.03,-75.03C64.82,-64.82 47.23,-47.23 37,-37"/>
</g>
<!-- H -->
<g id="node8" class="node">
<title>H</title>
<ellipse fill="none" stroke="black" cx="101" cy="-11" rx="11" ry="11"/>
</g>
<!-- F&#45;&#45;H -->
<g id="edge7" class="edge">
<title>F&#45;&#45;H</title>
<path fill="none" stroke="black" d="M85.73,-72.06C89.12,-58.53 94.85,-35.62 98.24,-22.04"/>
</g>
<!-- K -->
<g id="node11" class="node">
<title>K</title>
<ellipse fill="none" stroke="black" cx="209" cy="-65" rx="11" ry="11"/>
</g>
<!-- J&#45;&#45;K -->
<g id="edge10" class="edge">
<title>J&#45;&#45;K</title>
<path fill="none" stroke="black" d="M179.27,-109.59C185.88,-99.68 196.22,-84.17 202.8,-74.3"/>
</g>
<!-- L -->
<g id="node12" class="node">
<title>L</title>
<ellipse fill="none" stroke="black" cx="173" cy="-29" rx="11" ry="11"/>
</g>
<!-- K&#45;&#45;L -->
<g id="edge11" class="edge">
<title>K&#45;&#45;L</title>
<path fill="none" stroke="black" d="M201.01,-57.01C195.04,-51.04 186.93,-42.93 180.97,-36.97"/>
</g>
<!-- M -->
<g id="node13" class="node">
<title>M</title>
<ellipse fill="none" stroke="black" cx="245" cy="-11" rx="11" ry="11"/>
</g>
<!-- K&#45;&#45;M -->
<g id="edge12" class="edge">
<title>K&#45;&#45;M</title>
<path fill="none" stroke="black" d="M215.27,-55.59C221.88,-45.68 232.22,-30.17 238.8,-20.3"/>
</g>
</g>
</svg>
