<svg xmlns="http://www.w3.org/2000/svg" viewBox="0 0 120 100"><path d="M0 0h120v100H0z"/><g transform="matrix(.3 0 0 .3 90 48)"><circle cy="-15" r="10" fill="#f44333"/><g stroke="#f44333" stroke-linecap="round" stroke-width="4"><path d="M0-15v30M0 0l15-5M0 0l-15-5M0 15l15 15M0 15l-15 15"/></g></g><g transform="matrix(.3 0 0 .3 70 82.641)"><circle cy="-15" r="10" fill="#f44333"/><g stroke="#f44333" stroke-linecap="round" stroke-width="4"><path d="M0-15v30M0 0l15-5M0 0l-15-5M0 15l15 15M0 15l-15 15"/></g></g><g transform="matrix(.3 0 0 .3 30 82.641)"><circle cy="-15" r="10" fill="#f44333"/><g stroke="#f44333" stroke-linecap="round" stroke-width="4"><path d="M0-15v30M0 0l15-5M0 0l-15-5M0 15l15 15M0 15l-15 15"/></g></g><g transform="matrix(.3 0 0 .3 10 48)"><circle cy="-15" r="10" fill="#f44333"/><g stroke="#f44333" stroke-linecap="round" stroke-width="4"><path d="M0-15v30M0 0l15-5M0 0l-15-5M0 15l15 15M0 15l-15 15"/></g></g><g transform="matrix(.3 0 0 .3 30 13.359)"><circle cy="-15" r="10" fill="#f44333"/><g stroke="#f44333" stroke-linecap="round" stroke-width="4"><path d="M0-15v30M0 0l15-5M0 0l-15-5M0 15l15 15M0 15l-15 15"/></g></g><g transform="matrix(.3 0 0 .3 70 13.359)"><circle cy="-15" r="10" fill="#f44333"/><g stroke="#f44333" stroke-linecap="round" stroke-width="4"><path d="M0-15v30M0 0l15-5M0 0l-15-5M0 15l15 15M0 15l-15 15"/></g></g><g stroke="#f44333" stroke-linecap="round" stroke-width=".5"><path d="M13 50.7h4M13 49.3h4M20 50.7h4M20 49.3h4M27 50.7h4M27 49.3h4M34 50.7h4M34 49.3h4M41 50.7h4M41 49.3h4M48 50.7h4M48 49.3h4M55 50.7h4M55 49.3h4M62 50.7h4M62 49.3h4"/><g><path d="M69 50.7h4M69 49.3h4"/></g><g><path d="M76 50.7h4M76 49.3h4"/></g><g><path d="M83 50.7h4M83 49.3h4"/></g><g><path d="M35.606 76.082l2-3.464M34.394 75.382l2-3.464M39.106 70.02l2-3.464M37.894 69.32l2-3.464M42.606 63.958l2-3.464M41.394 63.258l2-3.464M46.106 57.896l2-3.465M44.894 57.196l2-3.465M49.606 51.833l2-3.464M48.394 51.133l2-3.464"/><g><path d="M53.106 45.771l2-3.464M51.894 45.071l2-3.464"/></g><g><path d="M56.606 39.709l2-3.464M55.394 39.009l2-3.464"/></g><g><path d="M60.106 33.647l2-3.464M58.894 32.947l2-3.464"/></g><g><path d="M63.606 27.585l2-3.464M62.394 26.885l2-3.464"/></g></g><g><path d="M34.394 24.618l2 3.464M35.606 23.918l2 3.464M37.894 30.68l2 3.464M39.106 29.98l2 3.464M41.394 36.742l2 3.464M42.606 36.042l2 3.464M44.894 42.804l2 3.465M46.106 42.104l2 3.465M48.394 48.867l2 3.464M49.606 48.167l2 3.464"/><g><path d="M51.894 54.929l2 3.464M53.106 54.229l2 3.464"/></g><g><path d="M55.394 60.991l2 3.464M56.606 60.291l2 3.464"/></g><g><path d="M58.894 67.053l2 3.464M60.106 66.353l2 3.464"/></g><g><path d="M62.394 73.115l2 3.464M63.606 72.415l2 3.464"/></g></g><g><path d="M35.918 19.606l3.464 2M36.618 18.394l3.464 2M41.98 23.106l3.464 2M42.68 21.894l3.464 2M48.042 26.606l3.464 2M48.742 25.394l3.464 2M54.104 30.106l3.465 2M54.804 28.894l3.465 2"/><g><path d="M60.167 33.606l3.464 2M60.867 32.394l3.464 2"/></g><g><path d="M66.229 37.106l3.464 2M66.929 35.894l3.464 2"/></g><g><path d="M72.291 40.606l3.464 2M72.991 39.394l3.464 2"/></g><g><path d="M78.353 44.106l3.464 2M79.053 42.894l3.464 2"/></g></g><g><path d="M17.918 58.606l3.464 2M18.618 57.394l3.464 2M23.98 62.106l3.464 2M24.68 60.894l3.464 2M30.042 65.606l3.464 2M30.742 64.394l3.464 2M36.104 69.106l3.465 2M36.804 67.894l3.465 2"/><g><path d="M42.167 72.606l3.464 2M42.867 71.394l3.464 2"/></g><g><path d="M48.229 76.106l3.464 2M48.929 74.894l3.464 2"/></g><g><path d="M54.291 79.606l3.464 2M54.991 78.394l3.464 2"/></g><g><path d="M60.353 83.106l3.464 2M61.053 81.894l3.464 2"/></g></g><g><path d="M29.3 21v4M30.7 21v4M29.3 28v4M30.7 28v4M29.3 35v4M30.7 35v4M29.3 42v4M30.7 42v4"/><g><path d="M29.3 49v4M30.7 49v4"/></g><g><path d="M29.3 56v4M30.7 56v4"/></g><g><path d="M29.3 63v4M30.7 63v4"/></g><g><path d="M29.3 70v4M30.7 70v4"/></g></g><g><path d="M69.3 21v4M70.7 21v4M69.3 28v4M70.7 28v4M69.3 35v4M70.7 35v4M69.3 42v4M70.7 42v4"/><g><path d="M69.3 49v4M70.7 49v4"/></g><g><path d="M69.3 56v4M70.7 56v4"/></g><g><path d="M69.3 63v4M70.7 63v4"/></g><g><path d="M69.3 70v4M70.7 70v4"/></g></g><g><path d="M16.618 44.606l3.464-2M15.918 43.394l3.464-2M22.68 41.106l3.464-2M21.98 39.894l3.464-2M28.742 37.606l3.464-2M28.042 36.394l3.464-2M34.804 34.106l3.465-2M34.104 32.894l3.465-2"/><g><path d="M40.867 30.606l3.464-2M40.167 29.394l3.464-2"/></g><g><path d="M46.929 27.106l3.464-2M46.229 25.894l3.464-2"/></g><g><path d="M52.991 23.606l3.464-2M52.291 22.394l3.464-2"/></g><g><path d="M59.053 20.106l3.464-2M58.353 18.894l3.464-2"/></g></g><g><path d="M37.618 81.606l3.464-2M36.918 80.394l3.464-2M43.68 78.106l3.464-2M42.98 76.894l3.464-2M49.742 74.606l3.464-2M49.042 73.394l3.464-2M55.804 71.106l3.465-2M55.104 69.894l3.465-2"/><g><path d="M61.867 67.606l3.464-2M61.167 66.394l3.464-2"/></g><g><path d="M67.929 64.106l3.464-2M67.229 62.894l3.464-2"/></g><g><path d="M73.991 60.606l3.464-2M73.291 59.394l3.464-2"/></g><g><path d="M80.053 57.106l3.464-2M79.353 55.894l3.464-2"/></g></g><g><path d="M37.618 81.606l3.464-2M36.918 80.394l3.464-2M43.68 78.106l3.464-2M42.98 76.894l3.464-2M49.742 74.606l3.464-2M49.042 73.394l3.464-2M55.804 71.106l3.465-2M55.104 69.894l3.465-2"/><g><path d="M61.867 67.606l3.464-2M61.167 66.394l3.464-2"/></g><g><path d="M67.929 64.106l3.464-2M67.229 62.894l3.464-2"/></g><g><path d="M73.991 60.606l3.464-2M73.291 59.394l3.464-2"/></g><g><path d="M80.053 57.106l3.464-2M79.353 55.894l3.464-2"/></g></g><g><path d="M38 12.7h4M38 11.3h4M45 12.7h4M45 11.3h4"/><g><path d="M52 12.7h4M52 11.3h4"/></g><g><path d="M59 12.7h4M59 11.3h4"/></g></g><g><path d="M38 90.7h4M38 89.3h4M45 90.7h4M45 89.3h4"/><g><path d="M52 90.7h4M52 89.3h4"/></g><g><path d="M59 90.7h4M59 89.3h4"/></g></g><g><path d="M10.394 58.618l2 3.464M11.606 57.918l2 3.464M13.894 64.68l2 3.464M15.106 63.98l2 3.464"/><g><path d="M17.394 70.742l2 3.464M18.606 70.042l2 3.464"/></g><g><path d="M20.894 76.804l2 3.465M22.106 76.104l2 3.465"/></g></g><g><path d="M74.394 18.618l2 3.464M75.606 17.918l2 3.464M77.894 24.68l2 3.464M79.106 23.98l2 3.464"/><g><path d="M81.394 30.742l2 3.464M82.606 30.042l2 3.464"/></g><g><path d="M84.894 36.804l2 3.465M86.106 36.104l2 3.465"/></g></g><g><path d="M24.394 17.918l-2 3.464M25.606 18.618l-2 3.464M20.894 23.98l-2 3.464M22.106 24.68l-2 3.464"/><g><path d="M17.394 30.042l-2 3.464M18.606 30.742l-2 3.464"/></g><g><path d="M13.894 36.104l-2 3.465M15.106 36.804l-2 3.465"/></g></g><g><path d="M88.394 57.918l-2 3.464M89.606 58.618l-2 3.464M84.894 63.98l-2 3.464M86.106 64.68l-2 3.464"/><g><path d="M81.394 70.042l-2 3.464M82.606 70.742l-2 3.464"/></g><g><path d="M77.894 76.104l-2 3.465M79.106 76.804l-2 3.465"/></g></g></g><g><g stroke="#f44333" stroke-linecap="square" stroke-width=".8"><path d="M65.5 31.5v13h9v-9l-4-4h-5zM74.5 35.5h-4M70.5 31.5v4M67.5 34.5h3M67.5 36.7h5M67.5 38.7h5M67.5 40.7h5M67.5 42.7h5"/></g></g><g><g stroke="#f44333" stroke-linecap="square" stroke-width=".8"><path d="M25.5 43.5v13h9v-9l-4-4h-5zM34.5 47.5h-4M30.5 43.5v4M27.5 46.5h3M27.5 48.7h5M27.5 50.7h5M27.5 52.7h5M27.5 54.7h5"/></g></g><g><g stroke="#f44333" stroke-linecap="square" stroke-width=".8"><path d="M45.5 83.5v13h9v-9l-4-4h-5zM54.5 87.5h-4M50.5 83.5v4M47.5 86.5h3M47.5 88.7h5M47.5 90.7h5M47.5 92.7h5M47.5 94.7h5"/></g></g><text transform="translate(110)" style="text-orientation:upright" fill="#f44333" font-size="11" writing-mode="vertical-rl">CC BY SA</text></svg>